<?xml version="1.0" encoding="utf-8"?>
<!-- Generator: Adobe Illustrator 20.1.0, SVG Export Plug-In . SVG Version: 6.00 Build 0)  -->
<svg version="1.1" id="simon" xmlns="http://www.w3.org/2000/svg" xmlns:xlink="http://www.w3.org/1999/xlink" x="0px" y="0px"
	 viewBox="0 0 678 382" style="enable-background:new 0 0 678 382;" xml:space="preserve">
<style type="text/css">
	.st0{fill:#FFFFFF;stroke:#000000;stroke-width:10;stroke-linecap:round;stroke-miterlimit:10;}
	.st1{fill:none;stroke:#000000;stroke-width:0.75;stroke-miterlimit:10;}
	.st2{fill:#FFFFFF;stroke:#000000;stroke-width:0.75;stroke-miterlimit:10;}
	.st3{fill:none;stroke:#000000;stroke-miterlimit:10;}
	.st4{fill:none;stroke:#000000;stroke-width:0.5;stroke-miterlimit:10;}
</style>
<path class="st0" d="M94.2,272.9c0,0,63.6,86.4,150,0c2.4-3.2,18-24.7,10.9-42c-8.1-19.6-44.5-31.6-84.6-13.3
	c-40.1,12.2-74.3-6-79.9-28.2c-4.9-19.7,13.5-39.5,15.8-42c5.7-6.1,23-23.2,51.8-28.9c27.5-5.5,49.3,2.8,57,6.1"/>
<path class="st1" d="M89,300c4.2,4.9,34.4,38.9,83.5,38.3c57.9-0.7,89-48.9,91-52.2"/>
<path class="st2" d="M214.6,151.6c-2.1-1.1-39.3-20.4-71.9-0.3c-15.4,9.5-22.7,23.5-25.7,30.3"/>
<path class="st1" d="M88.9,229c29.6,22.1,50.4,23.8,64,21.1c15.9-3.2,30.5-14.3,55.3-12.2c7.7,0.6,13.8,2.3,17.8,3.6"/>
<line class="st3" x1="283" y1="138.8" x2="324.9" y2="273.7"/>
<line class="st1" x1="271.2" y1="161.1" x2="313" y2="296"/>
<polyline class="st3" points="359.4,245.7 347.4,116.7 410.4,200.2 434.4,103.2 472.4,189.2 "/>
<path class="st1" d="M369.4,181.6c8.8,10.8,17.6,21.5,26.3,32.3"/>
<path class="st1" d="M419.4,96.8c-6.8,20.9-13.6,41.8-20.4,62.7"/>
<circle class="st3" cx="509.5" cy="111.7" r="37.1"/>
<path class="st1" d="M479,153.9c0,0,27,25.2,57,2.5"/>
<path class="st4" d="M495,95.8c0,0,22.7-15.4,33,8.5"/>
<path class="st3" d="M568.4,111l-21.9-54.8c18.3,13,36.6,26,54.9,39c-3.7-21-7.3-42-11-63"/>
<line class="st4" x1="591.9" y1="107" x2="581" y2="99.4"/>
<line class="st3" x1="507.5" y1="48.2" x2="523.4" y2="32.2"/>
</svg>
