<?xml version="1.0" encoding="utf-8"?>
<!-- Generator: Adobe Illustrator 22.1.0, SVG Export Plug-In . SVG Version: 6.00 Build 0)  -->
<svg version="1.1" id="Layer_1" xmlns="http://www.w3.org/2000/svg" xmlns:xlink="http://www.w3.org/1999/xlink" x="0px" y="0px"
	 viewBox="0 0 640 480" style="enable-background:new 0 0 640 480;" xml:space="preserve">
<style type="text/css">
	.st0{fill:#FFDB00;}
</style>
<ellipse class="st0" cx="304.5" cy="217" rx="234.5" ry="169"/>
<g>
	<ellipse cx="259.1" cy="152.9" rx="32" ry="31.2"/>
</g>
<g>
	<ellipse cx="387" cy="152.9" rx="32" ry="31.2"/>
</g>
<path d="M195.1,245.9c-7.2-7.9-7.3-20-0.4-27.9c6.5-7.5,17.7-9.3,26.5-4.1c19.2,7.8,52.9,18.6,95.9,17.8
	c46.1-0.9,81.3-14.7,100.4-23.8c12-5.4,25.8-1.9,32.8,7.6c5.5,7.4,6.2,17.7,2.2,26.6c-25.6,14.2-48.2,22.2-64,26.8
	c-30.3,8.8-96.1,28.1-159.1-1.5C213.7,260.2,202.2,251.7,195.1,245.9z"/>
<path d="M140,383c3-2,80-91,105-66c0,0,14,11-46,66H140z"/>
<path d="M165,426c43.7,12,79-49,79-49s-29-32-54-6l-50,12C140,383,114,412,165,426z"/>
<path d="M211,93c0,0,31-64,67-15c0,0-34-3-47,6L211,93z"/>
<path d="M361.4,65c0,0,61.8-35.1,63.7,25.6c0,0-26.3-21.8-42.1-21.7L361.4,65z"/>
</svg>
