<?xml version="1.0" encoding="utf-8"?>
<!-- Generator: Adobe Illustrator 20.1.0, SVG Export Plug-In . SVG Version: 6.00 Build 0)  -->
<svg version="1.1" xmlns="http://www.w3.org/2000/svg" xmlns:xlink="http://www.w3.org/1999/xlink" x="0px" y="0px"
	 viewBox="0 0 476.3 504.1" style="enable-background:new 0 0 476.3 504.1;" xml:space="preserve">
<style type="text/css">
	.st0{fill:none;stroke:#121212;stroke-width:7;stroke-miterlimit:10;}
	.st1{fill:#214196;}
	.st2{fill:#407EC1;}
</style>
<g id="Layer_1">
	<g>
		<line class="st0" x1="409.8" y1="455.8" x2="409.8" y2="40.5"/>
		<line class="st0" x1="380.2" y1="402.8" x2="439.5" y2="402.8"/>
		<path class="st0" d="M378.5,472.3c0,0,31.3-0.8,31.3-18.8"/>
		<path class="st0" d="M441.1,472.3c0,0-31.3-0.8-31.3-18.8"/>
		<path class="st0" d="M441.1,22.5c0,0-31.3,0.8-31.3,18.8"/>
		<path class="st0" d="M378.5,22.5c0,0,31.3,0.8,31.3,18.8"/>
	</g>
</g>
<g id="Layer_2">
	<path class="st1" d="M130.6,195.7h55v-105c0,0-15-64-71-61s-71.5,45-71.5,59s0,129,0,129s4,57,71.3,58c0,0,16.3-4,15.3,18v105
		c0,0,4.5,11-15.3,16c0,0-17.7,1-17.7-13s0-105,0-105H43.1v110c0,0,5,56,71.3,58c0,0,68.3,5,71.3-59v-124c0,0,0-62-54-65h-23
		c0,0-12,0-12-19s0-109,0-109s19-27,34,0V195.7z"/>
	<path class="st2" d="M210.6,464.7V30.6h96c0,0,35-1,35,44.8v165.5c0,0,3,30.2-15,43.7c0,0,17.4,5.2,15.2,46.8v133.3h-50.2V354.4
		c0,0,4-30.2-29-21.9v132.2H210.6z M276.3,259.6c14.7,0,14.3-18.7,14.3-18.7V102.4c-2-23.9-29-17.7-29-17.7v174.9H276.3z"/>
</g>
</svg>
