<?xml version="1.0" encoding="utf-8"?>
<!-- Generator: Adobe Illustrator 20.1.0, SVG Export Plug-In . SVG Version: 6.00 Build 0)  -->
<svg version="1.1" id="Layer_1" xmlns="http://www.w3.org/2000/svg" xmlns:xlink="http://www.w3.org/1999/xlink" x="0px" y="0px"
	 viewBox="0 0 784 220" style="enable-background:new 0 0 784 220;" xml:space="preserve">
<style type="text/css">
	.st0{display:none;}
	.st1{display:inline;}
	.st2{fill:#FFFFFF;stroke:#000000;stroke-width:18;stroke-miterlimit:10;}
	.st3{opacity:0.83;fill:#FFFFFF;enable-background:new    ;}
	.st4{fill:none;stroke:#727373;stroke-width:3;stroke-miterlimit:10;}
	.st5{enable-background:new    ;}
</style>
<g id="Layer_1_1_" class="st0">
	<g class="st1">
		<polyline class="st2" points="367.1,176.6 468.8,-8.5 661.4,69.8 567.3,277.8 367.1,181.3 		"/>
		<polygon class="st2" points="345.3,362.6 345.3,130.9 554.8,130.9 576.1,107.9 692.2,107.9 692.2,362.6 		"/>
	</g>
</g>
<g id="Layer_3">
	<path class="st3" d="M767.4,202.3H16c-4.7,0-8.6-5.4-8.6-12V29.7c0-6.6,3.9-12,8.6-12h751.4c4.7,0,8.6,5.4,8.6,12v160.6
		C776,196.9,772.1,202.3,767.4,202.3z"/>
</g>
<g id="Layer_2">
	<g>
		<line class="st4" x1="719" y1="177.3" x2="719" y2="41.3"/>
		<line class="st4" x1="714" y1="159.9" x2="726.1" y2="159.9"/>
		<path class="st4" d="M713.7,182.7c0,0,6.4-0.3,6.4-6.1"/>
		<path class="st4" d="M726.4,182.7c0,0-6.4-0.3-6.4-6.1"/>
		<path class="st4" d="M726.4,35.4c0,0-6.4,0.3-6.4,6.1"/>
		<path class="st4" d="M713.7,35.4c0,0,6.4,0.3,6.4,6.1"/>
	</g>
	<g class="st5">
		<path d="M55.5,77.3C64.6,75.9,74.4,75,82,75c23,0,36.8,2.9,36.8,32.1c0,25.8-13.7,31.5-36.4,31.6c0.1,6.2,0.2,12.5,0.3,18.7
			c-4,0.2-8,0.3-12,0.3c-4.6,0-9.2-0.1-13.9-0.3c-0.7,0-1.4-0.6-1.4-1.4c0-12.8-0.3-25.8-0.3-39.4C55.3,103.1,55.5,90.6,55.5,77.3z
			 M84.3,116.4c3.7,0,7-0.8,7-8.9c0-8.4-0.6-9.4-6-9.4h-3.1v18.3H84.3z"/>
		<path d="M153.3,75c25.9,0,38,10.3,38,41.6c0,26.7-12.1,40.7-31.2,41.6c-25.8,0-37.8-10.2-37.8-41.6C122.4,90,134.2,76,153.3,75z
			 M157,134.6c3.7,0,6-1.8,6-18c0-16.1-2.7-17.9-6.4-17.9c-3.7,0-5.8,1.7-5.8,17.9C150.7,132.8,153.3,134.6,157,134.6z"/>
		<path d="M199,77.3c9.1-1.4,20.2-2.3,27.8-2.3c20.2,0,34.1,1.6,34.1,23.6c0,10-5.5,17.6-14.4,21.8c3.1,1.1,5.7,3.4,7.5,6.5
			c5.3,10.5,8.4,20.3,10.8,30.6c-4.6,0.5-9.4,0.8-14.2,0.8c-3.6,0-7.3-0.1-10.9-0.4c-0.8,0-1.8-0.5-2.1-1.4
			c-3.8-11.6-7.5-23.2-10.3-32.5c-0.6,0-1.2,0-1.8,0c0.2,11.1,0.6,22.8,0.6,33.4c-4,0.2-7.9,0.2-11.9,0.2c-4.6,0-9.3-0.1-13.9-0.2
			c-0.8,0-1.4-0.6-1.4-1.4c0-12.8-0.3-27.6-0.3-41.1C198.7,101.4,199,90.9,199,77.3z M227.7,107.3c4.3,0,7.2-2.4,7.2-5.9
			c0-4.2-1.4-6.5-6.2-6.5c-1.1,0-2.2,0.1-3.2,0.1c0,4-0.1,7.9-0.1,12.3H227.7z"/>
		<path d="M264.1,76c4.3-0.2,26.9-0.3,31.4-0.3c4.6,0,23.4,0.1,28.1,0.3c0.7,0,1.3,0.6,1.4,1.4c0.1,3.8,0.1,7.7,0.1,11.6
			c0,3.3,0,6.7-0.1,10.2c-2.2,0.1-9.4,0.2-16.4,0.2c0.1,5.5,0.1,11.1,0.1,17.4c0,13.6-0.2,27.2-0.5,40.7c-4.3,0.2-7.4,0.3-11.9,0.3
			c-4.6,0-9.3-0.1-13.9-0.3c-0.7,0-1.4-0.6-1.4-1.4c-0.3-12.8-0.5-25.8-0.5-39.4c0-6.3,0-11.9,0.1-17.6c-6.2-0.1-12.6-0.3-15.1-0.4
			c-0.7,0-1.4-0.6-1.4-1.4c-0.1-3.9-0.1-7.5-0.1-11.1C264,82.9,264,79.6,264.1,76z"/>
		<path d="M323.4,152.1c4-24.8,9.8-51.1,14.9-76.1c6.1-0.3,12.3-0.3,18.7-0.3c6.6,0,12.9,0.1,19.4,0.3c0.8,0,1.5,0.6,1.6,1.4
			c5.1,26,11.5,53.8,15.5,80.1c-4.3,0.2-7.3,0.3-11.8,0.3c-4.6,0-8.7,0-13.3-0.3c-0.7,0-1.4-0.6-1.6-1.4c-0.9-4.5-1.7-9-2.5-13.6
			h-12.6c-0.7,5-1.6,10-2.6,14.9c-4.3,0.2-6.7,0.3-11.2,0.3c-4.6,0-9.3-0.1-13.9-0.3c-0.7,0-1.1-0.5-1.1-1.1
			C322.8,156,323.2,153.4,323.4,152.1z M361.5,124.8c-1.4-10.1-2.8-20.4-4.2-30.5c-1.2,10.1-2.2,20.3-3.4,30.5H361.5z"/>
		<path d="M398.9,76c4.3-0.2,23.6-0.3,28.2-0.3c4.6,0,17.2,0.1,21.8,0.3c0.8,0,1.3,0.6,1.4,1.4c0.1,4.1,0.1,7.9,0.1,11.7
			c0,3.2,0,6.5-0.1,10c-4.3,0.2-15.2,0.3-19.7,0.3c-0.9,0-2.6,0-4.6,0c0,3.8-0.1,7.6-0.1,11.7c5.3,0.1,11.9,0.2,15.2,0.3
			c0.7,0,1.3,0.6,1.4,1.4c0.1,4.1,0.1,7.9,0.1,11.7c0,3.2,0,6.5-0.1,10c-3.7,0.2-11.5,0.3-16.5,0.3c0.1,7.6,0.2,15.2,0.2,22.8
			c-4.3,0.2-7.4,0.3-11.9,0.3c-4.6,0-9.3-0.1-13.9-0.3c-0.8,0-1.4-0.6-1.4-1.4c-0.3-12.8-0.5-25.8-0.5-39.4
			C398.3,103.1,398.5,89.5,398.9,76z"/>
		<path d="M483.6,75c25.9,0,38,10.3,38,41.6c0,26.7-12.1,40.7-31.2,41.6c-25.8,0-37.8-10.2-37.8-41.6C452.6,90,464.4,76,483.6,75z
			 M487.3,134.6c3.7,0,6-1.8,6-18c0-16.1-2.7-17.9-6.4-17.9c-3.7,0-5.8,1.7-5.8,17.9C481,132.8,483.6,134.6,487.3,134.6z"/>
		<path d="M529.2,76c4.3-0.2,7.4-0.3,11.9-0.3c4.6,0,9.3,0.1,13.9,0.3c0.8,0,1.4,0.6,1.4,1.4c0.3,12.8,0.5,25.8,0.5,39.4
			c0,6.1,0,11.9-0.1,17.6h0.6c4.6,0,16.1,0.1,20.7,0.3c0.7,0,1.3,0.6,1.4,1.4c0.1,4.1,0.1,7.9,0.1,11.7c0,3.2,0,6.5-0.1,10
			c-4.3,0.2-15.5,0.3-20,0.3c-4.6,0-24.3-0.4-28.9-0.6c-0.8,0-1.4-0.6-1.4-1.4c-0.3-12.8-0.5-25.8-0.5-39.4
			C528.7,103.1,528.9,89.5,529.2,76z"/>
		<path d="M584.9,76c4.3-0.2,7.4-0.3,11.9-0.3c4.6,0,9.3,0.1,13.9,0.3c0.8,0,1.4,0.6,1.4,1.4c0.3,12.8,0.5,25.8,0.5,39.4
			c0,13.6-0.2,27.2-0.5,40.7c-4.3,0.2-7.4,0.3-11.9,0.3c-4.6,0-9.3-0.1-13.9-0.3c-0.8,0-1.4-0.6-1.4-1.4
			c-0.3-12.8-0.5-25.8-0.5-39.4C584.4,103.1,584.6,89.5,584.9,76z"/>
		<path d="M650.6,75c25.9,0,38,10.3,38,41.6c0,26.7-12.1,40.7-31.2,41.6c-25.8,0-37.8-10.2-37.8-41.6C619.7,90,631.5,76,650.6,75z
			 M654.3,134.6c3.7,0,6-1.8,6-18c0-16.1-2.7-17.9-6.4-17.9c-3.7,0-5.8,1.7-5.8,17.9C648.1,132.8,650.6,134.6,654.3,134.6z"/>
	</g>
</g>
</svg>
