<?xml version="1.0" encoding="utf-8"?>
<!-- Generator: Adobe Illustrator 20.1.0, SVG Export Plug-In . SVG Version: 6.00 Build 0)  -->
<svg version="1.1" xmlns="http://www.w3.org/2000/svg" xmlns:xlink="http://www.w3.org/1999/xlink" x="0px" y="0px"
	 viewBox="0 0 1080.7 220" style="enable-background:new 0 0 1080.7 220;" xml:space="preserve">
<style type="text/css">
	.st0{display:none;}
	.st1{display:inline;}
	.st2{fill:#FFFFFF;stroke:#000000;stroke-width:18;stroke-miterlimit:10;}
	.st3{opacity:0.83;fill:#FFFFFF;}
	.st4{fill:none;stroke:#727373;stroke-width:3;stroke-miterlimit:10;}
	.st5{font-family:'Digitalt';}
	.st6{font-size:135.8045px;}
</style>
<g id="Layer_1" class="st0">
	<g class="st1">
		<polyline class="st2" points="367.1,176.6 468.8,-8.5 661.4,69.8 567.3,277.8 367.1,181.3 		"/>
		<polygon class="st2" points="345.3,362.6 345.3,130.9 554.8,130.9 576.1,107.9 692.2,107.9 692.2,362.6 		"/>
	</g>
</g>
<g id="Layer_3">
	<path class="st3" d="M1068.7,202.3H19.4c-6.6,0-12-5.4-12-12V29.7c0-6.6,5.4-12,12-12h1049.3c6.6,0,12,5.4,12,12v160.6
		C1080.7,196.9,1075.3,202.3,1068.7,202.3z"/>
</g>
<g id="Layer_2">
	<g>
		<line class="st4" x1="1033.7" y1="177.3" x2="1033.7" y2="41.3"/>
		<line class="st4" x1="1027.7" y1="159.9" x2="1039.8" y2="159.9"/>
		<path class="st4" d="M1027.4,182.7c0,0,6.4-0.3,6.4-6.1"/>
		<path class="st4" d="M1040.1,182.7c0,0-6.4-0.3-6.4-6.1"/>
		<path class="st4" d="M1040.1,35.4c0,0-6.4,0.3-6.4,6.1"/>
		<path class="st4" d="M1027.4,35.4c0,0,6.4,0.3,6.4,6.1"/>
	</g>
	<text transform="matrix(1 0 0 1 51.7551 157.4381)" class="st5 st6">Featured Works</text>
</g>
</svg>
