<?xml version="1.0" encoding="utf-8"?>
<!-- Generator: Adobe Illustrator 20.1.0, SVG Export Plug-In . SVG Version: 6.00 Build 0)  -->
<svg version="1.1" id="Layer_1" xmlns="http://www.w3.org/2000/svg" xmlns:xlink="http://www.w3.org/1999/xlink" x="0px" y="0px"
	 viewBox="0 0 730.7 220" style="enable-background:new 0 0 730.7 220;" xml:space="preserve">
<style type="text/css">
	.st0{display:none;}
	.st1{display:inline;}
	.st2{fill:#FFFFFF;stroke:#000000;stroke-width:18;stroke-miterlimit:10;}
	.st3{opacity:0.81;fill:#FFFFFF;enable-background:new    ;}
	.st4{fill:none;stroke:#727373;stroke-width:3;stroke-miterlimit:10;}
	.st5{enable-background:new    ;}
</style>
<g id="Layer_1_1_" class="st0">
	<g class="st1">
		<polyline class="st2" points="367.1,176.6 468.8,-8.5 661.4,69.8 567.3,277.8 367.1,181.3 		"/>
		<polygon class="st2" points="345.3,362.6 345.3,130.9 554.8,130.9 576.1,107.9 692.2,107.9 692.2,362.6 		"/>
	</g>
</g>
<g id="Layer_3">
</g>
<g id="Layer_2">
	<path class="st3" d="M710,202.3H16.8c-6.6,0-12-5.4-12-12V29.7c0-6.6,5.4-12,12-12H710c6.6,0,12,5.4,12,12v160.6
		C722,196.9,716.6,202.3,710,202.3z"/>
	<g>
		<line class="st4" x1="675" y1="177.3" x2="675" y2="41.3"/>
		<line class="st4" x1="669" y1="159.9" x2="681" y2="159.9"/>
		<path class="st4" d="M668.6,182.7c0,0,6.4-0.3,6.4-6.1"/>
		<path class="st4" d="M681.4,182.7c0,0-6.4-0.3-6.4-6.1"/>
		<path class="st4" d="M681.4,35.4c0,0-6.4,0.3-6.4,6.1"/>
		<path class="st4" d="M668.6,35.4c0,0,6.4,0.3,6.4,6.1"/>
	</g>
	<g class="st5">
		<path d="M73.5,152.1c4-24.8,9.8-51.1,14.9-76.1c6.1-0.3,12.3-0.3,18.7-0.3c6.6,0,12.9,0.1,19.4,0.3c0.8,0,1.5,0.6,1.6,1.4
			c5.1,26,11.5,53.8,15.5,80.1c-4.3,0.2-7.3,0.3-11.8,0.3c-4.6,0-8.7,0-13.3-0.3c-0.7,0-1.4-0.6-1.6-1.4c-0.9-4.5-1.7-9-2.5-13.6
			h-12.6c-0.7,5-1.6,10-2.6,14.9c-4.3,0.2-6.7,0.3-11.2,0.3c-4.6,0-9.3-0.1-13.9-0.3c-0.7,0-1.1-0.5-1.1-1.1
			C72.8,156,73.3,153.4,73.5,152.1z M111.6,124.8c-1.4-10.1-2.8-20.4-4.2-30.5c-1.2,10.1-2.2,20.3-3.4,30.5H111.6z"/>
		<path d="M148.9,77.3c9.1-1.4,18.9-2.3,26.5-2.3c18.9,0,32.7,1.6,32.7,23.6c0,7.2-2.9,13.2-7.9,17.6c7.6,4.1,11.9,10.1,11.9,16.7
			c0,21.6-14.7,25.3-33,25.3c-9.2,0-19.4-0.5-28.9-1.5c-0.8-0.2-1.4-0.9-1.4-1.6c0-12.8-0.3-26.5-0.3-40.1
			C148.6,101.4,148.9,90.9,148.9,77.3z M176.3,105.7c4.2,0,7.8-1.9,7.8-5.8c0-3.7-3.5-5.4-7-5.4c-0.6,0-1.4,0-1.7,0.1
			c-0.1,3.5-0.1,6.9-0.1,11.1H176.3z M175.7,136.8h2.2c5.1,0,7.1-2,7.1-5.5c0-3.2-2.5-5.4-6.1-5.4h-3.5
			C175.5,129.5,175.6,133.2,175.7,136.8z"/>
		<path d="M246.7,75c25.9,0,38,10.3,38,41.6c0,26.7-12.1,40.7-31.2,41.6c-25.8,0-37.8-10.2-37.8-41.6C215.7,90,227.5,76,246.7,75z
			 M250.4,134.6c3.7,0,6-1.8,6-18c0-16.1-2.7-17.9-6.4-17.9c-3.7,0-5.8,1.7-5.8,17.9C244.1,132.8,246.7,134.6,250.4,134.6z"/>
		<path d="M289.7,76c4.3-0.2,7.4-0.3,11.9-0.3c4.6,0,9.3,0.1,13.9,0.3c0.7,0,1.4,0.6,1.4,1.4c0.3,12.8,0.5,30.4,0.5,44
			c0,12.1,1.8,13.9,5.4,13.9c3.7,0,5.2-1.8,5.2-13.9c0-13.5,0.2-31.7,0.5-45.3c4.3-0.2,7.4-0.3,11.9-0.3c4.6,0,9.3,0.1,13.9,0.3
			c0.7,0,1.4,0.6,1.4,1.4c0.3,12.8,0.5,26.3,0.5,39.9c0,29.4-11.1,40.6-30.3,41.6c-24.5,0-36.8-7.4-36.8-41.6
			C289.2,103.7,289.4,89.5,289.7,76z"/>
		<path d="M359.4,76c4.3-0.2,26.9-0.3,31.4-0.3c4.6,0,23.4,0.1,28.1,0.3c0.8,0,1.3,0.6,1.4,1.4c0.1,3.8,0.1,7.7,0.1,11.6
			c0,3.3,0,6.7-0.1,10.2c-2.2,0.1-9.4,0.2-16.4,0.2c0.1,5.5,0.1,11.1,0.1,17.4c0,13.6-0.2,27.2-0.5,40.7c-4.3,0.2-7.4,0.3-11.9,0.3
			c-4.6,0-9.3-0.1-13.9-0.3c-0.7,0-1.4-0.6-1.4-1.4c-0.3-12.8-0.5-25.8-0.5-39.4c0-6.3,0-11.9,0.1-17.6c-6.2-0.1-12.6-0.3-15.1-0.4
			c-0.7,0-1.4-0.6-1.4-1.4c-0.1-3.9-0.1-7.5-0.1-11.1C359.3,82.9,359.3,79.6,359.4,76z"/>
		<path d="M467.2,76c4.3-0.2,6.7-0.3,11.2-0.3c4.6,0,7.7,0.1,11.8,0.3c0.7,0,1.2,0.7,1.5,1.4l17,34.8l17-34.8c0.4-0.6,1-1.3,1.7-1.3
			c2.5-0.2,5.8-0.3,9.5-0.3c4.6,0,8.8,0.1,12.6,0.3c0.8,0,1.4,0.6,1.4,1.4c0.3,12.8,0.5,25.8,0.5,39.4c0,13.6-0.2,27.2-0.5,40.7
			c-3.9,0.2-6,0.3-10.5,0.3c-3.3,0-8-0.1-12.6-0.3c-0.8,0-1.4-0.6-1.4-1.4c-0.3-12-0.8-24.3-0.8-37l-15.5,31.6l-1.5,0.3l-1.4-0.3
			l-14.8-30.1l0.5,36.9c-4.3,0.2-6.7,0.3-11.2,0.3c-3.3,0-8.6-0.1-13.3-0.3c-0.8,0-1.4-0.6-1.4-1.4c-0.3-12.8-0.5-25.8-0.5-39.4
			C466.7,103.1,466.9,89.5,467.2,76z"/>
		<path d="M561.8,76c4.3-0.2,23.6-0.3,28.2-0.3c4.6,0,19.1,0.1,23.7,0.3c0.8,0,1.3,0.6,1.4,1.4c0.1,4.1,0.1,7.9,0.1,11.7
			c0,3.2,0,6.5-0.1,10c-4.3,0.2-17.1,0.3-21.6,0.3c-1,0-2.9,0-5.2,0c0,2.3-0.1,4.7-0.1,7.1c5.4,0,12.8,0.1,16.2,0.3
			c0.7,0,1.3,0.6,1.4,1.4c0.1,3.7,0.1,6.9,0.1,10.2c0,2.9,0,5.8-0.1,9.1h-17.6c0,2.4,0,4.7,0.1,7.1h1.6c4.6,0,19.4,0.1,24,0.3
			c0.8,0,1.3,0.6,1.4,1.4c0.1,4.1,0.1,7.9,0.1,11.7c0,3.2,0,6.5-0.1,10c-4.3,0.2-18.8,0.3-23.3,0.3c-4.6,0-24.3-0.4-28.9-0.6
			c-0.8,0-1.4-0.6-1.4-1.4c-0.3-12.8-0.5-25.8-0.5-39.4C561.2,103.1,561.4,89.5,561.8,76z"/>
	</g>
</g>
</svg>
