<?xml version="1.0" encoding="utf-8"?>
<!-- Generator: Adobe Illustrator 20.1.0, SVG Export Plug-In . SVG Version: 6.00 Build 0)  -->
<svg version="1.1" id="Layer_1" xmlns="http://www.w3.org/2000/svg" xmlns:xlink="http://www.w3.org/1999/xlink" x="0px" y="0px"
	 viewBox="0 0 1080.7 220" style="enable-background:new 0 0 1080.7 220;" xml:space="preserve">
<style type="text/css">
	.st0{display:none;}
	.st1{display:inline;}
	.st2{fill:#FFFFFF;stroke:#000000;stroke-width:18;stroke-miterlimit:10;}
	.st3{opacity:0.83;fill:#FFFFFF;enable-background:new    ;}
	.st4{fill:none;stroke:#727373;stroke-width:3;stroke-miterlimit:10;}
	.st5{enable-background:new    ;}
</style>
<g id="Layer_1_1_" class="st0">
	<g class="st1">
		<polyline class="st2" points="367.1,176.6 468.8,-8.5 661.4,69.8 567.3,277.8 367.1,181.3 		"/>
		<polygon class="st2" points="345.3,362.6 345.3,130.9 554.8,130.9 576.1,107.9 692.2,107.9 692.2,362.6 		"/>
	</g>
</g>
<g id="Layer_3">
	<path class="st3" d="M1068.7,202.3H19.4c-6.6,0-12-5.4-12-12V29.7c0-6.6,5.4-12,12-12h1049.3c6.6,0,12,5.4,12,12v160.6
		C1080.7,196.9,1075.3,202.3,1068.7,202.3z"/>
</g>
<g id="Layer_2">
	<g>
		<line class="st4" x1="1033.7" y1="177.3" x2="1033.7" y2="41.3"/>
		<line class="st4" x1="1027.7" y1="159.9" x2="1039.8" y2="159.9"/>
		<path class="st4" d="M1027.4,182.7c0,0,6.4-0.3,6.4-6.1"/>
		<path class="st4" d="M1040.1,182.7c0,0-6.4-0.3-6.4-6.1"/>
		<path class="st4" d="M1040.1,35.4c0,0-6.4,0.3-6.4,6.1"/>
		<path class="st4" d="M1027.4,35.4c0,0,6.4,0.3,6.4,6.1"/>
	</g>
	<g class="st5">
		<path d="M58.5,76c4.3-0.2,23.6-0.3,28.2-0.3c4.6,0,17.2,0.1,21.8,0.3c0.8,0,1.3,0.6,1.4,1.4c0.1,4.1,0.1,7.9,0.1,11.7
			c0,3.2,0,6.5-0.1,10c-4.3,0.2-15.2,0.3-19.7,0.3c-0.9,0-2.6,0-4.6,0c0,3.8-0.1,7.6-0.1,11.7c5.3,0.1,11.9,0.2,15.2,0.3
			c0.7,0,1.3,0.6,1.4,1.4c0.1,4.1,0.1,7.9,0.1,11.7c0,3.2,0,6.5-0.1,10c-3.7,0.2-11.5,0.3-16.5,0.3c0.1,7.6,0.2,15.2,0.2,22.8
			c-4.3,0.2-7.4,0.3-11.9,0.3c-4.6,0-9.3-0.1-13.9-0.3c-0.8,0-1.4-0.6-1.4-1.4c-0.3-12.8-0.5-25.8-0.5-39.4
			C58,103.1,58.2,89.5,58.5,76z"/>
		<path d="M115.6,76c4.3-0.2,23.6-0.3,28.2-0.3c4.6,0,19.1,0.1,23.7,0.3c0.7,0,1.3,0.6,1.4,1.4c0.1,4.1,0.1,7.9,0.1,11.7
			c0,3.2,0,6.5-0.1,10c-4.3,0.2-17.1,0.3-21.6,0.3c-1,0-2.9,0-5.2,0c0,2.3-0.1,4.7-0.1,7.1c5.4,0,12.8,0.1,16.2,0.3
			c0.8,0,1.3,0.6,1.4,1.4c0.1,3.7,0.1,6.9,0.1,10.2c0,2.9,0,5.8-0.1,9.1H142c0,2.4,0,4.7,0.1,7.1h1.6c4.6,0,19.4,0.1,24,0.3
			c0.7,0,1.3,0.6,1.4,1.4c0.1,4.1,0.1,7.9,0.1,11.7c0,3.2,0,6.5-0.1,10c-4.3,0.2-18.8,0.3-23.3,0.3c-4.6,0-24.3-0.4-28.9-0.6
			c-0.7,0-1.4-0.6-1.4-1.4c-0.3-12.8-0.5-25.8-0.5-39.4C115,103.1,115.2,89.5,115.6,76z"/>
		<path d="M172.4,152.1c4-24.8,9.8-51.1,14.9-76.1c6.1-0.3,12.3-0.3,18.7-0.3c6.6,0,12.9,0.1,19.4,0.3c0.8,0,1.5,0.6,1.6,1.4
			c5.1,26,11.5,53.8,15.5,80.1c-4.3,0.2-7.3,0.3-11.8,0.3c-4.6,0-8.7,0-13.3-0.3c-0.7,0-1.4-0.6-1.6-1.4c-0.9-4.5-1.7-9-2.5-13.6
			h-12.6c-0.7,5-1.6,10-2.6,14.9c-4.3,0.2-6.7,0.3-11.2,0.3c-4.6,0-9.3-0.1-13.9-0.3c-0.7,0-1.1-0.5-1.1-1.1
			C171.8,156,172.2,153.4,172.4,152.1z M210.5,124.8c-1.4-10.1-2.8-20.4-4.2-30.5c-1.2,10.1-2.2,20.3-3.4,30.5H210.5z"/>
		<path d="M240.3,76c4.3-0.2,26.9-0.3,31.4-0.3c4.6,0,23.4,0.1,28.1,0.3c0.7,0,1.3,0.6,1.4,1.4c0.1,3.8,0.1,7.7,0.1,11.6
			c0,3.3,0,6.7-0.1,10.2c-2.2,0.1-9.4,0.2-16.4,0.2c0.1,5.5,0.1,11.1,0.1,17.4c0,13.6-0.2,27.2-0.5,40.7c-4.3,0.2-7.4,0.3-11.9,0.3
			c-4.6,0-9.3-0.1-13.9-0.3c-0.7,0-1.4-0.6-1.4-1.4c-0.3-12.8-0.5-25.8-0.5-39.4c0-6.3,0-11.9,0.1-17.6c-6.2-0.1-12.6-0.3-15.1-0.4
			c-0.7,0-1.4-0.6-1.4-1.4c-0.1-3.9-0.1-7.5-0.1-11.1C240.1,82.9,240.2,79.6,240.3,76z"/>
		<path d="M304.8,76c4.3-0.2,7.4-0.3,11.9-0.3c4.6,0,9.3,0.1,13.9,0.3c0.7,0,1.4,0.6,1.4,1.4c0.3,12.8,0.5,30.4,0.5,44
			c0,12.1,1.8,13.9,5.4,13.9c3.7,0,5.2-1.8,5.2-13.9c0-13.5,0.2-31.7,0.5-45.3c4.3-0.2,7.4-0.3,11.9-0.3c4.6,0,9.3,0.1,13.9,0.3
			c0.7,0,1.4,0.6,1.4,1.4c0.3,12.8,0.5,26.3,0.5,39.9c0,29.4-11.1,40.6-30.3,41.6c-24.5,0-36.8-7.4-36.8-41.6
			C304.2,103.7,304.4,89.5,304.8,76z"/>
		<path d="M379,77.3c9.1-1.4,20.2-2.3,27.8-2.3c20.2,0,34.1,1.6,34.1,23.6c0,10-5.5,17.6-14.4,21.8c3.1,1.1,5.7,3.4,7.5,6.5
			c5.3,10.5,8.4,20.3,10.8,30.6c-4.6,0.5-9.4,0.8-14.2,0.8c-3.6,0-7.3-0.1-10.9-0.4c-0.8,0-1.8-0.5-2.1-1.4
			c-3.8-11.6-7.5-23.2-10.3-32.5c-0.6,0-1.2,0-1.8,0c0.2,11.1,0.6,22.8,0.6,33.4c-4,0.2-7.9,0.2-11.9,0.2c-4.6,0-9.3-0.1-13.9-0.2
			c-0.8,0-1.4-0.6-1.4-1.4c0-12.8-0.3-27.6-0.3-41.1C378.8,101.4,379,90.9,379,77.3z M407.8,107.3c4.3,0,7.2-2.4,7.2-5.9
			c0-4.2-1.4-6.5-6.2-6.5c-1.1,0-2.2,0.1-3.2,0.1c0,4-0.1,7.9-0.1,12.3H407.8z"/>
		<path d="M450.5,76c4.3-0.2,23.6-0.3,28.2-0.3c4.6,0,19.1,0.1,23.7,0.3c0.8,0,1.3,0.6,1.4,1.4c0.1,4.1,0.1,7.9,0.1,11.7
			c0,3.2,0,6.5-0.1,10c-4.3,0.2-17.1,0.3-21.6,0.3c-1,0-2.9,0-5.2,0c0,2.3-0.1,4.7-0.1,7.1c5.4,0,12.8,0.1,16.2,0.3
			c0.7,0,1.3,0.6,1.4,1.4c0.1,3.7,0.1,6.9,0.1,10.2c0,2.9,0,5.8-0.1,9.1h-17.6c0,2.4,0,4.7,0.1,7.1h1.6c4.6,0,19.4,0.1,24,0.3
			c0.8,0,1.3,0.6,1.4,1.4c0.1,4.1,0.1,7.9,0.1,11.7c0,3.2,0,6.5-0.1,10c-4.3,0.2-18.8,0.3-23.3,0.3c-4.6,0-24.3-0.4-28.9-0.6
			c-0.8,0-1.4-0.6-1.4-1.4c-0.3-12.8-0.5-25.8-0.5-39.4C449.9,103.1,450.1,89.5,450.5,76z"/>
		<path d="M512.1,77.3c9.1-1.4,18.9-2.3,26.5-2.3c23,0,37.3,9.7,37.3,41.6c0,34-14.3,41.1-37.1,41.1c-7.5,0-16-0.8-25.4-1.6
			c-0.8,0-1.4-0.6-1.4-1.4c0-12.8-0.3-24.4-0.3-38C511.9,103.1,512.1,90.9,512.1,77.3z M539,134.6h2.3c3.7,0,6.3-1.8,6.3-18
			c0-16.1-2.6-17.9-6.3-17.9H539c-0.1,5.6-0.3,11.4-0.3,18C538.7,123.3,538.9,129,539,134.6z"/>
		<path d="M630.7,75.7c4.6,0,8.7,0,13.3,0.3c0.7,0,1.5,0.6,1.6,1.4c2.2,11.3,3.8,22.7,5.3,34.2c2.5-10.2,5.9-23.3,8.6-31.3l6.4-0.3
			l6.2,0.3c2.8,7.9,6.1,20.7,8.6,30.8c1.5-11.7,3.1-23.3,5-35c4.3-0.2,7.7-0.3,10.8-0.3c4.6,0,9.8,0.1,14.4,0.3
			c0.7,0,1.1,0.5,1.1,1.2c0,0.5-0.4,2.9-0.6,4.3c-3.6,24.8-9,51.1-15.4,76c-4.3,0.2-15.5,0.4-19.9,0.4c-3.1-10.9-7.2-21.7-10.3-33
			c-3.2,11.2-7.6,22-10.8,33c-4.6,0-14.4-0.2-19.1-0.4c-0.7,0-1.4-0.6-1.6-1.4c-6.6-26-12.4-53.8-16-80.1
			C622.6,75.8,626.1,75.7,630.7,75.7z"/>
		<path d="M743.3,75c25.9,0,38,10.3,38,41.6c0,26.7-12.1,40.7-31.2,41.6c-25.8,0-37.8-10.2-37.8-41.6C712.3,90,724.1,76,743.3,75z
			 M746.9,134.6c3.7,0,6-1.8,6-18c0-16.1-2.7-17.9-6.4-17.9c-3.7,0-5.8,1.7-5.8,17.9C740.7,132.8,743.3,134.6,746.9,134.6z"/>
		<path d="M788.9,77.3c9.1-1.4,20.2-2.3,27.8-2.3c20.2,0,34.1,1.6,34.1,23.6c0,10-5.5,17.6-14.4,21.8c3.1,1.1,5.7,3.4,7.5,6.5
			c5.3,10.5,8.4,20.3,10.8,30.6c-4.6,0.5-9.4,0.8-14.2,0.8c-3.6,0-7.3-0.1-10.9-0.4c-0.8,0-1.8-0.5-2.1-1.4
			c-3.8-11.6-7.5-23.2-10.3-32.5c-0.6,0-1.2,0-1.8,0c0.2,11.1,0.6,22.8,0.6,33.4c-4,0.2-7.9,0.2-11.9,0.2c-4.6,0-9.3-0.1-13.9-0.2
			c-0.8,0-1.4-0.6-1.4-1.4c0-12.8-0.3-27.6-0.3-41.1C788.6,101.4,788.9,90.9,788.9,77.3z M817.7,107.3c4.3,0,7.2-2.4,7.2-5.9
			c0-4.2-1.4-6.5-6.2-6.5c-1.1,0-2.2,0.1-3.2,0.1c0,4-0.1,7.9-0.1,12.3H817.7z"/>
		<path d="M860.3,76c4.3-0.2,7.4-0.3,11.9-0.3c4.6,0,9.3,0.1,13.9,0.3c0.8,0,1.4,0.6,1.4,1.4c0,1.6,0,3.2,0,4.8
			c0,7.4-0.3,14.8-0.5,22.4c1,0,2,0,3,0c2.8-8.5,6.4-18.4,9.4-27.5c0.3-0.8,1.3-1.3,2.1-1.4c3.6-0.2,7.3-0.4,10.9-0.4
			c4.9,0,9,0.2,13.5,0.8c-2.4,10.3-6.1,21.7-11.5,32.2c-2.5,4.2-5.9,6.9-10.6,7.2v0.2c4.7,0.3,8.5,3,11,7.2
			c5.3,10.5,8.9,24.3,11.3,34.6c-4.6,0.5-9.4,0.8-14.2,0.8c-3.6,0-7.3-0.1-10.9-0.4c-0.8,0-1.8-0.5-2.1-1.4
			c-3.3-10-6.8-22.7-9.4-32.3l-2.6,0c0.2,9.1,0.7,18.3,0.7,27.4c0,1.9,0,3.9-0.1,5.8c-4.3,0.2-7.4,0.3-11.9,0.3
			c-4.6,0-9.3-0.1-13.9-0.3c-0.8,0-1.4-0.6-1.4-1.4c-0.3-12.8-0.5-25.8-0.5-39.4C859.8,103.1,860,89.5,860.3,76z"/>
		<path d="M933.9,132.1c9.5,3,17.9,4.7,24.1,4.7c5.1,0,7.2-2.7,7.2-4.8c0-2.7-3.9-3.8-9.1-5.3c-10.2-2.9-25.4-7.2-25.4-28.1
			c0-22,13.6-23.6,32.2-23.6c7.9,0,17.1,1.2,26.2,3l-3.1,22.6c-6.4-2.9-16-5.5-24.5-5.5c-4.1,0-6.8,1.3-6.8,3.8
			c0,2.4,4.2,3.6,9.8,5.3c11.2,3.4,28,8.4,28,27.3c0,21.6-14.9,26.7-33.3,26.7c-9.2,0-19.2-0.5-28.7-1.5L933.9,132.1z"/>
	</g>
</g>
</svg>
