<?xml version="1.0" encoding="utf-8"?>
<!-- Generator: Adobe Illustrator 20.1.0, SVG Export Plug-In . SVG Version: 6.00 Build 0)  -->
<svg version="1.1" xmlns="http://www.w3.org/2000/svg" xmlns:xlink="http://www.w3.org/1999/xlink" x="0px" y="0px"
	 viewBox="0 0 400 400" style="enable-background:new 0 0 400 400;" xml:space="preserve">
<style type="text/css">
	.st0{display:none;}
	.st1{display:inline;}
	.st2{fill:#FFFFFF;stroke:#000000;stroke-width:18;stroke-miterlimit:10;}
	.st3{stroke:#FFFFFF;stroke-width:4;stroke-miterlimit:10;}
</style>
<g id="Layer_1" class="st0">
	<g class="st1">
		<polyline class="st2" points="46.5,198.4 148.2,13.3 340.7,91.6 246.7,299.6 46.5,203.1 		"/>
		<polygon class="st2" points="24.7,384.4 24.7,152.7 234.1,152.7 255.5,129.7 371.5,129.7 371.5,384.4 		"/>
	</g>
</g>
<g id="Layer_2">
	<path class="st2" d="M370.3,379.5H27.7c-6.6,0-12-5.4-12-12v-331c0-6.6,5.4-12,12-12h342.6c6.6,0,12,5.4,12,12v331
		C382.3,374.1,376.9,379.5,370.3,379.5z"/>
	<polygon class="st3" points="105.3,301.4 105.3,105 316.8,203.2 	"/>
</g>
</svg>
