<?xml version="1.0" encoding="utf-8"?>
<!-- Generator: Adobe Illustrator 20.1.0, SVG Export Plug-In . SVG Version: 6.00 Build 0)  -->
<svg version="1.1" id="Layer_1" xmlns="http://www.w3.org/2000/svg" xmlns:xlink="http://www.w3.org/1999/xlink" x="0px" y="0px"
	 viewBox="0 0 400 400" style="enable-background:new 0 0 400 400;" xml:space="preserve">
<style type="text/css">
	.st0{display:none;}
	.st1{display:inline;}
	.st2{fill:#FFFFFF;stroke:#000000;stroke-width:18;stroke-miterlimit:10;}
</style>
<g id="Layer_1_1_" class="st0">
	<g class="st1">
		<polyline class="st2" points="46.5,198.4 148.2,13.3 340.7,91.6 246.7,299.6 46.5,203.1 		"/>
		<polygon class="st2" points="24.7,384.4 24.7,152.7 234.1,152.7 255.5,129.7 371.5,129.7 371.5,384.4 		"/>
	</g>
</g>
<g id="Layer_2">
	<path class="st2" d="M312.2,379.5H90.8c-4.3,0-7.8-3.5-7.8-7.8v-214c0-4.3,3.5-7.8,7.8-7.8h221.5c4.3,0,7.8,3.5,7.8,7.8v214
		C320,376,316.5,379.5,312.2,379.5z"/>
	<polygon class="st2" points="71.8,186.3 43,186.3 202.4,18 363,187.6 	"/>
	<rect x="161" y="264.8" width="78" height="114.8"/>
</g>
</svg>
