<svg xmlns="http://www.w3.org/2000/svg" viewBox="0 0 1422.11 456.78"><defs><style>.cls-1{fill:none;stroke:#121212;stroke-miterlimit:10;stroke-width:7px;}.cls-2{fill:#214196;}.cls-3{fill:#407ec1;}.cls-4{font-size:186.95px;fill:#231f20;letter-spacing:-0.03em;}.cls-4,.cls-6{font-family:AvenirNextCondensed-Medium, Avenir Next Condensed;}.cls-5{letter-spacing:-0.03em;}.cls-6{font-size:107.45px;fill:#383938;letter-spacing:-0.05em;}</style></defs><title>Logo</title><g id="Layer_1" data-name="Layer 1"><line class="cls-1" x1="366.7" y1="436.85" x2="366.7" y2="21.49"/><line class="cls-1" x1="337.07" y1="383.8" x2="396.32" y2="383.8"/><path class="cls-1" d="M372.55,472.27s31.29-.78,31.29-18.77" transform="translate(-37.14 -18.99)"/><path class="cls-1" d="M435.12,472.27s-31.29-.78-31.29-18.77" transform="translate(-37.14 -18.99)"/><path class="cls-1" d="M435.12,22.49s-31.29.78-31.29,18.77" transform="translate(-37.14 -18.99)"/><path class="cls-1" d="M372.55,22.49s31.29.78,31.29,18.77" transform="translate(-37.14 -18.99)"/></g><g id="Layer_2" data-name="Layer 2"><path class="cls-2" d="M124.65,195.72h55v-105s-15-64-71-61-71.51,45-71.51,59v129s4,57,71.25,58c0,0,16.25-4,15.25,18v105s4.49,11-15.25,16c0,0-17.75,1-17.75-13v-105H37.14v110s5,56,71.25,58c0,0,68.25,5,71.25-59v-124s0-62-54-65h-23s-12,0-12-19v-109s19-27,34,0Z" transform="translate(-37.14 -18.99)"/><path class="cls-3" d="M204.65,464.72V30.6h96s35-1,35,44.77V240.9s3,30.19-15,43.72c0,0,17.38,5.21,15.19,46.85V464.72H285.65V354.37s4-30.19-29-21.86V464.72Zm65.69-205.09c14.69,0,14.31-18.74,14.31-18.74V102.43c-2-23.94-29-17.7-29-17.7v174.9Z" transform="translate(-37.14 -18.99)"/><text class="cls-4" transform="translate(465.35 236.1)">Simón <tspan class="cls-5" x="443.61" y="0">R</tspan><tspan x="529.6" y="0">amí</tspan><tspan class="cls-5" x="772.25" y="0">r</tspan><tspan x="819.55" y="0">ez</tspan></text><text class="cls-6" transform="translate(465.35 343.17)">Multimedia Designer</text></g></svg>