<?xml version="1.0" encoding="utf-8"?>
<!-- Generator: Adobe Illustrator 20.1.0, SVG Export Plug-In . SVG Version: 6.00 Build 0)  -->
<svg version="1.1" xmlns="http://www.w3.org/2000/svg" xmlns:xlink="http://www.w3.org/1999/xlink" x="0px" y="0px"
	 viewBox="0 0 1920 1080" style="enable-background:new 0 0 1920 1080;" xml:space="preserve">
<style type="text/css">
	.st0{fill:#7E9B64;}
	.st1{fill:#263519;}
	.st2{fill:#2F3F1B;}
	.st3{fill:#263018;}
	.st4{fill:#169B48;}
	.st5{fill:#FFFFFF;}
	.st6{fill:#81C341;}
</style>
<g id="Layer_1">
</g>
<g id="Layer_2">
	<rect x="-29.6" y="-14" class="st0" width="1969.9" height="1134.9"/>
	<g>
		<polygon class="st1" points="569.8,455.8 1022.8,269.8 1529.9,479.8 938.8,677.8 		"/>
		<polygon class="st2" points="332.9,308.8 990,116.8 990,335.8 332.9,608.6 		"/>
		<polygon class="st3" points="990,116.8 1647.1,305.8 1647.1,608.6 990,335.8 		"/>
		<g>
			<g>
				<polygon class="st4" points="990,887.7 332.9,608.6 332.9,317.3 990,608.6 				"/>
				<g>
					<path class="st5" d="M548.7,590.5c0,5.1-1,10.1-3.1,15.1c-2,5-5.3,9.4-9.7,13.2c-4.4,3.8-10,6-16.8,6.6
						c-6.8,0.6-14.8-1-23.9-4.9c-6.9-2.9-13.1-6.4-18.8-10.4c-5.6-4-10.8-8.7-15.4-14c-4.6-5.4-8.8-11.6-12.7-18.8
						c-3.4-6.5-6.4-13.4-8.8-20.7c-2.4-7.3-4.3-14.7-5.5-22.3c-1.2-7.6-1.8-15.3-1.8-23.3c0-12.9,1.5-23.8,4.6-32.6
						c3.1-8.9,7.4-15.7,13.1-20.4c5.7-4.7,12.4-7.3,20-7.7c7.7-0.4,15.8,1.3,24.5,5.1c10.6,4.6,20,11.3,28.2,20.1
						c8.2,8.8,14.6,17.9,19,27.3c4.4,9.5,6.6,17.6,6.6,24.3c0,3.7-1.1,6.5-3.2,8.4c-2.1,1.9-4.7,2.2-7.7,0.9
						c-3.4-1.5-5.9-3.6-7.6-6.2c-1.7-2.7-3.6-6.9-5.7-12.6c-3.4-9.4-7.5-17.1-12.1-23c-4.7-5.9-10.4-10.4-17.2-13.4
						c-10.9-4.7-19.5-3.5-25.9,3.8c-6.4,7.3-9.7,20.2-9.7,38.8c0,12.4,1.4,23.4,4.3,32.9c2.8,9.5,6.9,17.4,12.1,23.7
						c5.2,6.3,11.3,11,18.3,14c7.6,3.3,14,3.7,19.3,1.4c5.3-2.3,9.2-7.4,11.9-15.1c1.1-3.7,2.5-6.5,4.2-8.4c1.7-1.9,4.3-2.1,8-0.5
						c3.1,1.4,5.8,3.9,8.1,7.5C547.6,582.7,548.7,586.5,548.7,590.5z"/>
					<path class="st5" d="M661.8,632.1c0,8.8-1.1,16.3-3.4,22.7c-2.3,6.4-5.5,11.4-9.8,14.8c-4.3,3.5-9.4,5.4-15.3,5.7
						c-5.9,0.3-12.6-1.1-20-4.3c-7.4-3.2-14-7.4-19.8-12.8c-5.9-5.4-11-11.7-15.3-18.9c-4.3-7.2-7.6-15-9.8-23.3
						c-2.2-8.3-3.3-16.9-3.3-25.7c0-8.9,1.1-16.7,3.4-23.1c2.3-6.5,5.5-11.4,9.7-14.8c4.2-3.4,9.3-5.3,15.3-5.5
						c6-0.2,12.6,1.2,19.8,4.4c7.4,3.2,14,7.6,20,13c6,5.5,11.1,11.8,15.4,19c4.3,7.2,7.5,14.9,9.7,23.2
						C660.7,614.7,661.8,623.3,661.8,632.1z M637.4,621.6c0-12-2.2-22.3-6.5-30.9c-4.4-8.6-10.2-14.5-17.6-17.7
						c-4.7-2.1-8.9-2.4-12.5-1c-3.6,1.4-6.4,4.6-8.4,9.6c-2,5-2.9,11.4-2.9,19.2c0,7.7,1,14.9,2.9,21.5c1.9,6.6,4.7,12.2,8.3,16.8
						c3.6,4.6,7.8,8,12.7,10c7.4,3.2,13.2,2.3,17.6-2.5C635.2,641.8,637.4,633.4,637.4,621.6z"/>
					<path class="st5" d="M747.5,711.8V709c-3.3,3.1-6.5,5.4-9.7,6.8c-3.2,1.5-6.6,2.1-10.3,2c-3.7-0.1-7.8-1.1-12.1-3
						c-5.8-2.5-11.2-6.3-16.2-11.4c-5-5.1-9.2-11.2-12.9-18.2c-3.6-7.1-6.4-14.7-8.2-23c-1.9-8.3-2.8-16.7-2.8-25.4
						c0-18.3,3.7-31,11.1-38c7.4-7,17.2-7.9,29.3-2.6c7,3.1,12.9,7.1,17.7,12.1c4.8,5,9.5,11.5,14.1,19.4v-43.1c0-6,1-10.1,3-12.3
						c2-2.2,4.8-2.5,8.5-0.9c3.7,1.6,6.5,4.3,8.5,8c2,3.7,3,8.3,3,13.8v128.6c0,5.6-1.1,9.3-3.2,11.1c-2.1,1.9-4.9,2.1-8.3,0.6
						c-3.3-1.4-6.1-4-8.2-7.9C748.6,721.8,747.5,717.2,747.5,711.8z M699.7,648.3c0,7.9,1,15.1,3.1,21.6c2,6.5,4.9,11.9,8.4,16.2
						c3.6,4.4,7.4,7.4,11.7,9.2c4.3,1.8,8.2,2.2,11.7,1c3.5-1.2,6.3-4,8.5-8.7c2.1-4.6,3.2-11.1,3.2-19.3c0-7.8-1.1-14.9-3.2-21.4
						c-2.1-6.5-5-12-8.5-16.6c-3.6-4.5-7.5-7.7-11.8-9.6c-4.5-1.9-8.4-2.1-11.9-0.6c-3.5,1.5-6.2,4.7-8.1,9.6
						C700.6,634.6,699.7,640.8,699.7,648.3z"/>
					<path class="st5" d="M862.6,726.1l-47.5-20.5c0.1,6.6,1.2,12.9,3.3,18.9c2.2,6,5,11,8.6,15.1c3.6,4.1,7.6,7.1,11.9,8.9
						c2.9,1.2,5.6,2,8,2.2c2.4,0.2,4.7-0.1,7-0.8c2.3-0.8,4.3-1.7,6.2-2.9c1.9-1.2,4.4-2.8,7.4-4.9c1.2-0.7,3-0.6,5.3,0.4
						c2.5,1.1,4.5,2.8,6.1,5c1.5,2.3,2.3,4.9,2.3,7.9c0,2.6-0.9,5.3-2.6,8.1c-1.7,2.8-4.3,5-7.8,6.7c-3.5,1.7-7.8,2.5-13.1,2.4
						c-5.3-0.1-11.3-1.6-18.1-4.6c-15.6-6.7-27.7-17.2-36.4-31.6c-8.7-14.4-13-30.7-13-49c0-8.6,1.1-16.1,3.2-22.6
						c2.1-6.4,5.3-11.4,9.3-14.9c4.1-3.5,9.1-5.3,15.1-5.5c6-0.2,12.6,1.3,19.9,4.5c9.5,4.1,17.6,10.1,24.4,17.8
						c6.8,7.7,11.9,16.1,15.3,25.2c3.4,9,5.1,17.5,5.1,25.3c0,7.3-1.8,11.2-5.3,11.9C873.9,729.9,869,728.8,862.6,726.1z M815.1,689
						l44.1,19.1c-0.6-10.2-2.8-18.6-6.7-25.2c-3.9-6.6-9-11.3-15.4-14.1c-6.1-2.6-11-2.3-14.9,1C818.3,673.2,815.9,679.6,815.1,689z
						"/>
				</g>
			</g>
		</g>
		<g>
			<g>
				<polygon class="st6" points="1647.1,608.6 990,887.7 990,608.6 1647.1,312.5 				"/>
				<g>
					<path d="M1108.2,712.2l-9.3,4v50.1c0,6.6-1.2,12-3.6,16.1c-2.4,4.2-5.6,7.1-9.5,8.8c-4.2,1.8-7.5,1.6-9.8-0.7
						c-2.3-2.3-3.5-6.5-3.5-12.8V658.1c0-6.8,1.3-12.3,3.8-16.4c2.5-4.2,6.7-7.5,12.4-10.1l43-19.1c5.9-2.6,11-4.6,15.2-5.9
						c4.2-1.3,8-1.7,11.4-1.4c4.1,0.3,7.7,1.6,10.9,4.1c3.1,2.5,5.5,5.9,7.2,10.3c1.6,4.4,2.4,9.4,2.4,15.1
						c0,11.7-2.7,22.3-8.2,31.7c-5.5,9.4-13.8,18-25,25.8c4.7,0.9,9.2,3.4,13.4,7.4c4.3,4,8.1,8.6,11.4,13.7c3.4,5.1,6,10,7.8,14.5
						c1.9,4.5,2.8,7.8,2.8,9.8c0,2.1-0.5,4.4-1.6,6.9c-1.1,2.5-2.6,4.8-4.5,6.8c-1.9,2-4.1,3.5-6.6,4.6c-3,1.3-5.5,1.5-7.5,0.7
						c-2-0.8-3.8-2.2-5.2-4.1c-1.5-1.9-3.4-4.9-5.9-8.8l-10.6-16.6c-3.8-6.1-7.2-10.5-10.2-13.3c-3-2.7-6-4.2-9.1-4.3
						C1116.8,709.2,1112.9,710.2,1108.2,712.2z M1123.4,640l-24.4,10.8v42.8l23.7-10.4c6.3-2.8,11.7-5.8,16-9
						c4.3-3.2,7.6-6.9,9.9-11.1c2.3-4.2,3.4-9,3.4-14.6c0-4.3-0.9-7.8-2.8-10.3c-1.8-2.5-4.4-3.8-7.7-4
						C1138.5,634.1,1132.4,636,1123.4,640z"/>
					<path d="M1293.1,642.1c0,8.8-1.1,17.4-3.4,25.8c-2.3,8.4-5.5,16.2-9.8,23.4c-4.3,7.2-9.4,13.5-15.3,18.9
						c-5.9,5.4-12.6,9.7-20,12.9c-7.4,3.2-14,4.6-19.8,4.2c-5.9-0.3-11-2.2-15.3-5.7c-4.3-3.5-7.6-8.4-9.8-14.7
						c-2.2-6.3-3.3-13.8-3.3-22.6c0-8.9,1.1-17.5,3.4-25.8c2.3-8.4,5.5-16.1,9.7-23.1c4.2-7.1,9.3-13.4,15.3-18.8
						c6-5.5,12.6-9.8,19.8-13c7.4-3.2,14-4.7,20-4.5c6,0.2,11.1,2.1,15.4,5.5c4.3,3.5,7.5,8.4,9.7,14.8
						C1292,625.6,1293.1,633.2,1293.1,642.1z M1268.7,652.7c0-12-2.2-20.4-6.5-25.2c-4.4-4.8-10.2-5.6-17.6-2.3
						c-4.7,2.1-8.9,5.4-12.5,10c-3.6,4.6-6.4,10.2-8.4,16.8c-2,6.7-2.9,13.9-2.9,21.6c0,7.7,1,14,2.9,18.9c1.9,4.9,4.7,8.1,8.3,9.6
						c3.6,1.5,7.8,1.2,12.7-0.9c7.4-3.2,13.2-9.1,17.6-17.7C1266.5,674.8,1268.7,664.6,1268.7,652.7z"/>
					<path d="M1403.2,594.2c0,8.9-1.1,17.6-3.4,26.1c-2.3,8.5-5.5,16.3-9.8,23.6c-4.3,7.2-9.4,13.6-15.3,19
						c-5.9,5.4-12.6,9.7-20,12.9c-7.4,3.2-14,4.6-19.8,4.2c-5.9-0.4-11-2.3-15.3-5.9c-4.3-3.5-7.6-8.5-9.8-14.9
						c-2.2-6.4-3.3-14-3.3-22.9c0-9,1.1-17.6,3.4-26.1c2.3-8.4,5.5-16.2,9.7-23.3c4.2-7.1,9.3-13.4,15.3-18.9
						c6-5.5,12.6-9.8,19.8-13c7.4-3.2,14-4.7,20-4.5c6,0.3,11.1,2.2,15.4,5.7c4.3,3.5,7.5,8.5,9.7,15
						C1402.1,577.5,1403.2,585.2,1403.2,594.2z M1378.8,604.8c0-12.1-2.2-20.6-6.5-25.5c-4.4-4.8-10.2-5.7-17.6-2.4
						c-4.7,2.1-8.9,5.4-12.5,10c-3.6,4.6-6.4,10.3-8.4,17c-2,6.7-2.9,14-2.9,21.8c0,7.7,1,14.1,2.9,19.1c1.9,5,4.7,8.2,8.3,9.7
						c3.6,1.5,7.8,1.2,12.7-0.9c7.4-3.2,13.2-9.1,17.6-17.8C1376.6,627.1,1378.8,616.8,1378.8,604.8z"/>
					<path d="M1503.1,552.9v40c0,6.3-1.2,11.6-3.5,15.7c-2.3,4.2-5.4,7.1-9.2,8.7c-3.7,1.6-6.7,1.3-8.9-0.9
						c-2.3-2.2-3.4-6.4-3.4-12.7v-47.9c0-7.6-0.2-13.3-0.6-17.3c-0.4-4-1.5-6.9-3.4-8.8c-1.8-1.9-4.7-1.9-8.7-0.2
						c-8,3.5-13.2,9.2-15.7,17c-2.5,7.8-3.8,18-3.8,30.6v40.5c0,6.2-1.1,11.4-3.4,15.6c-2.3,4.2-5.3,7-9,8.7c-3.7,1.6-6.7,1.3-9-0.9
						c-2.3-2.2-3.5-6.4-3.5-12.6v-85.5c0-5.6,1.1-10.4,3.2-14.2c2.1-3.8,4.9-6.5,8.3-8c3.3-1.5,6.1-1.3,8.3,0.4
						c2.2,1.8,3.3,5.1,3.3,9.9v2.9c4.2-8.1,8.7-14.6,13.5-19.7c4.8-5,10.1-8.9,16-11.5c6.1-2.7,11.4-3.5,15.8-2.4
						c4.4,1.1,8,4,10.9,8.9c4.1-8,8.5-14.5,13.2-19.5c4.7-5,9.9-8.8,15.6-11.3c6.6-2.9,12.4-3.8,17.2-2.7c4.8,1.1,8.4,4.2,10.8,9.2
						c2.1,4.6,3.1,12.7,3.1,24.5v59.1c0,6.4-1.2,11.6-3.5,15.8c-2.3,4.2-5.4,7.1-9.2,8.7c-3.7,1.6-6.7,1.3-9-0.9
						c-2.3-2.2-3.5-6.4-3.5-12.7v-50.8c0-6.5-0.2-11.6-0.7-15.3c-0.4-3.7-1.6-6.5-3.6-8.3c-2-1.8-4.9-1.8-8.9-0.1
						c-3.2,1.4-6.2,3.9-9.1,7.5c-2.9,3.6-5.1,7.8-6.7,12.4C1504,530.6,1503.1,540,1503.1,552.9z"/>
				</g>
			</g>
		</g>
	</g>
</g>
</svg>
