<svg id="svg" version="1.1" width="400" height="315.2" viewBox="0 0 400 315.2" xmlns="http://www.w3.org/2000/svg" xmlns:xlink="http://www.w3.org/1999/xlink" ><g id="svgg"><path id="path0" d="M153.641 67.501 C 146.295 82.088,140.972 106.405,140.368 128.132 C 140.040 139.909,141.796 162.726,143.132 164.062 C 143.340 164.270,151.798 164.421,167.416 164.494 L 191.380 164.606 191.277 163.706 C 191.178 162.840,191.117 162.809,189.698 162.911 C 180.610 163.560,174.753 155.253,180.423 149.757 L 181.499 148.715 180.505 147.799 C 179.959 147.295,179.744 146.964,180.027 147.063 C 180.499 147.227,180.496 147.098,179.993 145.568 C 179.691 144.647,179.344 143.184,179.222 142.317 C 179.014 140.842,177.260 137.408,176.324 136.643 C 176.035 136.407,176.005 135.626,176.204 133.530 C 176.646 128.889,178.505 127.276,183.641 127.081 L 186.510 126.971 185.776 125.188 C 182.461 117.127,195.662 112.143,202.957 118.702 C 205.343 120.848,205.982 123.178,205.036 126.283 C 204.848 126.901,205.003 126.985,206.986 127.330 C 214.688 128.671,218.985 135.975,214.796 140.604 C 214.427 141.012,214.400 141.433,214.655 142.781 C 216.603 153.052,209.314 162.782,203.294 157.945 C 201.744 156.699,201.857 156.610,201.630 159.259 C 201.522 160.516,201.337 162.241,201.219 163.091 L 201.004 164.638 217.681 164.388 C 226.853 164.251,237.823 164.051,242.058 163.945 L 249.759 163.751 249.978 162.929 C 250.099 162.477,250.430 160.208,250.715 157.886 C 254.265 128.924,251.058 98.778,241.872 74.771 C 238.683 66.437,238.912 66.670,234.673 67.460 C 227.612 68.775,206.799 70.075,197.636 69.772 C 181.976 69.255,171.866 68.257,159.811 66.036 C 158.511 65.796,156.851 65.510,156.124 65.399 L 154.801 65.198 153.641 67.501 M184.241 71.732 C 190.145 75.738,192.494 92.011,188.903 104.019 C 184.055 120.232,173.651 111.725,173.686 91.576 C 173.710 78.056,178.975 68.158,184.241 71.732 M211.789 71.379 C 213.929 72.485,215.626 75.304,217.230 80.418 L 218.256 83.688 218.262 91.411 C 218.277 109.810,210.850 119.104,204.918 108.108 C 197.934 95.163,203.213 66.944,211.789 71.379 M133.583 116.354 C 124.677 125.258,119.149 137.435,119.149 148.148 C 119.149 152.582,121.268 162.633,122.389 163.521 C 122.854 163.889,140.154 164.348,140.370 163.998 C 140.454 163.862,140.186 161.056,139.774 157.762 C 138.877 150.596,138.486 144.959,138.066 133.176 C 137.423 115.111,137.351 113.627,137.104 113.359 C 136.966 113.209,135.381 114.556,133.583 116.354 M255.198 120.489 C 255.089 123.306,254.858 130.079,254.684 135.540 C 254.326 146.814,253.899 153.690,253.247 158.688 C 253.000 160.584,252.797 162.477,252.797 162.895 L 252.797 163.654 261.072 163.428 C 270.484 163.171,269.902 163.359,270.571 160.353 C 273.974 145.051,269.402 129.473,258.040 117.652 C 255.232 114.731,255.428 114.535,255.198 120.489 M191.647 116.794 C 186.667 118.162,184.462 122.327,186.921 125.721 C 188.085 127.328,187.854 127.345,190.687 125.447 C 197.657 120.781,205.653 121.432,202.968 126.448 C 202.679 126.988,202.715 127.069,203.205 126.978 C 204.155 126.800,204.947 124.882,204.742 123.257 C 204.154 118.609,197.319 115.235,191.647 116.794 M197.163 123.229 C 194.771 123.819,189.441 126.661,189.441 127.346 C 189.441 128.316,191.357 128.640,192.316 127.833 C 193.568 126.780,194.649 126.818,196.885 127.994 L 198.719 128.959 199.990 128.265 C 204.611 125.742,202.467 121.921,197.163 123.229 M179.573 128.706 C 178.343 129.448,177.153 130.935,177.149 131.733 C 177.148 132.041,177.407 131.941,177.971 131.418 C 178.762 130.685,178.755 130.718,177.814 132.213 C 176.629 134.094,176.610 134.576,177.630 136.768 C 178.585 138.820,178.775 138.692,179.245 135.677 C 179.822 131.973,181.365 129.405,183.609 128.416 L 184.555 127.999 183.592 127.987 C 183.054 127.980,181.941 128.397,181.070 128.931 C 180.213 129.457,179.843 129.601,180.249 129.252 C 181.385 128.272,180.917 127.894,179.573 128.706 M193.717 128.671 C 193.131 129.507,193.333 129.750,194.842 130.027 C 196.311 130.297,196.680 129.758,195.723 128.739 C 194.833 127.792,194.344 127.775,193.717 128.671 M202.837 128.773 C 202.317 129.199,201.746 129.548,201.567 129.549 C 201.389 129.550,200.934 129.768,200.556 130.033 L 199.868 130.514 200.998 132.678 L 202.128 134.841 203.453 133.907 C 207.038 131.380,211.118 133.134,213.378 138.174 L 214.247 140.110 214.924 139.007 C 218.300 133.504,207.855 124.659,202.837 128.773 M182.715 129.882 C 180.284 131.794,178.681 138.964,180.318 140.602 C 182.359 142.642,184.652 143.488,185.797 142.622 C 186.134 142.367,187.020 142.159,187.767 142.159 L 189.125 142.159 189.120 139.086 C 189.115 135.512,189.060 135.386,187.392 135.125 C 185.670 134.857,184.924 133.902,185.140 132.241 C 185.536 129.192,185.578 129.401,184.538 129.299 C 183.919 129.239,183.269 129.446,182.715 129.882 M187.287 129.472 C 187.344 129.602,187.874 130.695,188.463 131.902 L 189.535 134.095 189.947 132.532 C 190.357 130.981,190.353 130.963,189.422 130.102 C 188.587 129.330,187.017 128.867,187.287 129.472 M185.965 131.305 C 185.347 132.930,185.643 133.734,187.055 134.271 C 188.290 134.740,188.677 134.308,188.213 132.977 C 187.380 130.589,186.489 129.927,185.965 131.305 M192.908 131.793 C 192.908 132.892,193.625 133.516,194.154 132.878 C 194.365 132.624,194.444 132.232,194.330 132.008 C 194.216 131.783,194.319 131.839,194.559 132.131 C 195.094 132.780,196.458 132.257,196.636 131.335 C 196.732 130.834,196.528 130.781,194.826 130.865 C 192.987 130.956,192.908 130.994,192.908 131.793 M198.648 131.340 C 198.067 131.573,198.483 135.248,199.150 135.776 C 200.194 136.603,201.519 136.281,201.313 135.251 C 201.166 134.512,199.305 131.056,199.106 131.152 C 199.078 131.165,198.872 131.250,198.648 131.340 M190.924 131.978 C 190.559 132.597,190.359 134.279,190.651 134.279 C 191.435 134.279,191.962 133.838,191.962 133.181 C 191.962 132.438,191.185 131.537,190.924 131.978 M195.541 133.382 C 195.393 133.615,195.059 133.806,194.799 133.806 C 194.274 133.806,194.256 134.438,194.709 136.958 L 194.991 138.534 195.632 137.511 C 195.984 136.948,196.376 136.591,196.502 136.717 C 196.809 137.024,196.365 133.565,196.053 133.224 C 195.920 133.077,195.689 133.148,195.541 133.382 M197.205 133.265 C 196.917 133.731,197.237 135.451,197.660 135.712 C 197.991 135.917,197.996 134.823,197.670 133.652 C 197.518 133.106,197.376 132.988,197.205 133.265 M205.391 133.661 C 202.320 134.580,201.871 136.831,204.807 136.587 C 207.695 136.348,208.195 136.862,208.195 140.064 L 208.195 142.314 209.402 142.210 C 212.898 141.910,213.733 140.861,212.527 138.283 C 210.773 134.535,208.150 132.835,205.391 133.661 M190.365 135.580 C 190.133 136.012,190.080 136.992,190.213 138.338 C 190.661 142.846,191.028 143.481,192.426 142.168 C 193.776 140.899,193.946 140.006,193.231 137.927 C 192.880 136.907,192.593 135.810,192.593 135.490 C 192.593 134.623,190.839 134.693,190.365 135.580 M198.897 137.577 C 198.897 138.506,199.757 139.016,200.189 138.344 C 200.638 137.646,200.370 136.967,199.603 136.858 C 199.027 136.775,198.897 136.908,198.897 137.577 M203.861 137.456 C 203.137 137.878,203.165 138.368,204.019 140.181 C 205.553 143.437,207.515 142.937,207.542 139.283 C 207.557 137.346,205.664 136.406,203.861 137.456 M196.769 137.657 C 196.552 137.735,196.375 138.004,196.375 138.255 C 196.375 138.506,196.173 138.789,195.927 138.884 C 195.150 139.182,195.108 139.921,195.791 141.232 C 196.560 142.706,197.015 142.695,197.539 141.190 C 198.277 139.072,197.882 137.258,196.769 137.657 M200.984 139.279 C 200.481 139.835,200.495 139.895,201.240 140.383 C 202.272 141.059,202.679 141.034,202.679 140.294 C 202.679 138.707,201.916 138.250,200.984 139.279 M199.980 141.246 C 199.350 142.265,199.442 145.557,200.105 145.767 C 202.394 146.494,203.748 142.470,201.565 141.430 C 200.246 140.801,200.255 140.802,199.980 141.246 M194.377 141.446 C 194.275 141.611,194.097 142.336,193.982 143.056 C 193.760 144.445,194.170 144.830,194.788 143.814 C 195.056 143.372,195.086 143.450,194.939 144.208 L 194.755 145.154 195.432 144.379 C 196.038 143.686,196.056 143.567,195.612 143.241 C 195.338 143.041,195.112 142.681,195.109 142.440 C 195.102 141.789,194.593 141.098,194.377 141.446 M179.984 142.425 C 179.984 143.628,181.138 146.654,181.915 147.487 C 182.522 148.139,183.571 148.019,184.579 147.182 C 185.404 146.497,184.400 144.064,182.999 143.355 C 182.294 142.999,181.328 142.432,180.851 142.097 L 179.984 141.486 179.984 142.425 M198.328 142.317 C 197.666 143.899,197.658 143.991,198.135 144.388 C 198.802 144.941,198.948 144.629,198.829 142.902 L 198.724 141.371 198.328 142.317 M211.978 142.324 C 211.458 142.561,210.238 142.849,209.267 142.965 L 207.501 143.176 206.351 145.175 C 205.521 146.619,205.200 147.551,205.197 148.528 C 205.192 150.389,204.502 152.818,203.442 154.703 C 202.413 156.533,202.548 156.888,204.684 157.977 C 207.822 159.578,211.286 157.401,212.980 152.761 C 213.585 151.105,214.358 146.158,214.185 145.051 C 214.112 144.587,213.970 143.676,213.868 143.026 C 213.669 141.752,213.433 141.664,211.978 142.324 M186.499 143.000 C 186.027 143.471,186.349 143.735,187.392 143.735 C 188.162 143.735,188.495 143.593,188.495 143.262 C 188.495 142.780,186.925 142.574,186.499 143.000 M203.660 143.519 C 203.467 144.007,203.310 144.519,203.310 144.655 C 203.310 145.409,201.693 146.572,200.645 146.572 C 199.301 146.572,199.047 148.202,200.135 149.851 L 200.738 150.767 202.654 148.753 C 204.435 146.882,204.569 146.639,204.548 145.316 C 204.515 143.175,204.115 142.366,203.660 143.519 M205.118 143.026 C 205.052 143.156,205.084 143.688,205.189 144.208 L 205.379 145.154 205.947 144.301 C 206.260 143.832,206.425 143.300,206.313 143.119 C 206.078 142.739,205.295 142.678,205.118 143.026 M191.647 144.485 C 191.647 144.723,191.847 145.085,192.092 145.288 C 192.691 145.786,193.100 145.135,192.581 144.509 C 192.101 143.930,191.647 143.918,191.647 144.485 M185.343 145.096 C 185.343 146.182,185.709 146.341,186.874 145.759 C 187.997 145.199,188.425 144.681,187.765 144.681 C 187.516 144.681,186.870 144.592,186.328 144.484 C 185.429 144.304,185.343 144.358,185.343 145.096 M189.441 144.802 C 189.441 145.042,189.753 145.320,190.136 145.420 C 190.970 145.638,191.157 145.501,190.908 144.852 C 190.676 144.248,189.441 144.205,189.441 144.802 M196.964 145.519 C 196.617 145.937,196.667 146.106,197.287 146.608 C 198.251 147.388,198.582 147.358,198.582 146.490 C 198.582 145.493,197.517 144.853,196.964 145.519 M193.757 145.828 C 193.515 146.070,193.783 146.572,194.154 146.572 C 194.298 146.572,194.498 146.359,194.598 146.099 C 194.778 145.631,194.155 145.430,193.757 145.828 M188.689 146.198 C 188.457 146.573,189.201 146.887,190.317 146.887 C 190.830 146.887,191.029 146.776,190.843 146.594 C 190.369 146.130,188.898 145.860,188.689 146.198 M195.114 147.529 C 194.719 147.793,194.796 147.957,195.587 148.532 C 196.107 148.910,197.043 149.758,197.666 150.417 C 199.051 151.881,199.352 151.919,199.087 150.598 C 198.691 148.617,196.276 146.751,195.114 147.529 M187.612 147.896 C 187.153 148.355,187.114 149.094,187.549 149.094 C 187.723 149.094,187.864 149.277,187.864 149.501 C 187.864 149.978,190.418 152.561,190.889 152.561 C 191.066 152.561,191.573 151.640,192.015 150.514 C 193.046 147.890,192.704 147.417,190.535 148.467 C 189.742 148.852,189.012 149.086,188.914 148.988 C 188.816 148.890,189.107 148.716,189.561 148.602 C 190.015 148.488,190.386 148.198,190.386 147.956 C 190.386 147.401,188.156 147.353,187.612 147.896 M202.548 150.012 C 201.083 151.500,201.037 151.602,201.378 152.581 C 201.574 153.142,201.734 153.934,201.734 154.342 C 201.734 156.395,204.004 152.588,204.441 149.803 C 204.711 148.081,204.419 148.114,202.548 150.012 M194.799 149.173 C 194.803 150.232,196.126 152.420,196.814 152.503 C 198.076 152.656,197.868 151.583,196.374 150.234 C 195.258 149.225,194.798 148.916,194.799 149.173 M180.794 150.433 C 176.317 154.935,180.202 161.490,187.599 161.915 C 189.877 162.046,189.902 162.039,189.182 161.481 C 187.049 159.828,186.258 159.027,185.524 157.774 C 184.547 156.106,183.761 152.837,183.954 151.236 C 184.196 149.215,182.447 148.771,180.794 150.433 M184.923 149.934 C 183.409 151.448,185.975 158.472,188.645 160.121 C 190.488 161.260,190.592 161.127,190.783 157.376 L 190.956 153.995 188.782 151.860 C 186.744 149.858,185.580 149.277,184.923 149.934 M192.457 151.684 C 191.784 153.278,191.804 153.358,193.082 154.147 C 194.521 155.037,194.536 154.996,193.676 152.561 L 192.952 150.512 192.457 151.684 M199.381 153.980 C 199.615 155.781,199.717 155.965,200.203 155.479 C 200.623 155.059,200.376 153.902,199.680 153.034 C 199.205 152.441,199.187 152.497,199.381 153.980 M196.251 153.690 C 195.779 154.921,196.503 156.028,197.779 156.028 C 198.604 156.028,198.961 155.014,198.538 153.872 C 198.231 153.042,196.551 152.909,196.251 153.690 M191.493 156.622 C 191.014 161.390,193.199 162.236,194.980 157.972 C 195.723 156.194,195.782 156.261,191.922 154.516 C 191.807 154.464,191.615 155.412,191.493 156.622 M195.410 158.711 C 194.453 160.764,194.827 160.927,196.519 159.195 C 197.548 158.141,197.674 157.872,197.332 157.461 C 196.655 156.645,196.252 156.907,195.410 158.711 M199.174 157.814 C 198.892 157.889,198.222 158.498,197.685 159.167 C 196.772 160.303,193.374 162.333,192.385 162.333 C 191.943 162.333,191.827 163.189,192.154 164.040 C 192.314 164.458,192.978 164.539,196.230 164.539 C 200.689 164.539,200.248 164.898,200.788 160.831 C 201.219 157.591,201.067 157.309,199.174 157.814 " stroke="none" fill="#f3cd2c" fill-rule="evenodd"></path><path id="path1" d="M191.647 14.164 C 190.168 14.262,192.285 14.343,196.375 14.343 C 201.333 14.344,202.844 14.277,200.946 14.140 C 197.698 13.906,195.450 13.912,191.647 14.164 M208.166 15.364 C 208.266 15.463,208.951 15.645,209.690 15.768 C 210.428 15.890,211.316 16.090,211.663 16.211 C 212.038 16.342,211.974 16.249,211.505 15.981 C 210.740 15.544,207.804 15.001,208.166 15.364 M180.930 15.951 C 180.420 16.264,180.364 16.355,180.772 16.209 C 181.119 16.086,181.970 15.881,182.664 15.754 L 183.924 15.524 182.821 15.496 C 182.214 15.480,181.363 15.685,180.930 15.951 M172.280 18.765 C 171.493 19.360,171.785 19.356,172.935 18.757 C 173.431 18.498,173.625 18.290,173.365 18.294 C 173.105 18.299,172.617 18.510,172.280 18.765 M219.500 18.757 C 220.650 19.356,220.942 19.360,220.155 18.765 C 219.818 18.510,219.330 18.299,219.070 18.294 C 218.810 18.290,219.004 18.498,219.500 18.757 M222.398 20.006 C 222.735 20.260,223.223 20.472,223.483 20.477 C 223.743 20.481,223.550 20.273,223.053 20.014 C 221.903 19.414,221.612 19.411,222.398 20.006 M163.436 23.195 L 162.490 24.008 163.515 23.330 C 164.078 22.957,164.539 22.591,164.539 22.516 C 164.539 22.280,164.406 22.362,163.436 23.195 M158.962 26.028 L 158.077 26.839 159.102 26.126 C 159.665 25.734,160.126 25.369,160.126 25.315 C 160.126 25.066,159.777 25.280,158.962 26.028 M236.419 29.314 C 236.423 29.574,236.635 30.063,236.889 30.399 C 237.485 31.186,237.481 30.894,236.881 29.744 C 236.622 29.248,236.414 29.054,236.419 29.314 M152.598 34.411 C 152.578 34.700,152.479 35.196,152.380 35.514 C 152.208 36.061,152.217 36.062,152.558 35.530 C 152.757 35.221,152.855 34.725,152.776 34.427 C 152.648 33.939,152.631 33.937,152.598 34.411 M238.216 37.227 C 238.375 41.239,238.537 41.753,238.554 38.298 C 238.562 36.738,238.463 35.192,238.334 34.863 C 238.205 34.534,238.152 35.597,238.216 37.227 M152.007 38.771 C 151.991 40.331,152.164 41.977,152.421 42.711 C 152.688 43.474,152.782 43.598,152.658 43.026 C 152.545 42.506,152.359 40.733,152.244 39.086 L 152.035 36.091 152.007 38.771 M153.687 46.651 C 153.803 47.084,154.030 47.652,154.190 47.912 C 154.393 48.240,154.418 48.144,154.272 47.597 C 154.156 47.163,153.929 46.596,153.769 46.336 C 153.566 46.007,153.541 46.103,153.687 46.651 M236.603 47.136 C 236.495 47.418,236.421 47.956,236.439 48.332 C 236.459 48.764,236.566 48.610,236.730 47.914 C 237.005 46.742,236.930 46.283,236.603 47.136 M242.238 52.963 C 238.059 53.079,240.155 53.140,249.173 53.165 C 256.281 53.185,263.798 53.103,265.879 52.983 C 270.399 52.723,251.498 52.707,242.238 52.963 M131.017 53.822 C 130.936 53.952,132.098 54.020,133.599 53.974 C 138.413 53.825,138.953 53.697,135.007 53.641 C 132.893 53.610,131.098 53.692,131.017 53.822 M132.072 54.632 C 131.986 54.720,132.002 60.798,132.109 68.137 C 132.623 103.362,132.789 113.012,132.886 113.120 C 133.070 113.327,133.753 112.888,136.013 111.111 L 138.219 109.375 139.352 103.308 C 141.434 92.155,144.550 81.654,148.681 71.868 C 149.303 70.394,150.100 68.621,150.453 67.928 C 151.174 66.511,151.533 64.922,151.911 61.463 C 152.077 59.951,152.518 58.330,153.134 56.972 L 154.098 54.846 144.547 54.846 C 139.295 54.846,134.375 54.762,133.614 54.659 C 132.853 54.555,132.159 54.543,132.072 54.632 M237.844 55.950 C 237.958 56.296,238.305 57.736,238.615 59.149 C 238.945 60.659,239.645 62.555,240.314 63.750 C 240.939 64.867,241.450 66.079,241.450 66.442 C 241.450 66.805,242.008 68.287,242.689 69.736 C 247.443 79.835,251.661 94.178,253.745 107.329 L 254.345 111.111 255.699 112.192 C 259.480 115.209,264.602 121.255,266.863 125.370 C 267.362 126.277,267.900 127.022,268.058 127.025 C 268.307 127.029,268.103 55.858,267.853 55.615 C 267.292 55.066,237.661 55.397,237.844 55.950 M130.626 64.303 C 130.626 67.336,130.673 68.578,130.731 67.061 C 130.789 65.544,130.789 63.061,130.731 61.545 C 130.673 60.028,130.626 61.269,130.626 64.303 M130.069 91.805 C 129.952 101.210,129.802 110.749,129.735 113.002 C 129.617 116.987,129.620 117.013,129.859 113.948 C 130.144 110.286,130.669 74.704,130.438 74.704 C 130.352 74.704,130.186 82.400,130.069 91.805 M201.824 88.416 C 201.826 89.283,201.887 89.600,201.960 89.121 C 202.032 88.642,202.030 87.933,201.956 87.545 C 201.881 87.157,201.821 87.549,201.824 88.416 M173.766 94.878 C 173.766 95.658,173.827 95.977,173.903 95.587 C 173.978 95.197,173.978 94.559,173.903 94.169 C 173.827 93.779,173.766 94.098,173.766 94.878 M201.820 95.193 C 201.820 95.973,201.881 96.292,201.956 95.902 C 202.031 95.512,202.031 94.874,201.956 94.484 C 201.881 94.094,201.820 94.413,201.820 95.193 M270.257 113.160 C 270.257 115.500,270.307 116.458,270.368 115.288 C 270.428 114.117,270.428 112.203,270.368 111.032 C 270.307 109.862,270.257 110.820,270.257 113.160 M137.532 117.888 C 137.532 119.015,137.589 119.476,137.659 118.913 C 137.729 118.349,137.729 117.427,137.659 116.864 C 137.589 116.300,137.532 116.761,137.532 117.888 M127.636 119.701 C 126.888 120.697,126.488 121.342,126.746 121.133 C 127.277 120.705,129.351 117.888,129.135 117.888 C 129.059 117.888,128.384 118.704,127.636 119.701 M251.610 120.410 C 251.610 121.017,251.675 121.265,251.754 120.961 C 251.833 120.658,251.833 120.162,251.754 119.858 C 251.675 119.555,251.610 119.803,251.610 120.410 M184.351 128.143 C 184.932 128.396,185.569 128.503,185.766 128.381 C 186.147 128.145,185.037 127.737,183.924 127.703 C 183.510 127.691,183.657 127.842,184.351 128.143 M204.649 127.877 C 204.953 127.956,205.449 127.956,205.753 127.877 C 206.056 127.798,205.808 127.733,205.201 127.733 C 204.594 127.733,204.346 127.798,204.649 127.877 M252.291 134.594 C 252.291 136.935,252.340 137.892,252.401 136.722 C 252.461 135.552,252.461 133.637,252.401 132.467 C 252.340 131.296,252.291 132.254,252.291 134.594 M119.713 133.499 C 119.615 133.841,119.440 134.405,119.322 134.752 C 119.205 135.099,119.340 134.984,119.622 134.496 C 119.904 134.009,120.079 133.446,120.012 133.244 C 119.945 133.042,119.810 133.157,119.713 133.499 M270.647 133.943 C 270.943 135.097,271.687 136.710,271.674 136.170 C 271.668 135.910,271.390 135.130,271.057 134.437 C 270.723 133.743,270.539 133.521,270.647 133.943 M138.147 136.485 C 138.147 137.266,138.209 137.585,138.284 137.195 C 138.359 136.805,138.359 136.166,138.284 135.776 C 138.209 135.386,138.147 135.705,138.147 136.485 M175.887 135.971 C 175.887 136.490,176.452 136.970,176.733 136.690 C 176.829 136.594,176.678 136.286,176.397 136.005 C 175.956 135.564,175.887 135.560,175.887 135.971 M118.376 137.510 C 117.949 138.876,117.533 141.278,117.695 141.441 C 117.801 141.547,117.893 141.433,117.899 141.187 C 117.906 140.942,118.105 139.925,118.344 138.928 C 118.716 137.371,118.739 136.348,118.376 137.510 M272.054 138.219 C 272.043 138.392,272.236 139.173,272.482 139.953 C 272.728 140.733,272.927 141.087,272.926 140.741 C 272.923 140.083,272.088 137.667,272.054 138.219 M189.198 139.322 C 189.198 139.929,189.263 140.177,189.343 139.874 C 189.422 139.571,189.422 139.074,189.343 138.771 C 189.263 138.467,189.198 138.716,189.198 139.322 M188.495 143.242 C 188.495 143.517,188.092 143.745,187.470 143.822 C 186.462 143.948,186.464 143.950,187.628 144.000 C 188.617 144.042,188.810 143.947,188.810 143.420 C 188.810 143.073,188.739 142.790,188.652 142.790 C 188.566 142.790,188.495 142.993,188.495 143.242 M273.359 144.050 C 273.359 144.657,273.424 144.905,273.503 144.602 C 273.583 144.299,273.583 143.802,273.503 143.499 C 273.424 143.195,273.359 143.444,273.359 144.050 M187.318 144.592 C 187.844 144.671,188.106 144.860,187.979 145.066 C 187.851 145.272,187.914 145.318,188.136 145.181 C 188.723 144.818,188.222 144.361,187.294 144.413 L 186.446 144.460 187.318 144.592 M273.675 154.316 L 273.759 163.121 280.536 163.131 C 284.263 163.137,287.738 163.056,288.258 162.952 C 288.779 162.847,285.785 162.780,281.605 162.802 L 274.007 162.842 273.951 154.329 C 273.921 149.646,273.827 145.747,273.743 145.663 C 273.660 145.580,273.629 149.473,273.675 154.316 M117.040 147.991 C 117.042 149.031,117.101 149.418,117.171 148.852 C 117.241 148.285,117.240 147.434,117.168 146.960 C 117.096 146.487,117.038 146.950,117.040 147.991 M271.825 150.197 C 271.826 151.931,271.879 152.600,271.943 151.684 C 272.007 150.768,272.006 149.349,271.941 148.532 C 271.877 147.714,271.824 148.463,271.825 150.197 M138.771 148.621 C 138.775 149.314,138.839 149.561,138.915 149.169 C 138.990 148.777,138.987 148.209,138.908 147.908 C 138.830 147.607,138.768 147.928,138.771 148.621 M139.080 151.615 C 139.080 152.222,139.145 152.470,139.224 152.167 C 139.304 151.864,139.304 151.367,139.224 151.064 C 139.145 150.760,139.080 151.009,139.080 151.615 M199.606 156.552 C 199.170 156.728,199.064 157.289,199.467 157.289 C 199.607 157.289,199.997 157.081,200.334 156.826 C 200.956 156.356,200.510 156.188,199.606 156.552 M117.033 158.077 C 117.035 158.944,117.096 159.261,117.169 158.782 C 117.241 158.303,117.239 157.594,117.164 157.206 C 117.090 156.818,117.030 157.210,117.033 158.077 M363.751 157.923 C 363.136 158.055,363.903 158.087,365.485 157.996 C 367.045 157.906,368.381 157.781,368.453 157.718 C 368.688 157.515,364.886 157.681,363.751 157.923 M368.952 179.305 C 368.952 191.034,369.046 199.921,369.161 199.054 C 369.452 196.854,369.478 158.305,369.188 158.126 C 369.058 158.046,368.952 167.577,368.952 179.305 M357.841 158.467 C 358.664 158.531,360.012 158.531,360.835 158.467 C 361.659 158.402,360.985 158.348,359.338 158.348 C 357.691 158.348,357.017 158.402,357.841 158.467 M354.535 158.773 C 354.927 158.848,355.494 158.846,355.796 158.767 C 356.097 158.688,355.776 158.626,355.083 158.630 C 354.389 158.633,354.143 158.698,354.535 158.773 M347.920 159.096 C 348.661 159.163,349.796 159.162,350.442 159.094 C 351.087 159.027,350.481 158.972,349.094 158.973 C 347.707 158.974,347.179 159.030,347.920 159.096 M36.386 159.910 C 36.294 160.148,36.269 161.393,36.329 162.677 L 36.439 165.012 36.502 162.558 L 36.564 160.104 38.061 160.262 C 42.584 160.740,44.475 160.771,45.039 160.376 C 45.538 160.027,45.275 159.968,43.221 159.968 C 41.900 159.968,39.859 159.858,38.686 159.723 C 36.996 159.528,36.517 159.567,36.386 159.910 M340.024 159.723 C 340.584 159.793,341.577 159.794,342.231 159.726 C 342.885 159.657,342.427 159.600,341.214 159.599 C 340.000 159.598,339.465 159.654,340.024 159.723 M334.988 160.042 C 335.725 160.108,336.931 160.108,337.667 160.042 C 338.404 159.975,337.801 159.921,336.328 159.921 C 334.854 159.921,334.251 159.975,334.988 160.042 M331.127 160.441 L 329.236 160.651 331.029 160.704 C 332.016 160.733,332.911 160.615,333.018 160.441 C 333.125 160.268,333.169 160.150,333.116 160.179 C 333.062 160.208,332.167 160.326,331.127 160.441 M49.514 160.875 C 49.586 160.940,51.915 161.067,54.689 161.157 C 57.802 161.259,58.948 161.228,57.683 161.076 C 55.560 160.821,49.283 160.667,49.514 160.875 M303.546 161.365 C 303.546 161.551,303.156 161.721,302.679 161.745 C 301.911 161.783,301.895 161.804,302.539 161.927 C 302.939 162.003,303.451 161.912,303.679 161.723 C 303.976 161.476,305.006 161.481,307.365 161.740 C 310.534 162.087,314.927 161.962,319.622 161.390 C 321.110 161.208,320.851 161.194,318.676 161.336 C 314.479 161.611,309.209 161.590,306.147 161.286 C 304.351 161.108,303.546 161.133,303.546 161.365 M60.762 161.615 C 61.329 161.686,62.180 161.684,62.653 161.612 C 63.127 161.540,62.664 161.483,61.623 161.485 C 60.583 161.486,60.196 161.545,60.762 161.615 M189.598 161.702 C 189.705 161.875,190.104 162.015,190.484 162.013 C 191.045 162.009,191.086 161.951,190.701 161.702 C 190.080 161.301,189.350 161.301,189.598 161.702 M37.317 177.541 C 37.429 186.253,37.586 195.437,37.667 197.951 C 37.747 200.465,37.967 212.734,38.157 225.217 C 38.346 237.699,38.598 248.007,38.715 248.123 C 38.832 248.239,85.311 248.361,142.002 248.394 C 235.540 248.449,333.814 248.785,357.252 249.132 L 366.356 249.266 366.144 240.709 C 366.028 236.002,365.802 226.548,365.643 219.701 C 365.483 212.853,365.218 203.987,365.053 200.000 C 364.888 196.013,364.773 191.970,364.798 191.017 C 364.913 186.564,364.256 164.499,364.004 164.343 C 363.848 164.246,359.862 164.324,355.146 164.515 C 329.729 165.544,322.259 165.801,308.747 166.111 C 300.599 166.297,290.599 166.599,286.525 166.782 C 268.244 167.600,181.051 167.787,163.909 167.044 C 159.488 166.853,153.034 166.631,149.567 166.551 C 146.099 166.471,136.667 166.202,128.605 165.952 C 114.653 165.521,111.091 165.400,101.655 165.035 C 99.401 164.948,95.217 164.798,92.356 164.701 C 89.496 164.605,85.382 164.388,83.215 164.219 C 78.768 163.871,71.002 163.425,61.466 162.968 C 57.912 162.798,51.529 162.446,47.281 162.185 C 43.034 161.925,39.008 161.710,38.336 161.707 L 37.112 161.702 37.317 177.541 M64.227 161.925 C 64.620 162.000,65.187 161.998,65.488 161.919 C 65.790 161.840,65.469 161.778,64.775 161.782 C 64.082 161.785,63.835 161.850,64.227 161.925 M117.301 162.555 L 117.258 163.566 114.972 163.675 L 112.687 163.783 114.982 163.846 C 117.446 163.913,117.758 163.717,117.483 162.277 C 117.375 161.712,117.334 161.775,117.301 162.555 M295.114 162.235 C 295.418 162.314,295.914 162.314,296.217 162.235 C 296.521 162.155,296.273 162.090,295.666 162.090 C 295.059 162.090,294.811 162.155,295.114 162.235 M80.142 162.550 C 80.445 162.629,80.942 162.629,81.245 162.550 C 81.548 162.471,81.300 162.406,80.693 162.406 C 80.087 162.406,79.838 162.471,80.142 162.550 M289.756 162.550 C 290.059 162.629,290.556 162.629,290.859 162.550 C 291.162 162.471,290.914 162.406,290.307 162.406 C 289.701 162.406,289.452 162.471,289.756 162.550 M83.241 162.765 C 83.314 162.830,86.990 162.954,91.411 163.041 C 96.821 163.148,98.109 163.121,95.351 162.960 C 90.928 162.701,83.027 162.574,83.241 162.765 M105.516 163.506 C 106.080 163.576,107.002 163.576,107.565 163.506 C 108.128 163.436,107.667 163.379,106.541 163.379 C 105.414 163.379,104.953 163.436,105.516 163.506 M262.648 163.504 C 263.125 163.576,263.905 163.576,264.381 163.504 C 264.858 163.432,264.468 163.373,263.515 163.373 C 262.561 163.373,262.171 163.432,262.648 163.504 M131.048 164.131 C 131.438 164.206,132.076 164.206,132.467 164.131 C 132.857 164.056,132.537 163.994,131.757 163.994 C 130.977 163.994,130.658 164.056,131.048 164.131 M237.904 164.131 C 238.294 164.206,238.932 164.206,239.322 164.131 C 239.712 164.056,239.393 163.994,238.613 163.994 C 237.833 163.994,237.514 164.056,237.904 164.131 M184.480 164.765 C 184.959 164.838,185.669 164.836,186.056 164.761 C 186.444 164.686,186.052 164.627,185.185 164.629 C 184.318 164.632,184.001 164.693,184.480 164.765 M36.069 173.680 C 36.069 177.754,36.114 179.421,36.169 177.384 C 36.224 175.347,36.224 172.013,36.169 169.976 C 36.114 167.939,36.069 169.606,36.069 173.680 M35.692 190.912 C 35.652 195.275,35.527 199.105,35.415 199.423 C 35.263 199.850,35.306 199.913,35.578 199.664 C 35.843 199.420,35.920 197.071,35.855 191.153 L 35.765 182.979 35.692 190.912 M368.552 202.364 C 368.552 202.971,368.617 203.219,368.696 202.916 C 368.776 202.612,368.776 202.116,368.696 201.812 C 368.617 201.509,368.552 201.757,368.552 202.364 M35.025 204.282 C 35.046 205.047,35.175 206.099,35.312 206.619 C 35.463 207.193,35.493 206.697,35.389 205.359 C 35.194 202.853,34.969 202.188,35.025 204.282 M368.282 206.935 C 368.283 208.842,368.334 209.581,368.397 208.578 C 368.460 207.575,368.459 206.014,368.396 205.111 C 368.332 204.207,368.281 205.028,368.282 206.935 M35.186 210.777 C 35.084 211.958,34.916 218.455,34.813 225.217 C 34.710 231.978,34.556 237.756,34.472 238.056 C 34.332 238.555,33.566 238.611,25.749 238.692 L 17.179 238.781 25.690 238.850 C 30.370 238.888,34.372 238.809,34.582 238.676 C 34.936 238.451,35.824 209.083,35.487 208.746 C 35.423 208.683,35.288 209.597,35.186 210.777 M367.831 211.426 C 367.679 218.722,367.730 226.924,367.914 224.901 C 368.122 222.616,368.139 210.559,367.934 210.559 C 367.887 210.559,367.841 210.950,367.831 211.426 M367.291 233.255 C 367.291 233.861,367.356 234.110,367.436 233.806 C 367.515 233.503,367.515 233.006,367.436 232.703 C 367.356 232.400,367.291 232.648,367.291 233.255 M366.989 236.091 C 366.989 236.872,367.050 237.191,367.126 236.801 C 367.201 236.411,367.201 235.772,367.126 235.382 C 367.050 234.992,366.989 235.311,366.989 236.091 M367.393 238.140 C 367.513 238.487,367.721 239.196,367.855 239.716 C 368.079 240.581,368.101 240.595,368.120 239.874 C 368.132 239.441,367.924 238.731,367.658 238.298 C 367.337 237.775,367.248 237.722,367.393 238.140 M6.764 238.692 C 6.682 238.909,6.651 248.942,6.695 260.989 L 6.777 282.892 8.353 283.121 C 9.220 283.246,12.433 283.417,15.494 283.500 C 18.555 283.583,22.276 283.749,23.763 283.870 C 25.415 284.004,26.623 283.968,26.866 283.778 C 27.091 283.602,28.228 283.538,29.472 283.630 C 31.024 283.745,31.445 283.857,30.890 284.007 C 29.794 284.303,33.739 284.601,43.334 284.946 C 48.833 285.143,51.268 285.128,51.413 284.894 C 51.788 284.287,61.986 285.169,62.884 285.886 C 63.058 286.025,66.604 286.227,70.764 286.335 C 74.925 286.444,80.032 286.591,82.112 286.663 C 85.419 286.777,85.578 286.762,83.373 286.539 C 81.986 286.399,76.879 286.186,72.025 286.066 C 66.959 285.940,63.065 285.715,62.884 285.536 C 62.677 285.331,64.024 285.285,66.824 285.399 C 71.584 285.594,86.459 286.053,103.546 286.531 C 149.974 287.829,225.688 287.829,266.824 286.530 C 272.199 286.360,282.057 286.070,288.731 285.886 C 295.406 285.702,304.626 285.347,309.220 285.099 C 313.814 284.850,321.048 284.497,325.296 284.312 C 339.004 283.718,362.793 282.438,369.110 281.954 C 372.490 281.696,377.667 281.344,380.615 281.172 C 386.746 280.815,393.417 280.291,393.549 280.155 C 393.672 280.030,394.241 270.875,394.661 262.254 C 395.625 242.471,395.811 242.870,395.858 264.826 L 395.902 285.207 393.144 285.439 C 391.627 285.566,385.563 285.778,379.669 285.910 L 368.952 286.151 381.770 286.025 C 389.069 285.954,394.938 285.766,395.402 285.590 L 396.217 285.280 396.181 263.128 C 396.161 250.945,396.079 241.225,396.000 241.529 C 395.875 242.007,395.409 242.086,392.491 242.124 C 390.640 242.148,384.444 242.255,378.723 242.361 L 368.322 242.553 368.158 246.394 C 368.068 248.507,367.879 250.351,367.738 250.492 C 367.458 250.772,326.670 251.114,282.112 251.210 C 266.596 251.243,248.936 251.319,242.868 251.378 C 205.681 251.741,35.965 251.891,35.349 251.561 C 34.727 251.228,34.673 250.948,34.673 248.058 L 34.673 244.917 22.380 244.917 L 10.087 244.917 10.074 246.257 C 10.051 248.772,9.729 252.639,8.489 265.280 C 6.948 280.996,6.919 282.335,8.117 282.517 C 8.923 282.639,8.913 282.651,7.959 282.695 L 6.935 282.742 6.935 260.687 L 6.935 238.632 10.796 238.533 L 14.657 238.434 10.786 238.366 C 7.928 238.316,6.875 238.401,6.764 238.692 M372.734 241.450 L 371.474 241.676 372.577 241.698 C 373.184 241.711,373.964 241.599,374.310 241.450 C 375.053 241.131,374.517 241.131,372.734 241.450 M389.210 241.363 C 389.776 241.433,390.627 241.432,391.101 241.360 C 391.575 241.288,391.111 241.231,390.071 241.232 C 389.031 241.234,388.643 241.293,389.210 241.363 M15.372 282.968 C 14.898 283.039,14.047 283.041,13.481 282.971 C 12.914 282.901,13.302 282.842,14.342 282.840 C 15.382 282.838,15.846 282.896,15.372 282.968 M43.416 284.454 C 43.548 284.590,42.522 284.620,41.135 284.519 C 39.748 284.418,37.301 284.331,35.697 284.327 C 34.094 284.322,32.782 284.212,32.781 284.082 C 32.781 283.771,43.104 284.132,43.416 284.454 M47.206 284.535 C 46.905 284.614,46.337 284.617,45.945 284.541 C 45.553 284.466,45.800 284.401,46.493 284.398 C 47.187 284.394,47.508 284.456,47.206 284.535 M54.610 285.481 C 54.913 285.561,55.410 285.561,55.713 285.481 C 56.017 285.402,55.768 285.337,55.162 285.337 C 54.555 285.337,54.307 285.402,54.610 285.481 M94.177 287.071 C 94.918 287.138,96.053 287.137,96.699 287.069 C 97.344 287.001,96.738 286.947,95.351 286.948 C 93.964 286.949,93.436 287.005,94.177 287.071 M104.807 287.471 C 106.194 287.600,112.080 287.774,117.888 287.856 C 124.390 287.949,126.631 287.918,123.719 287.776 C 116.803 287.437,101.856 287.197,104.807 287.471 M328.448 287.463 C 327.147 287.570,329.630 287.596,333.964 287.521 C 338.298 287.446,341.903 287.333,341.975 287.270 C 342.183 287.089,331.068 287.248,328.448 287.463 M344.444 287.383 C 345.008 287.453,345.930 287.453,346.493 287.383 C 347.057 287.313,346.596 287.256,345.469 287.256 C 344.342 287.256,343.881 287.313,344.444 287.383 M320.973 288.019 C 321.976 288.082,323.536 288.081,324.440 288.018 C 325.344 287.954,324.523 287.903,322.616 287.904 C 320.709 287.904,319.970 287.956,320.973 288.019 M136.415 288.332 C 137.156 288.399,138.291 288.398,138.937 288.330 C 139.582 288.262,138.976 288.208,137.589 288.209 C 136.202 288.210,135.674 288.265,136.415 288.332 M292.277 288.334 C 293.274 288.396,294.905 288.396,295.902 288.334 C 296.899 288.271,296.084 288.220,294.090 288.220 C 292.096 288.220,291.281 288.271,292.277 288.334 M308.038 288.336 C 310.075 288.391,313.408 288.391,315.445 288.336 C 317.482 288.281,315.816 288.236,311.742 288.236 C 307.667 288.236,306.001 288.281,308.038 288.336 M153.103 288.641 C 153.361 288.824,153.521 290.252,153.591 292.999 L 153.695 297.084 153.679 292.855 C 153.667 289.371,153.581 288.603,153.191 288.497 C 152.852 288.404,152.827 288.445,153.103 288.641 M155.965 288.938 C 155.889 289.084,155.931 292.467,156.057 296.454 C 156.184 300.441,156.300 306.292,156.316 309.456 L 156.344 315.209 200.946 315.209 L 245.548 315.209 245.548 302.331 L 245.548 289.453 201.970 289.245 C 178.002 289.131,157.877 288.955,157.248 288.854 C 156.618 288.754,156.041 288.791,155.965 288.938 M247.874 288.957 C 248.120 289.203,272.225 289.335,276.281 289.113 C 279.758 288.922,276.614 288.856,264.398 288.862 C 255.263 288.867,247.827 288.909,247.874 288.957 M247.332 293.850 C 247.219 296.322,247.149 302.175,247.178 306.856 C 247.227 314.995,247.239 314.802,247.458 302.443 C 247.584 295.335,247.654 289.482,247.612 289.437 C 247.571 289.392,247.445 291.378,247.332 293.850 M153.321 305.753 C 153.321 308.786,153.368 310.028,153.426 308.511 C 153.484 306.994,153.484 304.511,153.426 302.994 C 153.368 301.478,153.321 302.719,153.321 305.753 " stroke="none" fill="#045474" fill-rule="evenodd"></path><path id="path2" d="M186.446 14.994 C 181.046 16.120,180.955 16.143,177.147 17.294 C 167.957 20.074,156.146 27.104,154.465 30.797 C 154.087 31.628,153.633 32.575,153.456 32.901 C 151.978 35.631,151.930 42.463,153.372 44.796 C 153.856 45.580,155.083 50.685,155.083 51.917 C 155.083 53.921,155.209 53.901,142.531 53.901 L 131.198 53.901 131.001 58.235 C 130.892 60.619,130.665 72.994,130.496 85.737 C 130.327 98.479,130.109 110.801,130.011 113.118 L 129.834 117.332 128.168 119.422 C 127.252 120.572,126.316 121.868,126.089 122.301 C 125.862 122.734,125.484 123.202,125.249 123.341 C 125.015 123.480,124.823 123.712,124.823 123.857 C 124.823 124.002,124.044 125.449,123.092 127.072 C 122.141 128.696,121.360 130.165,121.357 130.339 C 121.354 130.512,121.155 131.030,120.915 131.490 C 120.675 131.950,120.303 132.872,120.088 133.539 C 119.873 134.206,119.591 134.894,119.462 135.067 C 119.132 135.509,118.312 138.957,117.735 142.330 C 117.349 144.580,117.269 147.158,117.352 154.590 L 117.457 164.001 112.078 163.808 C 109.119 163.703,101.875 163.464,95.981 163.279 C 79.812 162.771,65.228 162.049,54.058 161.203 C 50.591 160.940,45.839 160.670,43.499 160.602 C 41.158 160.535,38.657 160.394,37.939 160.289 L 36.635 160.098 36.423 166.810 C 36.067 178.060,35.634 201.556,35.435 220.331 C 35.305 232.663,35.140 238.270,34.897 238.564 C 34.612 238.909,32.018 238.968,20.820 238.887 L 7.092 238.786 7.076 260.843 C 7.068 272.974,7.098 281.694,7.143 280.221 C 7.287 275.547,7.940 268.209,9.316 255.792 C 9.566 253.538,9.771 250.757,9.771 249.611 C 9.771 248.465,9.862 246.869,9.972 246.064 L 10.172 244.602 22.186 244.607 C 28.794 244.610,34.372 244.721,34.582 244.854 C 34.828 245.011,34.996 246.212,35.055 248.238 L 35.146 251.379 120.252 251.379 C 285.472 251.379,367.466 250.866,367.688 249.830 C 367.765 249.469,367.896 247.703,367.978 245.907 C 368.061 244.111,368.181 242.588,368.246 242.524 C 368.311 242.459,374.453 242.315,381.897 242.204 C 389.340 242.093,395.550 241.891,395.698 241.757 C 396.269 241.236,376.864 241.066,373.365 241.562 C 371.051 241.889,368.077 241.044,367.906 240.011 C 367.851 239.675,367.602 238.952,367.353 238.404 C 366.965 237.552,366.954 236.449,367.275 230.839 C 367.482 227.227,367.677 221.434,367.710 217.967 C 367.771 211.502,368.246 203.286,368.785 199.370 C 368.952 198.156,369.094 188.413,369.099 177.718 L 369.110 158.273 367.696 158.061 C 366.918 157.945,365.393 158.002,364.307 158.189 C 363.221 158.375,359.141 158.682,355.240 158.870 C 351.340 159.059,346.801 159.349,345.154 159.516 C 340.967 159.938,333.920 160.459,327.975 160.784 C 325.201 160.936,321.797 161.200,320.410 161.373 C 315.716 161.955,309.785 162.110,306.897 161.725 C 305.195 161.499,303.979 161.468,303.755 161.646 C 303.553 161.805,300.764 162.034,297.557 162.154 C 294.350 162.274,291.087 162.522,290.307 162.706 C 289.527 162.889,285.461 163.069,281.271 163.107 L 273.654 163.175 273.527 153.219 C 273.388 142.352,273.118 140.493,270.863 134.909 L 270.035 132.861 269.910 95.143 C 269.823 68.926,269.886 57.364,270.117 57.221 C 270.300 57.108,270.449 56.361,270.449 55.562 C 270.449 52.880,271.670 53.044,252.955 53.209 L 236.407 53.356 236.407 50.591 C 236.407 47.822,236.619 46.596,237.609 43.656 C 239.039 39.411,237.683 29.824,235.380 27.901 C 233.479 26.314,232.188 25.349,231.565 25.053 C 231.194 24.877,230.110 24.223,229.157 23.599 C 227.127 22.272,221.456 19.502,219.310 18.788 C 218.489 18.516,217.567 18.160,217.261 17.999 C 216.520 17.608,213.027 16.561,210.875 16.085 C 209.921 15.874,208.361 15.479,207.407 15.207 C 204.906 14.493,189.594 14.338,186.446 14.994 M202.522 16.704 C 215.188 17.847,232.506 24.825,234.958 29.773 C 236.725 33.339,237.169 38.283,236.080 42.259 C 235.727 43.548,235.239 45.323,234.995 46.203 C 234.372 48.451,234.137 50.493,234.086 54.095 L 234.043 57.210 217.179 57.128 C 207.904 57.082,190.422 56.959,178.329 56.853 L 156.344 56.662 156.344 53.721 C 156.344 50.349,156.021 48.528,154.758 44.760 C 152.688 38.583,153.835 32.025,157.491 29.144 C 169.106 19.991,186.302 15.241,202.522 16.704 M153.924 55.162 C 153.893 55.422,153.490 56.540,153.028 57.647 C 152.565 58.753,152.057 60.739,151.897 62.059 C 151.738 63.380,151.545 64.912,151.469 65.464 C 151.393 66.016,150.916 67.293,150.409 68.301 C 145.783 77.512,140.907 93.916,138.528 108.274 C 138.350 109.347,138.038 109.747,136.437 110.954 C 135.402 111.734,134.211 112.646,133.792 112.981 C 132.616 113.920,132.639 114.189,132.370 96.546 C 132.231 87.394,132.019 74.194,131.898 67.214 L 131.679 54.523 142.829 54.606 C 152.523 54.678,153.972 54.751,153.924 55.162 M267.612 55.470 C 268.045 55.744,268.714 126.740,268.290 127.344 C 268.153 127.539,267.841 127.107,265.010 122.793 C 262.882 119.551,258.855 115.084,255.448 112.186 C 254.320 111.227,254.130 110.871,253.937 109.366 C 252.361 97.074,247.647 80.891,242.201 69.080 C 241.614 67.807,241.214 66.636,241.312 66.477 C 241.410 66.318,240.916 65.146,240.213 63.873 C 239.391 62.384,238.776 60.728,238.487 59.227 C 238.241 57.944,237.940 56.505,237.819 56.028 L 237.599 55.162 252.369 55.166 C 261.124 55.169,267.332 55.293,267.612 55.470 M162.752 66.498 C 187.141 70.501,213.245 70.842,234.492 67.436 C 236.646 67.091,238.508 66.918,238.630 67.053 C 239.473 67.983,243.821 79.256,245.261 84.247 C 250.448 102.220,253.145 124.347,252.197 141.148 C 251.619 151.404,250.409 163.305,249.900 163.746 C 249.747 163.878,234.588 164.193,217.050 164.427 L 201.003 164.641 201.219 163.093 C 201.337 162.241,201.522 160.516,201.630 159.259 C 201.833 156.898,201.996 156.624,202.698 157.470 C 208.068 163.940,216.665 153.378,214.655 142.781 C 214.400 141.433,214.427 141.012,214.796 140.604 C 218.985 135.975,214.688 128.671,206.986 127.330 C 205.003 126.985,204.848 126.901,205.036 126.283 C 206.979 119.906,200.602 114.692,192.454 115.994 C 186.584 116.931,183.804 121.194,186.090 125.747 L 186.838 127.235 184.396 127.094 C 180.147 126.848,177.369 128.354,176.536 131.355 C 176.115 132.871,176.102 136.170,176.517 136.170 C 176.690 136.170,176.832 136.398,176.832 136.676 C 176.832 136.954,177.276 137.839,177.818 138.642 C 178.504 139.659,178.977 140.951,179.374 142.891 C 179.689 144.424,180.178 146.033,180.463 146.468 C 181.069 147.393,180.868 147.776,180.071 147.213 C 179.763 146.995,179.972 147.234,180.536 147.742 L 181.560 148.666 180.190 150.095 C 175.146 155.360,179.924 162.544,188.604 162.747 C 191.091 162.805,192.480 163.672,191.277 164.415 C 190.404 164.955,143.286 164.456,142.944 163.904 C 142.352 162.946,141.018 150.617,140.556 141.844 C 139.325 118.425,143.017 93.926,150.747 74.224 C 152.481 69.804,154.617 65.248,154.955 65.248 C 155.053 65.248,158.562 65.811,162.752 66.498 M180.139 71.503 C 176.204 73.902,173.269 84.264,173.831 93.775 C 175.321 119.003,189.061 118.744,190.560 93.459 C 191.342 80.282,185.596 68.175,180.139 71.503 M208.764 71.270 C 200.662 73.614,199.340 103.135,206.991 110.875 C 212.871 116.823,218.276 107.490,218.262 91.411 L 218.256 83.688 217.230 80.418 C 214.885 72.944,212.370 70.227,208.764 71.270 M137.445 113.239 C 137.466 113.365,138.006 129.439,138.214 136.170 C 138.421 142.851,139.032 150.525,139.979 158.319 C 140.311 161.053,140.583 163.520,140.583 163.803 C 140.583 164.406,123.131 164.151,122.390 163.537 C 121.781 163.031,120.473 158.422,119.782 154.342 C 117.953 143.551,120.751 133.131,128.366 122.374 C 130.924 118.762,137.291 112.354,137.445 113.239 M258.089 117.652 C 269.045 128.839,274.184 145.409,270.967 159.171 C 269.900 163.734,270.939 163.275,261.200 163.489 L 252.797 163.674 252.797 162.862 C 252.797 162.415,253.004 160.447,253.257 158.487 C 253.930 153.264,254.318 147.040,254.678 135.697 C 255.198 119.338,255.383 115.366,255.624 115.366 C 255.749 115.366,256.859 116.395,258.089 117.652 M199.237 117.235 C 204.107 119.057,206.501 124.108,203.783 126.826 C 203.116 127.494,202.567 127.198,202.994 126.400 C 205.815 121.129,196.209 120.943,189.763 126.144 C 188.319 127.310,188.042 127.268,186.921 125.721 C 182.838 120.085,191.290 114.262,199.237 117.235 M201.936 123.678 C 203.083 124.664,202.611 126.752,201.048 127.607 C 200.520 127.896,199.796 128.359,199.438 128.637 C 198.829 129.109,198.691 129.082,197.301 128.218 C 195.148 126.879,193.608 126.746,192.366 127.791 C 191.391 128.612,188.767 128.179,189.317 127.289 C 190.990 124.583,199.993 122.007,201.936 123.678 M180.772 128.789 L 179.511 129.894 181.217 128.856 C 183.057 127.736,184.857 127.524,186.242 128.265 C 187.285 128.823,186.845 129.049,185.549 128.621 C 182.395 127.580,179.039 132.293,179.039 137.762 C 179.039 139.187,178.578 138.878,177.663 136.840 C 176.608 134.488,176.620 134.109,177.812 132.213 L 178.792 130.654 177.812 131.580 C 176.657 132.671,176.559 132.368,177.543 130.757 C 178.305 129.509,179.480 128.470,180.663 127.996 C 182.016 127.454,182.046 127.672,180.772 128.789 M207.155 128.009 C 212.608 129.150,216.671 133.778,215.627 137.658 C 214.980 140.059,214.223 140.256,213.403 138.236 C 211.392 133.280,207.033 131.384,203.453 133.907 L 202.128 134.841 200.998 132.678 L 199.868 130.514 200.556 130.033 C 200.934 129.768,201.389 129.547,201.567 129.542 C 201.746 129.537,202.448 129.112,203.129 128.596 C 204.511 127.551,204.779 127.512,207.155 128.009 M195.884 128.675 C 196.759 129.924,196.535 130.287,195.035 130.048 C 193.340 129.777,193.110 129.537,193.717 128.671 C 194.341 127.780,195.258 127.782,195.884 128.675 M190.181 131.435 C 190.088 133.319,189.125 135.225,189.125 133.523 C 189.125 133.281,188.700 132.274,188.180 131.286 C 187.016 129.072,187.208 128.652,188.917 129.673 C 190.035 130.340,190.221 130.600,190.181 131.435 M185.795 129.518 C 185.891 129.673,185.759 130.205,185.501 130.700 C 184.360 132.886,185.226 134.771,187.549 135.161 L 188.968 135.399 189.188 137.282 C 189.309 138.317,189.326 139.838,189.226 140.662 L 189.044 142.159 187.726 142.159 C 187.002 142.159,186.134 142.367,185.797 142.622 C 184.652 143.488,182.359 142.642,180.318 140.602 C 178.688 138.972,180.282 131.796,182.696 129.897 C 183.545 129.229,185.471 128.993,185.795 129.518 M192.277 130.673 C 192.277 131.137,191.902 131.277,191.564 130.938 C 191.279 130.654,191.671 129.844,191.995 130.044 C 192.150 130.140,192.277 130.423,192.277 130.673 M188.007 132.412 C 188.975 134.568,188.937 134.741,187.569 134.441 C 185.813 134.055,185.301 133.053,185.965 131.305 C 186.456 130.014,187.084 130.355,188.007 132.412 M196.165 130.807 C 197.231 130.812,197.160 131.299,195.962 132.193 C 195.125 132.818,195.111 132.818,194.658 132.212 C 194.215 131.620,194.206 131.623,194.378 132.305 C 194.589 133.145,193.642 133.690,193.196 132.985 C 192.335 131.626,193.115 130.381,194.641 130.680 C 194.988 130.747,195.674 130.805,196.165 130.807 M199.982 132.309 C 202.029 135.417,201.980 136.758,199.844 136.058 C 198.790 135.713,198.731 135.613,198.503 133.806 C 198.127 130.826,198.654 130.293,199.982 132.309 M191.951 132.367 C 192.481 133.357,192.330 133.882,191.452 134.103 C 190.400 134.366,190.368 134.322,190.595 132.923 C 190.802 131.648,191.429 131.391,191.951 132.367 M197.929 134.894 C 197.944 135.861,197.850 136.195,197.624 135.970 C 197.176 135.521,196.877 133.486,197.158 132.795 C 197.496 131.965,197.900 133.064,197.929 134.894 M196.457 134.358 C 196.547 135.095,196.732 135.970,196.868 136.304 C 197.066 136.789,197.010 136.870,196.587 136.708 C 196.273 136.587,196.057 136.660,196.053 136.889 C 196.049 137.101,195.785 137.612,195.467 138.027 L 194.888 138.780 194.669 137.081 C 194.284 134.097,194.296 133.806,194.799 133.806 C 195.059 133.806,195.385 133.629,195.524 133.412 C 195.984 132.692,196.291 133.003,196.457 134.358 M208.845 133.928 C 210.734 134.786,213.396 138.609,213.396 140.463 C 213.396 141.001,211.241 141.989,209.384 142.302 L 208.082 142.522 208.139 140.170 C 208.219 136.857,207.742 136.344,204.807 136.587 C 202.340 136.792,201.995 136.312,203.546 134.829 C 205.183 133.264,206.783 132.992,208.845 133.928 M193.241 137.541 C 194.053 140.320,193.754 141.600,192.084 142.494 C 190.969 143.090,190.730 142.661,190.339 139.350 C 189.952 136.073,190.194 135.035,191.393 134.839 C 192.383 134.676,192.420 134.729,193.241 137.541 M200.544 136.976 C 200.826 137.259,200.056 139.007,199.649 139.007 C 199.229 139.007,198.897 138.299,198.897 137.405 C 198.897 136.828,200.085 136.518,200.544 136.976 M207.232 137.816 C 208.420 139.513,207.405 142.611,205.811 142.153 C 205.255 141.994,204.781 141.824,204.758 141.775 C 203.749 139.664,203.310 138.586,203.310 138.226 C 203.310 137.002,206.433 136.676,207.232 137.816 M197.760 137.930 C 198.078 138.759,197.966 140.693,197.552 141.504 C 197.003 142.581,196.431 142.662,196.070 141.712 C 195.899 141.264,195.615 140.898,195.437 140.898 C 194.843 140.898,195.094 139.355,195.745 139.007 C 196.091 138.822,196.375 138.474,196.375 138.234 C 196.375 137.847,196.781 137.528,197.366 137.456 C 197.477 137.442,197.655 137.655,197.760 137.930 M202.658 139.549 C 203.081 141.081,202.759 141.338,201.452 140.511 L 200.387 139.836 201.235 139.107 C 202.316 138.177,202.276 138.165,202.658 139.549 M202.785 143.110 C 202.684 145.144,201.586 146.237,200.115 145.770 C 199.450 145.560,199.364 141.927,200.000 140.899 C 200.471 140.136,202.840 142.017,202.785 143.110 M195.204 142.695 C 195.115 142.927,195.267 143.105,195.553 143.105 C 196.138 143.105,196.197 143.521,195.734 144.386 C 195.238 145.312,194.698 145.140,194.927 144.129 C 195.086 143.427,195.059 143.367,194.788 143.814 C 193.949 145.195,193.610 144.152,194.203 142.015 C 194.547 140.775,194.552 140.772,194.955 141.526 C 195.179 141.944,195.291 142.469,195.204 142.695 M199.048 142.868 C 198.787 144.812,198.740 144.890,198.140 144.391 C 197.667 143.999,197.944 142.530,198.666 141.608 C 199.202 140.922,199.277 141.169,199.048 142.868 M181.362 142.307 C 181.923 142.735,182.907 143.304,183.547 143.572 C 184.486 143.964,184.713 144.227,184.717 144.921 C 184.719 145.396,184.804 146.095,184.906 146.476 C 185.111 147.237,183.265 148.299,182.349 147.947 C 181.842 147.753,180.463 145.023,180.136 143.567 C 180.020 143.053,179.858 142.384,179.776 142.080 C 179.567 141.308,180.164 141.394,181.362 142.307 M213.877 141.857 C 214.329 142.588,214.092 149.253,213.547 151.143 C 211.824 157.115,208.281 159.813,204.616 157.943 C 202.553 156.890,202.419 156.522,203.442 154.703 C 204.502 152.818,205.192 150.389,205.197 148.528 C 205.200 147.551,205.521 146.619,206.351 145.175 L 207.501 143.176 209.282 142.974 C 210.261 142.863,211.552 142.510,212.150 142.189 C 213.490 141.471,213.623 141.446,213.877 141.857 M204.274 142.868 C 204.284 143.085,204.406 143.949,204.544 144.789 C 204.814 146.435,203.767 148.259,201.553 150.002 L 200.684 150.685 200.108 149.810 C 199.044 148.197,199.314 146.572,200.645 146.572 C 202.059 146.572,203.241 145.382,203.512 143.684 C 203.692 142.559,204.232 141.981,204.274 142.868 M188.810 143.420 C 188.810 143.922,188.602 144.049,187.786 144.046 C 186.409 144.039,185.622 143.547,186.288 143.110 C 187.188 142.519,188.810 142.718,188.810 143.420 M206.349 143.265 C 206.509 143.682,205.606 145.536,205.378 145.260 C 205.330 145.201,205.208 144.622,205.108 143.972 C 204.915 142.725,205.922 142.152,206.349 143.265 M192.409 144.242 C 192.683 144.347,192.908 144.795,192.908 145.236 C 192.908 146.019,192.892 146.025,192.277 145.469 C 191.931 145.155,191.647 144.708,191.647 144.474 C 191.647 143.995,191.713 143.974,192.409 144.242 M188.320 144.653 C 188.418 144.811,187.868 145.292,187.099 145.723 C 185.620 146.549,185.343 146.430,185.343 144.970 C 185.343 144.318,187.942 144.041,188.320 144.653 M191.033 145.027 C 191.368 145.653,191.331 145.677,190.335 145.463 C 189.080 145.194,189.001 145.138,189.270 144.702 C 189.620 144.136,190.659 144.328,191.033 145.027 M198.897 146.608 C 198.897 147.367,198.225 147.367,197.287 146.608 C 196.666 146.105,196.616 145.938,196.966 145.517 C 197.497 144.877,198.897 145.669,198.897 146.608 M194.799 145.903 C 194.799 146.055,194.599 146.346,194.354 146.549 C 193.860 146.959,193.355 146.493,193.696 145.942 C 193.936 145.553,194.799 145.523,194.799 145.903 M190.840 146.425 C 191.410 146.855,191.363 146.887,190.150 146.887 C 188.900 146.887,188.287 146.570,188.714 146.143 C 189.064 145.793,190.205 145.944,190.840 146.425 M189.992 147.401 C 190.980 147.666,190.877 148.120,189.740 148.516 C 189.211 148.701,188.849 148.922,188.935 149.009 C 189.022 149.095,189.741 148.852,190.534 148.468 C 192.100 147.710,193.091 147.813,192.801 148.704 C 192.229 150.460,191.395 152.603,191.213 152.785 C 190.942 153.056,187.864 150.037,187.864 149.500 C 187.864 149.276,187.723 149.094,187.549 149.094 C 186.975 149.094,187.223 148.192,187.935 147.693 C 188.705 147.154,188.943 147.120,189.992 147.401 M197.846 148.542 C 199.082 149.828,199.749 151.288,199.304 151.733 C 199.188 151.850,198.517 151.331,197.813 150.581 C 197.109 149.831,196.107 148.909,195.587 148.531 C 194.796 147.957,194.719 147.793,195.114 147.529 C 195.958 146.964,196.536 147.179,197.846 148.542 M184.712 148.445 C 184.712 148.884,184.133 149.162,183.733 148.915 C 183.490 148.765,183.514 148.618,183.812 148.429 C 184.375 148.072,184.712 148.078,184.712 148.445 M204.439 149.803 C 204.035 152.936,201.734 156.782,201.734 154.323 C 201.734 153.926,201.574 153.142,201.378 152.580 C 201.034 151.593,201.078 151.503,202.707 149.854 C 204.761 147.774,204.700 147.776,204.439 149.803 M196.950 150.711 C 198.249 152.040,198.256 152.632,196.972 152.502 C 196.121 152.416,194.803 150.389,194.799 149.161 C 194.799 148.897,196.078 149.820,196.950 150.711 M183.342 149.600 C 183.952 149.763,184.032 150.039,184.139 152.353 C 184.348 156.850,186.612 160.479,189.817 161.449 L 191.174 161.860 189.021 161.954 C 180.884 162.308,175.910 155.344,180.794 150.433 C 181.835 149.386,182.155 149.281,183.342 149.600 M188.897 151.786 L 190.963 153.689 190.827 157.302 C 190.675 161.308,190.647 161.343,188.607 160.093 C 185.554 158.222,183.204 150.591,185.422 149.750 C 186.301 149.416,186.367 149.455,188.897 151.786 M194.291 153.754 C 194.977 155.080,194.940 155.173,193.932 154.642 C 191.818 153.528,191.778 153.449,192.437 151.735 L 193.029 150.197 193.406 151.484 C 193.613 152.192,194.012 153.214,194.291 153.754 M195.092 152.028 C 195.104 152.168,194.972 152.195,194.799 152.088 C 194.626 151.981,194.494 151.583,194.506 151.203 C 194.528 150.516,195.021 151.210,195.092 152.028 M200.434 153.991 C 200.846 155.130,200.713 155.571,199.899 155.769 C 199.603 155.842,199.441 155.338,199.334 154.008 C 199.164 151.893,199.673 151.885,200.434 153.991 M195.605 154.067 C 195.342 154.330,194.799 153.774,194.809 153.252 C 194.818 152.784,194.875 152.793,195.279 153.326 C 195.531 153.660,195.678 153.994,195.605 154.067 M198.897 154.838 C 198.897 155.842,198.333 156.193,197.183 155.904 C 195.697 155.531,195.755 153.313,197.257 153.122 C 198.290 152.991,198.897 153.626,198.897 154.838 M193.689 155.306 C 195.603 156.245,195.701 156.509,194.837 158.392 C 193.670 160.933,191.810 161.706,191.485 159.785 C 191.296 158.666,191.572 154.452,191.834 154.452 C 191.897 154.452,192.731 154.836,193.689 155.306 M200.334 156.826 C 199.635 157.355,199.212 157.420,199.212 157.000 C 199.212 156.674,199.767 156.401,200.473 156.378 C 200.825 156.367,200.790 156.482,200.334 156.826 M197.412 157.368 C 197.893 157.728,197.864 157.845,197.078 158.723 C 195.509 160.476,193.515 161.530,194.758 159.949 C 195.108 159.505,195.555 158.653,195.751 158.058 C 196.131 156.907,196.558 156.729,197.412 157.368 M200.845 159.968 C 200.789 161.182,200.607 162.707,200.439 163.357 L 200.133 164.539 196.239 164.539 C 192.979 164.539,192.314 164.458,192.154 164.040 C 191.827 163.189,191.943 162.333,192.385 162.333 C 193.374 162.333,196.772 160.303,197.685 159.167 C 199.671 156.695,200.979 157.027,200.845 159.968 M46.966 162.042 C 50.309 162.322,53.509 162.503,63.199 162.958 C 66.840 163.129,70.386 163.339,71.080 163.426 C 71.773 163.512,75.085 163.656,78.440 163.747 C 81.795 163.837,84.692 164.005,84.878 164.120 C 85.064 164.235,87.070 164.372,89.338 164.424 C 94.380 164.541,110.661 165.127,113.475 165.292 C 119.325 165.637,135.142 166.154,148.148 166.426 C 156.210 166.595,168.692 166.883,175.887 167.067 C 190.652 167.443,272.928 167.397,274.389 167.012 C 274.909 166.874,283.065 166.620,292.514 166.446 C 301.962 166.272,312.813 165.990,316.627 165.819 C 320.441 165.649,328.030 165.359,333.491 165.175 C 351.656 164.564,351.852 164.556,359.840 164.040 C 364.758 163.722,364.256 162.726,364.500 173.293 C 364.614 178.273,364.775 184.547,364.856 187.234 C 364.937 189.921,365.084 195.666,365.182 200.000 C 365.280 204.334,365.418 209.441,365.489 211.348 C 365.923 223.015,366.334 249.074,366.087 249.285 C 365.929 249.420,363.885 249.423,361.545 249.292 C 355.516 248.954,201.005 248.393,112.794 248.388 L 38.511 248.385 38.340 247.203 C 38.246 246.552,38.077 238.219,37.965 228.684 C 37.852 219.149,37.706 209.362,37.639 206.935 C 37.573 204.507,37.424 193.327,37.308 182.090 L 37.097 161.658 40.534 161.725 C 42.425 161.761,45.319 161.904,46.966 162.042 M395.338 253.901 C 394.686 264.008,394.364 269.636,394.135 274.940 C 394.006 277.927,393.781 280.017,393.572 280.188 C 393.380 280.345,389.677 280.701,385.343 280.979 C 381.009 281.258,375.619 281.623,373.365 281.791 C 366.258 282.320,344.812 283.592,336.013 284.007 C 332.285 284.182,326.399 284.463,322.931 284.630 C 269.174 287.226,195.918 288.370,141.214 287.470 C 106.110 286.893,102.239 286.855,109.220 287.156 C 112.687 287.306,121.269 287.588,128.290 287.783 C 135.311 287.978,143.943 288.222,147.471 288.325 L 153.885 288.512 153.677 300.994 C 153.563 307.858,153.396 313.865,153.305 314.342 C 153.144 315.197,153.163 315.209,154.776 315.209 L 156.410 315.209 156.217 307.880 C 156.110 303.849,155.938 297.870,155.834 294.592 L 155.645 288.632 165.372 288.838 C 170.722 288.952,190.950 289.139,210.323 289.253 L 245.548 289.463 245.548 302.336 L 245.548 315.209 246.289 315.209 L 247.030 315.209 247.197 302.315 C 247.289 295.224,247.454 289.277,247.564 289.100 C 247.694 288.889,253.135 288.754,263.282 288.709 C 271.818 288.671,280.362 288.595,282.270 288.539 C 284.177 288.484,291.978 288.361,299.606 288.266 C 307.234 288.171,316.596 287.954,320.410 287.784 C 324.224 287.614,333.727 287.337,341.529 287.169 C 349.330 287.001,356.706 286.718,357.920 286.539 C 359.133 286.360,365.232 286.133,371.474 286.035 C 382.703 285.857,395.557 285.399,395.788 285.168 C 395.854 285.103,395.871 276.622,395.826 266.323 C 395.745 247.603,395.745 247.599,395.338 253.901 M27.663 283.911 C 28.055 283.986,28.623 283.983,28.924 283.905 C 29.225 283.826,28.905 283.764,28.211 283.767 C 27.518 283.771,27.271 283.835,27.663 283.911 M67.849 285.813 C 69.019 285.874,70.934 285.874,72.104 285.813 C 73.274 285.752,72.317 285.703,69.976 285.703 C 67.636 285.703,66.678 285.752,67.849 285.813 M91.977 286.760 C 93.416 286.818,95.685 286.818,97.020 286.759 C 98.356 286.700,97.179 286.652,94.405 286.652 C 91.631 286.653,90.539 286.701,91.977 286.760 " stroke="none" fill="#0a1627" fill-rule="evenodd"></path><path id="path3" d="M0.000 157.604 L 0.000 315.209 76.413 315.209 L 152.826 315.209 152.991 314.342 C 153.081 313.865,153.249 307.914,153.364 301.118 L 153.573 288.760 152.831 288.608 C 152.422 288.524,146.060 288.368,138.692 288.262 C 122.464 288.029,103.695 287.550,101.970 287.325 C 101.277 287.235,92.270 286.934,81.954 286.656 C 71.639 286.378,63.065 286.022,62.900 285.865 C 62.735 285.708,61.388 285.581,59.905 285.583 C 56.434 285.587,39.255 284.775,26.162 283.988 C 23.649 283.837,18.968 283.631,15.760 283.531 C 12.553 283.430,9.220 283.246,8.353 283.120 L 6.777 282.892 6.777 260.674 L 6.777 238.455 20.567 238.581 C 28.152 238.651,34.379 238.651,34.405 238.581 C 34.514 238.289,35.337 208.701,35.271 207.407 C 35.075 203.523,36.206 160.043,36.510 159.739 C 36.664 159.585,37.941 159.610,39.432 159.795 C 40.888 159.976,43.144 160.109,44.444 160.092 C 45.745 160.074,47.447 160.213,48.227 160.400 C 49.007 160.588,50.851 160.751,52.325 160.763 C 53.798 160.775,56.990 160.985,59.417 161.229 C 64.521 161.742,91.180 162.926,110.227 163.486 L 117.223 163.692 117.132 155.368 C 117.023 145.344,117.541 138.654,118.534 137.273 C 118.659 137.100,118.859 136.500,118.979 135.940 C 119.425 133.850,121.546 129.220,123.710 125.611 C 124.125 124.917,124.762 123.818,125.123 123.168 C 125.485 122.518,125.920 121.986,126.090 121.986 C 126.260 121.986,126.399 121.827,126.399 121.634 C 126.399 121.440,127.114 120.372,127.989 119.259 L 129.578 117.236 129.882 101.093 C 130.049 92.213,130.318 78.035,130.479 69.585 C 130.640 61.134,130.860 54.077,130.968 53.903 C 131.094 53.699,135.399 53.586,143.011 53.586 L 154.859 53.586 154.685 51.300 C 154.575 49.857,154.036 47.595,153.221 45.159 C 151.190 39.088,151.412 36.319,154.409 30.333 C 155.233 28.688,155.653 28.313,160.404 24.985 C 161.205 24.424,161.976 23.963,162.117 23.961 C 162.259 23.958,162.826 23.627,163.378 23.226 C 164.312 22.546,167.362 20.999,171.474 19.117 C 172.427 18.681,174.626 17.885,176.359 17.347 C 178.093 16.810,179.937 16.217,180.457 16.029 C 185.171 14.327,198.957 13.444,204.255 14.504 C 205.035 14.660,206.738 14.948,208.038 15.145 C 209.338 15.341,210.757 15.646,211.190 15.822 C 211.623 15.997,212.900 16.394,214.027 16.703 C 216.380 17.348,218.675 18.141,220.489 18.936 C 223.117 20.088,229.020 23.087,229.497 23.512 C 229.771 23.756,230.102 23.956,230.233 23.956 C 231.190 23.956,236.108 27.945,236.597 29.118 C 238.514 33.710,239.039 38.698,238.020 42.628 C 236.823 47.244,236.407 49.461,236.407 51.225 L 236.407 53.030 252.945 52.889 C 262.040 52.811,269.639 52.844,269.831 52.963 C 270.083 53.118,270.182 64.133,270.187 92.547 C 270.195 130.854,270.212 131.962,270.814 133.649 C 272.275 137.743,273.303 141.847,273.737 145.311 C 273.834 146.091,273.935 150.351,273.961 154.777 L 274.009 162.824 280.818 162.779 C 284.564 162.755,288.550 162.637,289.677 162.518 C 290.804 162.398,294.330 162.185,297.513 162.042 C 301.470 161.866,303.376 161.663,303.538 161.401 C 303.723 161.101,304.565 161.099,307.425 161.394 C 309.434 161.601,312.184 161.701,313.537 161.616 C 319.621 161.233,327.001 160.699,330.181 160.410 C 335.552 159.923,344.793 159.212,350.355 158.858 C 356.813 158.447,362.987 157.998,365.827 157.735 C 367.298 157.598,368.294 157.652,368.743 157.892 L 369.425 158.257 369.418 177.710 C 369.415 188.818,369.279 198.042,369.102 199.212 C 368.634 202.308,368.127 211.544,368.047 218.440 C 368.008 221.820,367.800 227.455,367.584 230.961 C 367.239 236.593,367.250 237.444,367.679 238.274 C 367.945 238.790,368.168 239.397,368.174 239.622 C 368.211 241.164,368.962 241.242,383.027 241.166 L 396.217 241.094 396.217 263.187 L 396.217 285.280 395.475 285.562 C 395.067 285.717,390.209 285.928,384.679 286.031 C 370.504 286.294,363.067 286.508,355.083 286.882 C 351.269 287.061,344.744 287.267,340.583 287.339 C 336.422 287.411,331.032 287.624,328.605 287.812 C 326.178 287.999,314.831 288.275,303.388 288.423 C 291.946 288.572,280.032 288.851,276.911 289.044 C 273.433 289.260,266.713 289.327,259.545 289.218 L 247.853 289.040 247.646 293.821 C 247.532 296.451,247.439 302.339,247.439 306.906 L 247.439 315.209 323.719 315.209 L 400.000 315.209 400.000 157.604 L 400.000 0.000 200.000 0.000 L 0.000 0.000 0.000 157.604 " stroke="none" fill="#0c9bdb" fill-rule="evenodd"></path><path id="path4" d="M195.359 14.416 C 196.100 14.482,197.235 14.481,197.881 14.414 C 198.526 14.346,197.920 14.291,196.533 14.292 C 195.146 14.294,194.618 14.349,195.359 14.416 M189.306 16.738 C 178.061 17.923,165.530 22.809,157.491 29.144 C 153.835 32.025,152.688 38.583,154.758 44.760 C 156.021 48.528,156.344 50.349,156.344 53.721 L 156.344 56.662 178.329 56.853 C 190.422 56.959,207.904 57.082,217.179 57.128 L 234.043 57.210 234.086 54.095 C 234.137 50.493,234.372 48.451,234.995 46.203 C 235.239 45.323,235.727 43.548,236.080 42.259 C 237.169 38.283,236.725 33.339,234.958 29.773 C 233.413 26.655,222.073 20.826,213.030 18.503 C 205.582 16.589,196.870 15.941,189.306 16.738 M234.358 26.995 C 235.963 28.419,236.554 28.835,235.935 28.103 C 235.592 27.697,235.025 27.219,234.676 27.040 C 234.328 26.862,234.184 26.841,234.358 26.995 M154.847 51.221 C 154.851 51.915,154.915 52.161,154.990 51.769 C 155.066 51.377,155.063 50.810,154.984 50.509 C 154.905 50.207,154.844 50.528,154.847 51.221 M142.572 53.821 C 144.792 53.875,148.338 53.875,150.452 53.821 C 152.565 53.766,150.749 53.722,146.414 53.722 C 142.080 53.722,140.351 53.767,142.572 53.821 M130.915 56.265 C 130.916 57.478,130.973 57.936,131.042 57.282 C 131.110 56.628,131.109 55.635,131.039 55.076 C 130.970 54.516,130.914 55.051,130.915 56.265 M138.948 54.767 C 141.776 54.819,146.315 54.819,149.035 54.767 C 151.754 54.714,149.441 54.672,143.893 54.672 C 138.345 54.672,136.120 54.715,138.948 54.767 M131.890 61.308 C 131.889 64.775,131.936 66.237,131.992 64.556 C 132.049 62.875,132.049 60.038,131.993 58.252 C 131.936 56.465,131.890 57.841,131.890 61.308 M241.695 55.393 C 242.436 55.459,243.571 55.458,244.216 55.391 C 244.862 55.323,244.255 55.268,242.868 55.270 C 241.481 55.271,240.953 55.326,241.695 55.393 M251.615 55.397 C 254.519 55.449,259.271 55.449,262.175 55.397 C 265.079 55.345,262.703 55.303,256.895 55.303 C 251.087 55.303,248.712 55.345,251.615 55.397 M268.070 67.455 C 268.070 73.609,268.112 76.127,268.163 73.050 C 268.215 69.972,268.215 64.937,268.163 61.860 C 268.112 58.783,268.070 61.300,268.070 67.455 M269.969 82.270 C 269.969 96.052,270.008 101.690,270.055 94.799 C 270.102 87.908,270.102 76.631,270.055 69.740 C 270.008 62.849,269.969 68.487,269.969 82.270 M130.605 72.025 C 130.606 73.412,130.661 73.940,130.728 73.199 C 130.794 72.458,130.793 71.323,130.726 70.677 C 130.658 70.032,130.603 70.638,130.605 72.025 M132.201 82.112 C 132.201 85.059,132.248 86.307,132.307 84.885 C 132.365 83.464,132.365 81.052,132.307 79.527 C 132.250 78.001,132.202 79.165,132.201 82.112 M132.474 96.454 C 132.474 97.234,132.535 97.553,132.610 97.163 C 132.685 96.773,132.685 96.135,132.610 95.745 C 132.535 95.355,132.474 95.674,132.474 96.454 M132.518 103.546 C 132.518 106.667,132.565 107.901,132.623 106.288 C 132.680 104.676,132.680 102.123,132.622 100.614 C 132.565 99.106,132.518 100.426,132.518 103.546 M258.944 115.366 C 259.973 116.407,260.886 117.258,260.973 117.258 C 261.060 117.258,260.289 116.407,259.259 115.366 C 258.230 114.326,257.317 113.475,257.230 113.475 C 257.143 113.475,257.915 114.326,258.944 115.366 M269.953 124.192 C 269.953 127.920,269.998 129.444,270.054 127.581 C 270.110 125.717,270.110 122.667,270.054 120.804 C 269.998 118.940,269.953 120.465,269.953 124.192 M322.143 161.086 C 321.798 161.320,321.926 161.349,322.616 161.195 C 323.775 160.935,324.027 160.755,323.220 160.761 C 322.888 160.764,322.403 160.910,322.143 161.086 M71.320 162.244 C 71.799 162.316,72.509 162.314,72.896 162.239 C 73.284 162.164,72.892 162.105,72.025 162.107 C 71.158 162.110,70.841 162.171,71.320 162.244 M75.414 162.564 C 76.237 162.629,77.585 162.629,78.408 162.564 C 79.232 162.499,78.558 162.446,76.911 162.446 C 75.264 162.446,74.590 162.499,75.414 162.564 M81.718 162.865 C 82.021 162.944,82.518 162.944,82.821 162.865 C 83.125 162.786,82.876 162.721,82.270 162.721 C 81.663 162.721,81.414 162.786,81.718 162.865 M65.327 163.180 C 65.630 163.260,66.127 163.260,66.430 163.180 C 66.734 163.101,66.485 163.036,65.879 163.036 C 65.272 163.036,65.024 163.101,65.327 163.180 M102.998 163.501 C 103.390 163.577,103.958 163.574,104.259 163.495 C 104.560 163.416,104.240 163.354,103.546 163.358 C 102.853 163.361,102.606 163.426,102.998 163.501 M79.511 163.811 C 79.815 163.890,80.311 163.890,80.615 163.811 C 80.918 163.731,80.670 163.667,80.063 163.667 C 79.456 163.667,79.208 163.731,79.511 163.811 M110.402 163.819 C 110.879 163.891,111.659 163.891,112.136 163.819 C 112.612 163.747,112.222 163.688,111.269 163.688 C 110.315 163.688,109.925 163.747,110.402 163.819 M82.196 164.137 C 82.763 164.207,83.614 164.206,84.088 164.134 C 84.561 164.062,84.098 164.004,83.058 164.006 C 82.017 164.008,81.630 164.067,82.196 164.137 M360.513 164.136 C 361.073 164.206,362.066 164.207,362.720 164.139 C 363.374 164.070,362.916 164.013,361.702 164.012 C 360.489 164.011,359.953 164.066,360.513 164.136 M355.785 164.451 C 356.345 164.521,357.337 164.522,357.991 164.454 C 358.645 164.386,358.188 164.329,356.974 164.327 C 355.760 164.326,355.225 164.382,355.785 164.451 M93.229 164.767 C 93.795 164.838,94.646 164.836,95.120 164.764 C 95.594 164.692,95.130 164.635,94.090 164.637 C 93.050 164.638,92.662 164.697,93.229 164.767 M347.124 164.756 C 347.427 164.836,347.924 164.836,348.227 164.756 C 348.530 164.677,348.282 164.612,347.675 164.612 C 347.069 164.612,346.820 164.677,347.124 164.756 M349.488 164.761 C 349.878 164.837,350.516 164.837,350.906 164.761 C 351.296 164.686,350.977 164.625,350.197 164.625 C 349.417 164.625,349.098 164.686,349.488 164.761 M36.322 165.800 C 36.322 166.407,36.387 166.655,36.466 166.351 C 36.546 166.048,36.546 165.552,36.466 165.248 C 36.387 164.945,36.322 165.193,36.322 165.800 M101.576 165.084 C 102.226 165.152,103.290 165.152,103.940 165.084 C 104.590 165.016,104.058 164.960,102.758 164.960 C 101.458 164.960,100.926 165.016,101.576 165.084 M105.989 165.080 C 106.466 165.152,107.246 165.152,107.723 165.080 C 108.199 165.008,107.809 164.949,106.856 164.949 C 105.902 164.949,105.512 165.008,105.989 165.080 M339.079 165.082 C 339.638 165.151,340.631 165.152,341.285 165.084 C 341.939 165.016,341.481 164.959,340.268 164.958 C 339.054 164.956,338.519 165.012,339.079 165.082 M109.461 165.396 C 109.940 165.468,110.649 165.466,111.037 165.391 C 111.424 165.316,111.032 165.257,110.165 165.260 C 109.299 165.262,108.981 165.323,109.461 165.396 M331.048 165.399 C 331.698 165.467,332.762 165.467,333.412 165.399 C 334.062 165.331,333.530 165.275,332.230 165.275 C 330.930 165.275,330.398 165.331,331.048 165.399 M321.434 165.718 C 322.518 165.780,324.291 165.780,325.374 165.718 C 326.458 165.656,325.571 165.606,323.404 165.606 C 321.237 165.606,320.351 165.656,321.434 165.718 M128.211 166.022 C 128.601 166.097,129.240 166.097,129.630 166.022 C 130.020 165.947,129.701 165.886,128.920 165.886 C 128.140 165.886,127.821 165.947,128.211 166.022 M313.086 166.026 C 313.565 166.098,314.274 166.097,314.662 166.022 C 315.049 165.947,314.657 165.888,313.790 165.890 C 312.924 165.892,312.606 165.954,313.086 166.026 M154.682 166.658 C 155.241 166.727,156.234 166.729,156.888 166.660 C 157.542 166.592,157.084 166.535,155.871 166.534 C 154.657 166.532,154.122 166.588,154.682 166.658 M285.185 166.661 C 285.922 166.727,287.128 166.727,287.864 166.661 C 288.601 166.595,287.998 166.540,286.525 166.540 C 285.051 166.540,284.448 166.595,285.185 166.661 M160.993 166.980 C 162.250 167.039,164.307 167.039,165.563 166.980 C 166.820 166.920,165.792 166.871,163.278 166.871 C 160.764 166.871,159.736 166.920,160.993 166.980 M276.675 166.979 C 277.758 167.040,279.531 167.040,280.615 166.979 C 281.698 166.917,280.812 166.867,278.645 166.867 C 276.478 166.867,275.591 166.917,276.675 166.979 M171.886 167.296 C 174.106 167.351,177.653 167.350,179.766 167.296 C 181.880 167.242,180.063 167.197,175.729 167.197 C 171.395 167.198,169.665 167.242,171.886 167.296 M259.977 167.292 C 260.718 167.358,261.853 167.358,262.498 167.290 C 263.144 167.222,262.537 167.168,261.151 167.169 C 259.764 167.170,259.235 167.225,259.977 167.292 M271.316 167.283 C 271.706 167.358,272.344 167.358,272.734 167.283 C 273.125 167.208,272.805 167.147,272.025 167.147 C 271.245 167.147,270.926 167.208,271.316 167.283 M194.262 167.610 C 195.613 167.670,197.741 167.669,198.990 167.610 C 200.239 167.550,199.133 167.502,196.533 167.502 C 193.932 167.502,192.910 167.551,194.262 167.610 M235.225 167.606 C 235.875 167.674,236.939 167.674,237.589 167.606 C 238.239 167.538,237.707 167.482,236.407 167.482 C 235.106 167.482,234.574 167.538,235.225 167.606 M242.947 167.610 C 244.377 167.669,246.718 167.669,248.148 167.610 C 249.578 167.552,248.408 167.504,245.548 167.504 C 242.687 167.504,241.517 167.552,242.947 167.610 M364.485 176.359 C 364.486 177.573,364.543 178.031,364.611 177.377 C 364.680 176.723,364.679 175.730,364.609 175.170 C 364.539 174.611,364.483 175.146,364.485 176.359 M364.782 188.180 C 364.782 188.960,364.844 189.279,364.919 188.889 C 364.994 188.499,364.994 187.861,364.919 187.470 C 364.844 187.080,364.782 187.400,364.782 188.180 M37.285 189.598 C 37.287 190.465,37.348 190.782,37.421 190.303 C 37.493 189.824,37.491 189.115,37.417 188.727 C 37.342 188.339,37.282 188.731,37.285 189.598 M364.805 194.326 C 364.806 195.713,364.861 196.241,364.928 195.500 C 364.994 194.759,364.993 193.624,364.926 192.978 C 364.858 192.333,364.804 192.939,364.805 194.326 M37.589 195.902 C 37.593 196.596,37.657 196.842,37.733 196.450 C 37.808 196.058,37.805 195.491,37.726 195.189 C 37.648 194.888,37.586 195.209,37.589 195.902 M37.623 200.158 C 37.623 201.805,37.677 202.478,37.742 201.655 C 37.806 200.831,37.806 199.484,37.742 198.660 C 37.677 197.837,37.623 198.511,37.623 200.158 M35.430 199.967 C 35.337 200.209,35.310 200.953,35.369 201.622 C 35.469 202.748,35.488 202.715,35.626 201.182 C 35.779 199.493,35.730 199.186,35.430 199.967 M365.106 202.364 C 365.106 203.318,365.165 203.708,365.238 203.231 C 365.310 202.754,365.310 201.974,365.238 201.497 C 365.165 201.020,365.106 201.411,365.106 202.364 M37.608 205.989 C 37.609 207.029,37.668 207.417,37.738 206.850 C 37.808 206.284,37.807 205.433,37.735 204.959 C 37.663 204.485,37.606 204.949,37.608 205.989 M37.956 222.222 C 37.956 225.429,38.003 226.742,38.060 225.138 C 38.117 223.534,38.117 220.910,38.060 219.307 C 38.003 217.703,37.956 219.015,37.956 222.222 M365.732 226.162 C 365.735 227.029,365.796 227.346,365.868 226.867 C 365.941 226.388,365.939 225.679,365.864 225.291 C 365.789 224.903,365.730 225.296,365.732 226.162 M367.304 228.211 C 367.304 228.991,367.366 229.310,367.441 228.920 C 367.516 228.530,367.516 227.892,367.441 227.502 C 367.366 227.112,367.304 227.431,367.304 228.211 M35.109 234.673 C 35.109 236.753,35.160 237.563,35.222 236.473 C 35.284 235.383,35.283 233.681,35.221 232.691 C 35.158 231.701,35.108 232.593,35.109 234.673 M38.271 241.608 C 38.271 244.728,38.318 245.962,38.375 244.350 C 38.433 242.737,38.432 240.184,38.375 238.676 C 38.317 237.168,38.270 238.487,38.271 241.608 M12.855 238.846 C 13.771 238.910,15.190 238.909,16.007 238.844 C 16.825 238.780,16.076 238.727,14.342 238.728 C 12.608 238.729,11.939 238.782,12.855 238.846 M393.459 241.361 C 393.936 241.433,394.716 241.433,395.193 241.361 C 395.670 241.288,395.280 241.229,394.326 241.229 C 393.373 241.229,392.983 241.288,393.459 241.361 M378.172 242.303 C 378.562 242.378,379.200 242.378,379.590 242.303 C 379.980 242.228,379.661 242.166,378.881 242.166 C 378.101 242.166,377.782 242.228,378.172 242.303 M381.954 242.313 C 382.864 242.376,384.354 242.376,385.264 242.313 C 386.174 242.249,385.429 242.197,383.609 242.197 C 381.789 242.197,381.044 242.249,381.954 242.313 M15.976 244.838 C 19.302 244.889,24.834 244.889,28.269 244.838 C 31.705 244.787,28.983 244.745,22.222 244.745 C 15.461 244.745,12.650 244.787,15.976 244.838 M395.682 246.178 C 395.682 247.132,395.741 247.522,395.813 247.045 C 395.885 246.568,395.885 245.788,395.813 245.311 C 395.741 244.835,395.682 245.225,395.682 246.178 M34.726 247.972 C 34.697 249.739,34.779 251.250,34.909 251.331 C 35.039 251.412,35.107 250.463,35.060 249.222 C 34.905 245.168,34.780 244.700,34.726 247.972 M367.950 247.439 C 367.950 248.566,368.007 249.027,368.077 248.463 C 368.147 247.900,368.147 246.978,368.077 246.414 C 368.007 245.851,367.950 246.312,367.950 247.439 M9.851 247.597 C 9.854 248.290,9.919 248.537,9.994 248.144 C 10.070 247.752,10.067 247.185,9.988 246.884 C 9.909 246.582,9.847 246.903,9.851 247.597 M249.567 248.620 C 252.384 248.673,256.994 248.673,259.811 248.620 C 262.628 248.568,260.323 248.525,254.689 248.525 C 249.054 248.525,246.749 248.568,249.567 248.620 M359.736 249.241 C 360.216 249.314,360.925 249.312,361.312 249.237 C 361.700 249.162,361.308 249.103,360.441 249.105 C 359.574 249.107,359.257 249.169,359.736 249.241 M395.362 250.433 C 395.364 251.300,395.426 251.617,395.498 251.138 C 395.571 250.659,395.569 249.950,395.494 249.562 C 395.419 249.175,395.360 249.567,395.362 250.433 M346.356 250.827 C 349.705 250.878,355.095 250.878,358.334 250.827 C 361.574 250.776,358.834 250.734,352.246 250.734 C 345.658 250.734,343.008 250.776,346.356 250.827 M279.196 251.139 C 280.106 251.202,281.596 251.202,282.506 251.139 C 283.416 251.075,282.671 251.023,280.851 251.023 C 279.031 251.023,278.286 251.075,279.196 251.139 M285.983 251.138 C 286.811 251.203,288.088 251.203,288.820 251.137 C 289.551 251.070,288.873 251.017,287.313 251.018 C 285.753 251.019,285.154 251.073,285.983 251.138 M297.951 251.142 C 300.162 251.196,303.779 251.196,305.989 251.142 C 308.199 251.088,306.391 251.043,301.970 251.043 C 297.549 251.043,295.741 251.088,297.951 251.142 M311.978 251.140 C 313.061 251.201,314.835 251.201,315.918 251.140 C 317.002 251.078,316.115 251.028,313.948 251.028 C 311.781 251.028,310.894 251.078,311.978 251.140 M213.790 251.458 C 218.601 251.507,226.474 251.507,231.284 251.458 C 236.095 251.409,232.159 251.369,222.537 251.369 C 212.916 251.369,208.980 251.409,213.790 251.458 M246.572 251.453 C 247.396 251.518,248.743 251.518,249.567 251.453 C 250.390 251.388,249.716 251.335,248.069 251.335 C 246.422 251.335,245.749 251.388,246.572 251.453 M58.998 251.773 C 71.944 251.819,93.220 251.819,106.279 251.773 C 119.339 251.727,108.747 251.690,82.742 251.690 C 56.738 251.690,46.053 251.727,58.998 251.773 M395.043 255.004 C 395.043 255.784,395.104 256.103,395.179 255.713 C 395.254 255.323,395.254 254.685,395.179 254.295 C 395.104 253.905,395.043 254.224,395.043 255.004 M8.899 259.417 C 8.899 260.024,8.964 260.272,9.043 259.968 C 9.122 259.665,9.122 259.169,9.043 258.865 C 8.964 258.562,8.899 258.810,8.899 259.417 M394.745 260.835 C 394.746 262.049,394.803 262.507,394.871 261.853 C 394.940 261.199,394.939 260.206,394.869 259.646 C 394.799 259.087,394.743 259.622,394.745 260.835 M8.584 262.884 C 8.584 263.491,8.649 263.739,8.728 263.436 C 8.807 263.132,8.807 262.636,8.728 262.333 C 8.649 262.029,8.584 262.277,8.584 262.884 M8.275 265.879 C 8.278 266.572,8.343 266.819,8.418 266.427 C 8.494 266.034,8.491 265.467,8.412 265.166 C 8.333 264.864,8.271 265.185,8.275 265.879 M394.412 266.667 C 394.412 267.447,394.474 267.766,394.549 267.376 C 394.624 266.986,394.624 266.348,394.549 265.957 C 394.474 265.567,394.412 265.887,394.412 266.667 M7.960 268.716 C 7.963 269.409,8.028 269.656,8.103 269.263 C 8.179 268.871,8.176 268.304,8.097 268.003 C 8.018 267.701,7.956 268.022,7.960 268.716 M7.638 272.340 C 7.638 272.947,7.703 273.195,7.782 272.892 C 7.862 272.589,7.862 272.092,7.782 271.789 C 7.703 271.485,7.638 271.734,7.638 272.340 M394.091 273.128 C 394.094 273.822,394.159 274.068,394.234 273.676 C 394.309 273.284,394.307 272.717,394.228 272.416 C 394.149 272.114,394.087 272.435,394.091 273.128 M393.786 278.487 C 393.788 279.354,393.850 279.671,393.922 279.192 C 393.994 278.713,393.993 278.004,393.918 277.616 C 393.843 277.228,393.784 277.620,393.786 278.487 M388.262 280.759 C 388.654 280.834,389.222 280.831,389.523 280.752 C 389.824 280.674,389.504 280.612,388.810 280.615 C 388.117 280.619,387.870 280.683,388.262 280.759 M378.487 281.389 C 378.877 281.464,379.515 281.464,379.905 281.389 C 380.296 281.314,379.976 281.252,379.196 281.252 C 378.416 281.252,378.097 281.314,378.487 281.389 M373.601 281.699 C 373.905 281.778,374.401 281.778,374.704 281.699 C 375.008 281.619,374.760 281.555,374.153 281.555 C 373.546 281.555,373.298 281.619,373.601 281.699 M369.665 282.020 C 370.057 282.095,370.624 282.092,370.926 282.013 C 371.227 281.934,370.906 281.873,370.213 281.876 C 369.519 281.880,369.273 281.944,369.665 282.020 M360.362 282.644 C 360.666 282.724,361.162 282.724,361.466 282.644 C 361.769 282.565,361.521 282.500,360.914 282.500 C 360.307 282.500,360.059 282.565,360.362 282.644 M13.952 282.969 C 14.431 283.041,15.141 283.039,15.528 282.964 C 15.916 282.889,15.524 282.830,14.657 282.832 C 13.790 282.835,13.473 282.896,13.952 282.969 M348.227 283.280 C 348.617 283.355,349.255 283.355,349.645 283.280 C 350.035 283.205,349.716 283.143,348.936 283.143 C 348.156 283.143,347.837 283.205,348.227 283.280 M342.553 283.601 C 343.117 283.671,344.039 283.671,344.602 283.601 C 345.165 283.531,344.704 283.474,343.578 283.474 C 342.451 283.474,341.990 283.531,342.553 283.601 M29.870 283.911 C 30.262 283.986,30.829 283.983,31.131 283.905 C 31.432 283.826,31.111 283.764,30.418 283.767 C 29.724 283.771,29.478 283.835,29.870 283.911 M336.885 283.916 C 337.452 283.987,338.303 283.985,338.776 283.913 C 339.250 283.841,338.786 283.784,337.746 283.786 C 336.706 283.787,336.319 283.846,336.885 283.916 M34.384 284.120 C 34.456 284.184,36.572 284.311,39.086 284.401 C 41.894 284.503,43.170 284.465,42.396 284.303 C 41.171 284.047,34.121 283.886,34.384 284.120 M329.635 284.232 C 330.202 284.302,331.053 284.300,331.527 284.228 C 332.000 284.156,331.537 284.099,330.496 284.101 C 329.456 284.103,329.069 284.161,329.635 284.232 M45.945 284.541 C 46.337 284.617,46.905 284.614,47.206 284.535 C 47.508 284.456,47.187 284.394,46.493 284.398 C 45.800 284.401,45.553 284.466,45.945 284.541 M322.547 284.550 C 323.376 284.616,324.652 284.615,325.384 284.549 C 326.115 284.483,325.437 284.429,323.877 284.430 C 322.317 284.431,321.718 284.485,322.547 284.550 M51.379 284.917 C 51.379 285.135,52.229 285.275,53.664 285.293 C 54.921 285.308,57.226 285.363,58.786 285.413 C 62.818 285.545,60.157 285.080,55.240 284.795 C 52.505 284.636,51.379 284.671,51.379 284.917 M316.069 284.861 C 316.628 284.931,317.621 284.932,318.275 284.864 C 318.929 284.795,318.471 284.738,317.258 284.737 C 316.044 284.736,315.509 284.791,316.069 284.861 M310.087 285.177 C 310.650 285.247,311.572 285.247,312.136 285.177 C 312.699 285.107,312.238 285.050,311.111 285.050 C 309.984 285.050,309.523 285.107,310.087 285.177 M62.931 285.655 C 63.157 286.021,65.813 285.940,66.048 285.559 C 66.188 285.334,65.686 285.256,64.519 285.320 C 63.564 285.372,62.849 285.523,62.931 285.655 M72.498 285.880 C 70.063 286.130,83.943 286.619,92.514 286.585 C 96.682 286.569,99.071 286.662,98.503 286.819 C 97.295 287.153,100.803 287.170,105.753 286.854 L 109.220 286.632 106.383 286.572 C 103.366 286.509,82.671 285.956,77.384 285.797 C 75.650 285.745,73.452 285.783,72.498 285.880 M294.011 285.802 C 294.401 285.877,295.039 285.877,295.429 285.802 C 295.820 285.727,295.500 285.665,294.720 285.665 C 293.940 285.665,293.621 285.727,294.011 285.802 M283.767 286.120 C 284.243 286.192,285.024 286.192,285.500 286.120 C 285.977 286.048,285.587 285.989,284.634 285.989 C 283.680 285.989,283.290 286.048,283.767 286.120 M272.570 286.437 C 273.129 286.507,274.122 286.508,274.776 286.440 C 275.430 286.371,274.972 286.314,273.759 286.313 C 272.545 286.312,272.010 286.367,272.570 286.437 M360.835 286.442 C 361.745 286.506,363.235 286.506,364.145 286.442 C 365.055 286.378,364.310 286.326,362.490 286.326 C 360.670 286.326,359.925 286.378,360.835 286.442 M263.436 286.757 C 264.346 286.821,265.835 286.821,266.745 286.757 C 267.656 286.694,266.911 286.641,265.091 286.641 C 263.270 286.641,262.526 286.694,263.436 286.757 M357.372 286.748 C 357.764 286.823,358.331 286.820,358.633 286.741 C 358.934 286.663,358.613 286.601,357.920 286.604 C 357.226 286.608,356.980 286.672,357.372 286.748 M118.755 287.073 C 119.838 287.135,121.612 287.135,122.695 287.073 C 123.779 287.012,122.892 286.962,120.725 286.962 C 118.558 286.962,117.671 287.012,118.755 287.073 M248.621 287.073 C 249.704 287.135,251.478 287.135,252.561 287.073 C 253.645 287.012,252.758 286.962,250.591 286.962 C 248.424 286.962,247.537 287.012,248.621 287.073 M108.830 287.381 C 109.309 287.454,110.019 287.452,110.406 287.377 C 110.794 287.302,110.402 287.243,109.535 287.245 C 108.668 287.248,108.351 287.309,108.830 287.381 M133.097 287.391 C 135.307 287.445,138.924 287.445,141.135 287.391 C 143.345 287.337,141.537 287.292,137.116 287.292 C 132.695 287.292,130.887 287.337,133.097 287.391 M228.920 287.390 C 230.611 287.447,233.377 287.447,235.067 287.390 C 236.757 287.334,235.374 287.287,231.994 287.287 C 228.613 287.287,227.230 287.334,228.920 287.390 M122.228 287.699 C 122.794 287.769,123.645 287.768,124.119 287.696 C 124.593 287.624,124.129 287.566,123.089 287.568 C 122.049 287.570,121.661 287.629,122.228 287.699 M159.102 287.706 C 162.612 287.757,168.357 287.757,171.868 287.706 C 175.378 287.656,172.506 287.614,165.485 287.614 C 158.463 287.614,155.591 287.656,159.102 287.706 M193.795 287.707 C 197.144 287.758,202.534 287.758,205.773 287.706 C 209.012 287.655,206.273 287.613,199.685 287.613 C 193.097 287.614,190.447 287.655,193.795 287.707 M130.102 288.019 C 131.186 288.081,132.959 288.081,134.043 288.019 C 135.126 287.957,134.240 287.907,132.072 287.907 C 129.905 287.907,129.019 287.957,130.102 288.019 M317.183 288.012 C 317.662 288.084,318.372 288.082,318.759 288.008 C 319.147 287.933,318.755 287.873,317.888 287.876 C 317.021 287.878,316.704 287.939,317.183 288.012 M140.813 288.328 C 141.372 288.398,142.365 288.399,143.019 288.331 C 143.673 288.263,143.215 288.206,142.002 288.204 C 140.788 288.203,140.253 288.259,140.813 288.328 M281.087 288.644 C 281.651 288.714,282.573 288.714,283.136 288.644 C 283.700 288.574,283.239 288.517,282.112 288.517 C 280.985 288.517,280.524 288.574,281.087 288.644 M160.835 288.966 C 162.526 289.023,165.292 289.023,166.982 288.966 C 168.672 288.910,167.289 288.863,163.909 288.863 C 160.528 288.863,159.145 288.910,160.835 288.966 M261.058 288.965 C 262.221 289.025,264.206 289.026,265.471 288.966 C 266.735 288.906,265.784 288.856,263.357 288.856 C 260.930 288.855,259.895 288.904,261.058 288.965 M181.185 289.282 C 183.666 289.336,187.638 289.335,190.011 289.282 C 192.384 289.229,190.355 289.185,185.500 289.185 C 180.646 289.185,178.704 289.229,181.185 289.282 M155.817 292.356 C 155.818 293.570,155.875 294.028,155.943 293.374 C 156.011 292.720,156.010 291.727,155.941 291.167 C 155.871 290.608,155.815 291.143,155.817 292.356 M153.601 298.503 C 153.601 299.456,153.660 299.846,153.732 299.370 C 153.805 298.893,153.805 298.113,153.732 297.636 C 153.660 297.159,153.601 297.549,153.601 298.503 M156.146 304.965 C 156.147 306.872,156.199 307.611,156.262 306.608 C 156.324 305.605,156.324 304.044,156.260 303.141 C 156.197 302.237,156.146 303.058,156.146 304.965 M153.286 312.687 C 153.286 313.641,153.345 314.031,153.417 313.554 C 153.489 313.077,153.489 312.297,153.417 311.820 C 153.345 311.344,153.286 311.734,153.286 312.687 " stroke="none" fill="#04246c" fill-rule="evenodd"></path></g></svg>