<?xml version="1.0" encoding="utf-8"?>
<!-- Generator: Adobe Illustrator 20.1.0, SVG Export Plug-In . SVG Version: 6.00 Build 0)  -->
<svg version="1.1" id="svg" xmlns="http://www.w3.org/2000/svg" xmlns:xlink="http://www.w3.org/1999/xlink" x="0px" y="0px"
	 viewBox="0 0 400 139" style="enable-background:new 0 0 400 139;" xml:space="preserve">
<style type="text/css">
	.st0{fill:#050404;}
	.st1{fill:#CBBD12;}
</style>
<g id="svgg">
	<rect class="st0" width="400" height="139"/>
</g>
<path class="st1" d="M54,69.9c0,0.2,0.1,1,0.3,1.7c0.4,1.8,0.1,2.1-1.4,1.5c-0.9-0.4-1.8-0.1-1.1,0.3c0.2,0.2,1.5,2.5,1.5,2.8
	c0,0.4-0.4,0.3-1.6-0.1c-1.8-0.7-1.8-0.6-0.4,1.5c1.5,2.1,1.3,2.3-1.6,1.7c-1.7-0.4-1.7-0.3-0.2,1.2c1.3,1.3,1.6,1.8,1,1.9
	c-0.2,0-1,0-1.8,0c-1.9,0-1.9,0-0.5,1.5c1.5,1.5,1.2,2.2-0.6,1.4c-0.8-0.4-2.4-0.8-2.6-0.7c-0.1,0,0.3,0.8,1,1.8
	c1.7,2.6,1.5,2.9-0.9,1.1c-2-1.4-2-1.4-1.1,0.7c0.8,2,0.3,2-1.3-0.1c-1.2-1.5-1.2-1.5-1.4,0.5c-0.2,2.2-0.6,2.2-1.9,0.1
	c-1.1-1.7-1.2-1.8-1.6-0.2c-0.8,3-1.4,3-2.2,0.2c-0.3-1.1-0.7-0.7-1.1,0.9c-0.4,1.9-1,1.9-1.9,0.2c-0.9-1.8-0.9-1.8-1.1-1.6
	c-0.1,0.1-0.3,0.7-0.3,1.3c-0.2,2.2-0.5,2.3-2.6,0.5c-2-1.8-2.3-1.6-2.6,1.3c-0.2,1.4-0.1,1.5,1.6,1.3c2.5-0.4,3.8,0.1,2.4,0.9
	c-1.5,0.8-1.6,1.5-0.2,1.1c2.8-0.7,3.2-0.4,1.8,1.3c-1.3,1.5-1.2,1.6,1,0.8c2.4-0.8,2.7-0.6,1.4,1.1c-0.8,1-1.1,1.6-1.1,1.8
	c0,0.1,0.5,0,2.9-0.7c1.4-0.4,1.6,0.1,0.4,1.6c-1.3,1.6-1.1,1.7,1.1,1c2.1-0.7,2.3-0.3,0.8,1.5c-1.1,1.3-1,1.5,0.3,1.2
	c1.9-0.4,2.3-0.5,2.7-0.3c0.6,0.2,0.4,0.5-1.4,1.4c-2,1-2.1,1.3-0.8,1.7c1.6,0.5,2.1,1.3,0.9,1.5c-1.2,0.2-2.8,0.8-2.8,1
	c0,0.1,0.6,0.5,1.3,0.9c2,1,2.1,1.6,0.2,2c-2.5,0.5-2.6,0.7-1.1,1.7c2.3,1.4,2.3,1.7-0.1,2.4c-2.4,0.8-2.6,1-1.1,1.5
	c1.9,0.6,1.9,1.1-0.1,2.2c-2.2,1.2-2.2,1.1-0.5,2.9c1.5,1.7,1.6,1.6,2.1-0.5c0.2-0.9,0.4-1.9,0.5-2.3c0.3-1.1,0.9-0.8,1.6,0.9
	c0.6,1.3,0.8,1.3,1-0.2c0.3-1.7,0.7-1.9,1.6-0.7c0.7,1,0.9,0.8,1-1c0.3-2.4,0.5-2.5,1.7-0.9c1.1,1.4,1.3,1.4,1.4-0.3
	c0.2-2.3,0.5-2.5,1.8-1.1c0.9,1.1,1.1,1,1.1-0.6c0-2.2,0.3-2.3,1.7-1c1.1,1.1,1.5,1.1,1.5-0.1c0-1.2,0.2-2.1,0.5-2.2
	c0.3-0.1,1,1.4,1.1,2.4c0.1,0.9,0.4,0.9,1.2-0.1c1-1.2,1.3-1,1.3,1c0.1,1.9,0.1,1.9,1.1,0.8c1.5-1.5,1.9-1.3,1.8,0.8
	c-0.1,1.8,0.2,2,1.5,0.7c1.2-1.2,1.7-1,1.7,0.8c0,1.5,0.2,1.6,1.3,0.6c0.8-0.7,0.8-0.7,1.2-0.5c0.2,0.1,0.3,0.6,0.3,1.7
	c0.1,1.9,0.3,2,0.9,0.7c0.6-1.4,1.1-1.3,1.7,0.3c0.3,0.9,0.5,1.1,1.1,1.3c0.3,0.1,0.7,0.2,0.8,0.4c0.3,0.2,0.3,0.2,0.8,0
	c1.1-0.7,1-1-0.9-2c-2-1.1-2-1.4,0-1.4c1.3,0,1.2-0.1-0.3-1.1c-1.7-1.1-1.7-1.5-0.1-2c0.9-0.3,0.6-0.8-0.6-1.1
	c-1.3-0.3-1.3-1.2-0.1-1.7c1.3-0.6,1.3-0.7-0.5-1.6c-1.5-0.8-1.6-1.1-0.3-1.8c1.2-0.7,1.2-0.9-0.2-1.3c-1.5-0.5-1.6-1.1-0.3-1.7
	c1.2-0.6,1.2-0.7-0.4-1.6c-1.7-0.9-1.6-1.2,0.6-1.5c1.9-0.2,1.9-0.2,0.8-1.9c-0.7-1-0.4-1.3,1-0.8c2,0.6,2.2,0.5,1.6-1.4
	c-0.5-1.6-0.2-1.8,1.3-1.1c1.5,0.7,1.9,0.4,1.1-1.1c-0.3-0.6-0.3-1.6,0-1.7c0.2-0.1,0.9,0.1,2.4,0.6c1,0.3,1.1,0.1,0.5-0.9
	c-0.9-1.7-0.7-2,1.1-1.2c1.5,0.7,1.7,0.5,1.1-1.3c-0.4-1.2-0.2-1.3,2.1-1.6c2.5-0.3,2.5-0.3,1.5-2.1c-0.7-1.2-0.7-1.2-2.2,0.3
	c-1.5,1.5-1.7,1.5-2-0.4c-0.2-1.6-0.4-1.6-1.5-0.2c-1.3,1.7-1.8,1.7-2.2,0c-0.4-1.8-0.6-1.8-1.8,0c-0.9,1.3-1.2,1.2-1.5-0.2
	c-0.2-1.7-0.4-1.8-1.6-0.1c-1.2,1.7-1.4,1.7-1.8-0.5c-0.2-1.3-0.6-1.4-1.2-0.4c-0.9,1.5-1.5,1.3-1.7-0.5c-0.2-1.5-0.2-1.6-1.3-0.4
	c-1.3,1.3-1.8,1.2-1.3-0.2c0.5-1.4,0.4-1.7-0.3-1.7c-2,0.2-2.2-0.1-1.1-1.5c0.9-1.2,0.9-1.4-0.5-1.4c-1.7,0-1.9-0.6-0.8-1.8
	c0.8-0.9,0.7-1-0.8-1.2c-1.8-0.2-1.9-0.5-0.8-1.9c1-1.2,0.9-1.4-0.6-1.4c-1.7,0-1.9-0.3-0.9-1.8c0.8-1,0.8-1.3-0.1-1.5
	c-1.3-0.2-1.5-0.6-1-2.2c0.5-1.5,0.3-1.9-0.9-2C54,69.4,54,69.5,54,69.9"/>
<path class="st1" d="M138,31.6c-0.1,0.2-0.5,0.9-0.9,1.5c-0.8,1.7-1.3,1.7-2,0.3c-0.5-0.9-1.3-1.2-1-0.4c0.1,0.3-0.4,2.9-0.6,3.1
	c-0.2,0.3-0.5,0-1.1-1.1c-0.9-1.7-1.1-1.6-1.2,0.9c-0.2,2.6-0.4,2.6-2.3,0.3c-1.1-1.4-1.2-1.3-1,0.8c0.2,1.8,0.1,2.4-0.4,2.1
	c-0.1-0.1-0.8-0.6-1.4-1.2c-1.4-1.2-1.5-1.2-1.3,0.9c0.2,2.1-0.4,2.5-1.4,0.7c-0.4-0.8-1.4-2.1-1.6-2.2c-0.1,0-0.3,0.9-0.3,2
	c-0.2,3.1-0.6,3.2-1.4,0.3c-0.6-2.3-0.7-2.3-1.3-0.1c-0.6,2.1-1,1.7-1-0.9c0-1.9,0-2-1.4-0.5c-1.5,1.5-1.8,1.3-1.5-1.1
	c0.3-2,0.1-2.1-1.1-1.2c-2.5,1.8-3,1.5-1.8-1.3c0.4-1-0.1-1-1.5,0c-1.5,1.2-2,0.9-1.6-1c0.4-2,0.4-2,0.1-1.9c-0.2,0-0.6,0.4-1.1,0.8
	c-1.5,1.6-1.8,1.4-2.3-1.3c-0.5-2.6-0.8-2.7-2.9-0.6c-1,1-1,1.1,0.5,2c2.1,1.3,2.9,2.5,1.3,2.2c-1.7-0.3-2.2,0.2-0.8,0.8
	c2.6,1.2,2.7,1.7,0.6,2.1c-1.9,0.4-1.9,0.5,0.3,1.3c2.4,0.8,2.5,1.3,0.4,1.8c-1.2,0.3-1.8,0.5-2,0.7c-0.1,0.1,0.4,0.3,2.7,1.3
	c1.4,0.6,1.2,1.1-0.7,1.5c-2,0.4-2,0.6,0.2,1.5c2,0.8,2,1.2-0.3,1.7c-1.7,0.4-1.8,0.6-0.6,1.1c1.8,0.9,2.1,1.1,2.3,1.4
	c0.4,0.6,0,0.6-2,0.2c-2.2-0.5-2.4-0.3-1.6,0.8c1,1.4,0.8,2.3-0.2,1.7c-1-0.6-2.7-1.1-2.8-1c-0.1,0.1,0.1,0.7,0.5,1.5
	c0.9,2.1,0.6,2.5-1.1,1.7C97,54,96.7,54,97.4,55.8c0.9,2.5,0.7,2.7-1.6,1.8c-2.4-0.9-2.7-0.8-1.8,0.5c1.2,1.7,0.8,2.1-1.4,1.7
	c-2.4-0.5-2.4-0.5-2.2,1.9c0.2,2.2,0.2,2.3,2,0.9c0.7-0.6,1.5-1.2,1.8-1.4c0.9-0.7,1.2,0,0.7,1.7c-0.4,1.4-0.2,1.5,0.9,0.5
	c1.3-1.1,1.8-1,1.6,0.4c-0.1,1.2,0.2,1.2,1.4-0.1c1.7-1.7,1.9-1.7,1.9,0.4c0,1.8,0.1,1.9,1.3,0.6c1.6-1.7,2-1.6,2.1,0.3
	c0.1,1.4,0.3,1.5,1.3,0.2c1.3-1.7,1.7-1.6,1.9,0.3c0.2,1.6,0.4,1.8,1.2,0.9c0.7-0.9,1.5-1.5,1.7-1.4c0.3,0.1-0.1,1.7-0.6,2.6
	c-0.5,0.8-0.3,0.9,1,0.7c1.6-0.3,1.6,0,0.4,1.6c-1.1,1.5-1.1,1.5,0.4,1.3c2.1-0.3,2.3,0.1,0.9,1.7c-1.2,1.4-1.1,1.7,0.7,1.5
	c1.7-0.2,1.9,0.3,0.8,1.7c-0.9,1.2-0.8,1.3,0.6,1.2c1.1-0.1,1.1-0.1,1.3,0.4c0.1,0.2-0.2,0.6-0.8,1.5c-1.1,1.5-1,1.8,0.3,1.1
	c1.3-0.7,1.6-0.3,1.1,1.3c-0.3,0.9-0.3,1.2,0.1,1.7c0.2,0.2,0.4,0.6,0.4,0.8c0.1,0.4,0.1,0.4,0.6,0.5c1.3,0.2,1.4-0.2,0.5-2.2
	c-0.9-2.1-0.7-2.4,0.9-1.1c1,0.8,1,0.7,0.4-1.1c-0.6-1.9-0.4-2.2,1.2-1.6c0.9,0.3,1-0.2,0.2-1.2c-0.8-1-0.3-1.7,1-1.4
	c1.4,0.3,1.4,0.2,0.6-1.5c-0.7-1.6-0.6-1.8,0.9-1.6c1.4,0.2,1.5,0,0.7-1.1c-0.9-1.3-0.6-1.9,0.8-1.6c1.4,0.3,1.4,0.2,0.7-1.5
	c-0.8-1.7-0.5-1.9,1.4-0.8c1.7,1,1.6,1,1.8-1c0.1-1.2,0.5-1.3,1.3,0c1.2,1.7,1.4,1.7,2.1-0.1c0.6-1.6,1-1.6,1.7,0
	c0.7,1.5,1.2,1.5,1.6-0.2c0.1-0.6,0.8-1.4,1-1.3c0.2,0.1,0.6,0.6,1.5,2c0.6,0.9,0.8,0.8,1-0.4c0.4-1.9,0.7-2,1.6-0.2
	c0.7,1.5,1,1.4,1.7-0.3c0.4-1.2,0.6-1.2,2.6,0.1c2.2,1.3,2.1,1.3,2.5-0.7c0.2-1.4,0.2-1.4-1.9-1.1c-2.1,0.2-2.2,0.1-1.3-1.6
	c0.8-1.4,0.7-1.5-1-1.1c-2,0.5-2.5,0.2-1.7-1.4c0.8-1.6,0.7-1.8-1.4-1.2c-1.5,0.4-1.7,0.2-1-1.1c0.9-1.5,0.8-1.7-1.2-1.1
	c-2,0.6-2.1,0.4-1.1-1.6c0.6-1.1,0.4-1.4-0.7-1c-1.6,0.6-2,0.1-1-1.4c0.8-1.3,0.8-1.3-0.7-1.1c-1.8,0.2-2.2-0.2-0.9-1
	c1.3-0.7,1.4-1.1,0.8-1.5c-1.7-1.1-1.7-1.4,0.1-1.8c1.5-0.3,1.5-0.5,0.4-1.4c-1.3-1-1.1-1.6,0.5-1.9c1.2-0.2,1.2-0.3,0.1-1.4
	c-1.3-1.3-1.2-1.6,0.5-2c1.6-0.3,1.6-0.5,0.5-1.5c-1.4-1.1-1.3-1.5,0.4-1.9c1.3-0.3,1.4-0.6,0.8-1.3c-0.9-1-0.8-1.4,0.6-2.3
	c1.3-0.9,1.4-1.3,0.6-2.1C138.3,31.3,138.2,31.3,138,31.6"/>
<path class="st1" d="M315.1,65.9c-0.4,0-1.5,0.3-2.6,0.6c-2.7,0.8-3.2,0.4-2.5-1.9c0.5-1.5-0.1-2.8-0.6-1.6
	c-0.2,0.4-3.7,2.6-4.1,2.7c-0.6,0-0.6-0.6,0-2.5c0.9-2.8,0.6-2.9-2.3-0.4c-3.1,2.5-3.4,2.3-2.8-2.2c0.4-2.7,0.2-2.7-1.9-0.2
	c-1.8,2.1-2.6,2.6-2.8,1.8c0-0.2-0.1-1.5-0.2-2.8c-0.2-2.9-0.3-2.9-2.4-0.5c-2.2,2.5-3.2,2.1-2.3-0.8c0.4-1.3,0.9-3.8,0.8-4.1
	c-0.1-0.1-1.2,0.6-2.6,1.8c-3.7,3-4.2,2.7-1.8-1.2c1.9-3.2,1.9-3.3-1.3-1.6c-3,1.5-3,0.7-0.1-2c2.2-2,2.2-2.1-0.9-2.2
	c-3.3-0.1-3.4-0.6-0.4-2.8c2.5-1.9,2.5-2.1,0.2-2.5c-4.7-0.8-4.8-1.8-0.5-3.4c1.6-0.6,1-1.2-1.6-1.6c-2.9-0.4-3.1-1.2-0.6-2.8
	c2.6-1.6,2.6-1.6,2.3-2c-0.2-0.2-1.1-0.3-2-0.3c-3.4,0-3.5-0.5-1-3.9c2.5-3.3,2.2-3.7-2.4-3.8c-2.2,0-2.3,0.1-1.7,2.6
	c0.9,3.7,0.3,5.8-1.1,3.7c-1.4-2.2-2.5-2.3-1.8-0.1c1.4,4.2,1,4.8-1.8,2.9c-2.5-1.7-2.6-1.6-1.1,1.6c1.6,3.6,1.2,4.1-1.6,2.4
	c-1.6-1-2.6-1.5-3-1.5c-0.2,0,0,0.8,1.4,4.4c0.8,2.2,0,2.4-2.4,0.8c-2.6-1.8-2.8-1.5-1.4,1.8c1.3,3.1,0.7,3.5-2.2,1.5
	c-2.2-1.5-2.5-1.4-1.9,0.6c0.9,2.9,1.1,3.5,0.9,4.1c-0.3,1-0.7,0.6-2.4-2c-1.8-2.9-2.2-3.1-2.6-1c-0.5,2.6-1.7,3.4-2.2,1.6
	c-0.5-1.8-1.6-4.2-1.9-4.2c-0.2,0-0.7,0.9-1.1,2.1c-1.3,3.2-2.2,3.4-3.1,0.5c-1.1-3.8-1.5-3.9-2.7-1.4c-1.8,3.7-2.3,3.7-3.7,0.2
	c-1.5-3.6-1.9-3.9-2.4-1.5c-0.6,3.1-1.5,3.1-3.4,0.1c-2.1-3.2-2-3.2-4.5-0.5c-2.3,2.6-2.3,2.7,1.1,3.1c1.4,0.2,3,0.4,3.5,0.5
	c1.7,0.3,1.3,1.3-1.2,2.6c-2,1.1-1.9,1.3,0.4,1.6c2.6,0.2,3,0.9,1.2,2.3c-1.4,1.1-1.1,1.4,1.7,1.5c3.7,0.1,3.9,0.4,1.6,2.5
	c-2.1,1.9-2,2.1,0.7,2.1c3.6,0,3.9,0.5,1.9,2.7c-1.5,1.6-1.3,1.8,1.1,1.6c3.3-0.3,3.6,0.2,1.7,2.5c-1.6,1.9-1.5,2.4,0.3,2.3
	c1.8-0.1,3.2,0,3.4,0.4c0.2,0.4-2.1,1.7-3.6,2c-1.4,0.3-1.3,0.7,0.2,1.9c2,1.4,1.7,1.8-1.3,2.2c-2.9,0.3-2.9,0.4-1.1,1.9
	c2.5,2,2.3,2.7-0.9,2.8c-2.8,0.1-3,0.5-0.9,2.3c2,1.7,1.7,2.4-1,2.7c-2.3,0.2-2.4,0.5-0.7,2c1.2,1.1,1.3,1.2,0.9,1.8
	c-0.2,0.3-0.9,0.5-2.6,0.7c-2.9,0.4-3.1,0.8-0.9,1.5c2.2,0.8,2.1,1.5-0.3,2.6c-1.4,0.6-1.7,0.9-1.8,1.9c-0.1,0.5-0.3,1.1-0.5,1.3
	c-0.3,0.5-0.3,0.6,0.1,1.2c1.2,1.6,1.7,1.3,3-1.7c1.4-3.2,2-3.3,2.2-0.2c0.2,2,0.3,1.9,1.7-0.7c1.4-2.7,2.1-2.8,3.1-0.5
	c0.6,1.3,1.3,0.9,1.6-1c0.3-2,1.6-2.2,2.6-0.4c1.1,1.9,1.3,1.9,2.4-0.9c1-2.4,1.4-2.6,2.7-0.7c1.2,1.8,1.5,1.7,2-0.4
	c0.5-2.4,1.5-2.7,2.6-0.7c1.1,1.8,1.3,1.8,2.4-0.8c1.1-2.7,1.6-2.6,2.3,0.7c0.6,2.9,0.6,2.9,3,1c1.5-1.2,1.9-0.8,1.4,1.4
	c-0.7,3.2-0.4,3.4,2.3,2.2c2.3-1,2.8-0.6,1.8,1.8c-0.9,2.4-0.3,2.9,1.8,1.6c0.8-0.5,2.4-0.7,2.6-0.3c0.1,0.3,0,1.4-0.7,3.8
	c-0.4,1.6-0.1,1.7,1.5,0.7c2.5-1.6,2.9-1.3,1.9,1.5c-0.8,2.4-0.5,2.7,2.2,1.5c1.8-0.7,2-0.5,2.7,3c0.8,3.9,0.8,3.8,3.5,2
	c1.8-1.2,1.8-1.2-0.8-3.4c-2.5-2.1-2.5-2.4,0.4-3.1c2.4-0.6,2.4-0.9,0.2-2.3c-2.8-1.7-2.8-2.5-0.2-3.3c2.7-0.8,2.7-1.1-0.2-2.8
	c-2.1-1.2-2-1.8,0.1-2.3c2.7-0.6,2.6-0.9-0.1-2.5c-2.8-1.6-2.7-1.9,0.6-2.9c1.9-0.5,2-1,0.4-1.8c-2.4-1.2-2.2-2.1,0.6-2.7
	c2.4-0.5,2.4-0.5,0.5-2c-2.2-1.8-2.1-2.7,0.2-2c2.2,0.6,2.7,0.4,2.5-0.8c-0.6-3-0.2-3.4,2.1-1.9c1.9,1.3,2.2,1.2,2-1
	c-0.2-2.6,0.6-3,2.7-1.4c1.5,1.1,1.7,1,1.7-1.3c0.1-2.8,0.5-3,2.8-1.5c2,1.4,2.3,1.2,2.1-1.1c-0.2-2.7,0.3-3,2.6-1.5
	c1.7,1.1,2.2,1,2.3-0.4c0.2-2,0.7-2.3,3.2-1.8c2.4,0.5,2.9,0.2,3-1.7C315.8,65.9,315.8,65.9,315.1,65.9"/>
<path class="st1" d="M353.8,15.2c-0.1,0.1-0.5,0.4-0.8,0.7c-0.8,0.8-1.1,0.8-1.3-0.2c-0.1-0.6-0.6-1-0.6-0.4c0,0.2-0.8,1.7-0.9,1.8
	c-0.2,0.1-0.3-0.1-0.5-0.9c-0.3-1.2-0.4-1.1-0.9,0.3c-0.6,1.5-0.7,1.5-1.4-0.2c-0.4-1-0.5-1-0.7,0.3c-0.2,1.1-0.4,1.5-0.6,1.2
	c-0.1-0.1-0.4-0.5-0.6-1c-0.7-1-0.7-1-0.9,0.3c-0.3,1.3-0.7,1.4-1,0.2c-0.1-0.5-0.4-1.5-0.6-1.6c-0.1,0-0.3,0.5-0.6,1.1
	c-0.7,1.8-0.9,1.8-0.9,0c0-1.5,0-1.5-0.8-0.3c-0.8,1.2-0.9,0.9-0.4-0.7c0.4-1.2,0.3-1.2-0.8-0.6c-1.2,0.7-1.3,0.5-0.7-0.9
	c0.5-1.2,0.5-1.3-0.5-0.9c-1.8,0.7-2.1,0.3-0.9-1.1c0.5-0.5,0.1-0.6-0.9-0.2c-1.1,0.4-1.3,0.2-0.8-0.9c0.6-1.1,0.6-1.1,0.4-1.2
	c-0.1,0-0.4,0.1-0.8,0.3c-1.2,0.7-1.4,0.5-1.2-1.2c0.2-1.7,0-1.8-1.6-0.9c-0.8,0.4-0.8,0.5-0.1,1.3c1.1,1.1,1.3,2,0.4,1.5
	c-1-0.5-1.4-0.3-0.6,0.3c1.3,1.2,1.3,1.5,0,1.4c-1.2-0.1-1.2,0-0.1,0.8c1.3,0.9,1.3,1.2-0.1,1.2c-0.8,0-1.2,0-1.3,0.1
	c-0.1,0.1,0.2,0.3,1.4,1.3c0.7,0.6,0.5,0.9-0.7,0.8c-1.3-0.1-1.3,0-0.1,0.9c1.1,0.8,1,1.1-0.5,1c-1.1-0.1-1.2,0-0.5,0.6
	c0.9,0.8,1.1,1,1.1,1.3c0.1,0.4-0.1,0.4-1.2-0.2c-1.2-0.7-1.4-0.6-1.1,0.2c0.3,1,0.1,1.5-0.5,1c-0.5-0.5-1.4-1.2-1.5-1.1
	c-0.1,0-0.1,0.5,0,1c0.2,1.4-0.1,1.6-1,0.8c-1.2-1.1-1.3-1.1-1.2,0.1c0.1,1.7-0.1,1.8-1.3,0.8c-1.3-1-1.5-1-1.2,0
	c0.4,1.2,0.1,1.4-1.2,0.7c-1.4-0.7-1.4-0.7-1.7,0.8c-0.3,1.4-0.3,1.4,1,0.9c0.5-0.2,1.1-0.5,1.4-0.5c0.7-0.2,0.7,0.2,0.1,1.2
	c-0.5,0.8-0.4,0.9,0.5,0.5c1-0.5,1.2-0.3,0.9,0.6c-0.3,0.7-0.1,0.7,0.9,0.2c1.3-0.7,1.5-0.7,1.1,0.6c-0.3,1.1-0.3,1.2,0.7,0.6
	c1.3-0.7,1.5-0.6,1.2,0.6c-0.2,0.9-0.1,0.9,0.7,0.4c1.1-0.8,1.3-0.7,1.1,0.5c-0.2,1-0.1,1.2,0.6,0.7c0.6-0.4,1.2-0.6,1.3-0.5
	c0.1,0.1-0.4,1-0.8,1.4c-0.4,0.4-0.3,0.5,0.5,0.6c1,0.1,1,0.3,0,1c-1,0.7-1,0.7,0,0.9c1.3,0.2,1.4,0.5,0.2,1.2c-1,0.6-1,0.8,0.2,1
	c1,0.2,1.1,0.5,0.2,1.2c-0.8,0.5-0.7,0.7,0.2,0.9c0.6,0.1,0.7,0.2,0.7,0.5c0,0.1-0.2,0.4-0.8,0.8c-0.9,0.7-0.9,0.9,0,0.7
	c0.9-0.2,1.1,0.1,0.4,1c-0.4,0.5-0.4,0.7-0.2,1c0.1,0.2,0.1,0.4,0.1,0.6c0,0.2,0,0.3,0.3,0.4c0.8,0.3,0.9,0.1,0.7-1.2
	c-0.2-1.4,0-1.6,0.7-0.5c0.5,0.7,0.5,0.6,0.5-0.6c0-1.2,0.2-1.4,1-0.8c0.5,0.4,0.6,0,0.4-0.7c-0.3-0.8,0.1-1.1,0.9-0.7
	c0.8,0.4,0.8,0.4,0.6-0.8c-0.2-1.1,0-1.2,0.8-0.8c0.8,0.4,0.9,0.3,0.6-0.6c-0.3-1,0-1.2,0.8-0.8c0.8,0.4,0.8,0.4,0.7-0.8
	c-0.1-1.2,0.1-1.2,1-0.2c0.8,0.9,0.8,0.9,1.2-0.3c0.3-0.7,0.5-0.7,0.8,0.2c0.4,1.3,0.5,1.3,1.3,0.3c0.6-0.8,0.9-0.8,1,0.3
	c0.2,1,0.5,1.1,1,0.2c0.2-0.4,0.7-0.7,0.9-0.6c0.1,0.1,0.3,0.5,0.5,1.5c0.2,0.6,0.3,0.6,0.7-0.1c0.6-1.1,0.8-1.1,1,0.2
	c0.2,1,0.4,1,1.1,0.1c0.5-0.6,0.6-0.6,1.6,0.5c1.1,1.2,1,1.2,1.6,0c0.4-0.8,0.4-0.8-1-1c-1.3-0.2-1.4-0.3-0.5-1.2
	c0.7-0.7,0.7-0.8-0.4-0.9c-1.3-0.1-1.5-0.3-0.8-1.1c0.8-0.8,0.7-0.9-0.6-0.9c-1,0-1.1-0.2-0.4-0.8c0.8-0.8,0.7-0.9-0.5-0.9
	c-1.3,0-1.4-0.1-0.4-1.1c0.6-0.6,0.5-0.8-0.2-0.7c-1.1,0.1-1.2-0.3-0.3-1.1c0.7-0.6,0.7-0.6-0.2-0.8c-1.2-0.2-1.3-0.5-0.3-0.8
	c0.9-0.2,1.1-0.4,0.7-0.8c-0.8-1-0.7-1.2,0.4-1.1c0.9,0.1,1,0,0.5-0.8c-0.6-0.9-0.4-1.2,0.7-1.1c0.7,0.1,0.8,0,0.3-0.8
	c-0.5-1-0.4-1.2,0.7-1.1c1,0.1,1.1,0,0.5-0.8c-0.6-0.9-0.5-1.1,0.6-1.1c0.8,0,1-0.1,0.7-0.6c-0.3-0.8-0.2-1,0.8-1.3
	c0.9-0.3,1.1-0.5,0.7-1.2C354.1,15.1,354,15.1,353.8,15.2"/>
<path class="st1" d="M383.3,67.6c-0.2,0.2-0.6,1-1,1.7c-1,1.9-1.5,2-2.3,0.4c-0.6-1-1.5-1.4-1.2-0.5c0.1,0.3-0.5,3.4-0.7,3.6
	c-0.3,0.3-0.6,0-1.3-1.3c-1.1-1.9-1.2-1.8-1.4,1c-0.2,3-0.5,3-2.6,0.4c-1.3-1.6-1.4-1.5-1.1,0.9c0.2,2.1,0.1,2.8-0.5,2.4
	c-0.2-0.1-0.9-0.7-1.6-1.3c-1.7-1.4-1.7-1.4-1.5,1c0.2,2.5-0.5,2.9-1.6,0.8c-0.5-0.9-1.6-2.5-1.8-2.6c-0.1,0-0.3,1-0.4,2.3
	c-0.3,3.6-0.7,3.7-1.6,0.4c-0.7-2.7-0.8-2.7-1.6-0.2c-0.7,2.4-1.2,2-1.1-1c0-2.2,0-2.3-1.6-0.6c-1.8,1.8-2.1,1.5-1.8-1.2
	c0.3-2.3,0.2-2.5-1.3-1.4c-2.9,2.1-3.5,1.7-2.1-1.5c0.5-1.2-0.1-1.2-1.7,0c-1.8,1.4-2.3,1.1-1.8-1.1c0.5-2.3,0.5-2.3,0.1-2.3
	c-0.2,0-0.7,0.4-1.2,1c-1.8,1.9-2.1,1.7-2.7-1.5c-0.5-3.1-0.9-3.1-3.3-0.7c-1.2,1.2-1.2,1.3,0.5,2.3c2.5,1.5,3.3,2.9,1.5,2.5
	c-2-0.4-2.5,0.2-1,0.9c3,1.4,3.1,2,0.6,2.5c-2.2,0.5-2.2,0.6,0.3,1.5c2.8,1,2.9,1.5,0.5,2.1c-1.4,0.3-2.1,0.6-2.3,0.9
	c-0.1,0.1,0.4,0.4,3.1,1.5c1.6,0.7,1.3,1.3-0.8,1.7c-2.3,0.5-2.3,0.7,0.2,1.7c2.4,0.9,2.3,1.4-0.3,2c-1.9,0.4-2,0.6-0.6,1.3
	c2.1,1,2.5,1.2,2.7,1.7c0.4,0.7,0,0.7-2.3,0.2c-2.5-0.5-2.8-0.4-1.9,0.9c1.1,1.6,1,2.7-0.3,2c-1.2-0.6-3.1-1.3-3.3-1.1
	c-0.1,0.1,0.2,0.9,0.5,1.7c1.1,2.4,0.7,3-1.3,1.9c-2.6-1.3-2.9-1.2-2.2,0.7c1.1,2.9,0.8,3.2-1.8,2.1c-2.7-1.1-3.1-1-2.1,0.5
	c1.3,1.9,0.9,2.4-1.7,1.9c-2.8-0.5-2.8-0.6-2.6,2.2c0.2,2.6,0.3,2.7,2.3,1.1c0.8-0.7,1.8-1.4,2.1-1.7c1.1-0.8,1.3,0,0.8,2
	c-0.4,1.6-0.2,1.7,1.1,0.6c1.5-1.3,2-1.2,1.9,0.5c-0.1,1.4,0.2,1.3,1.7-0.1c2-2,2.3-2,2.2,0.4c0,2.1,0.1,2.2,1.5,0.7
	c1.8-1.9,2.3-1.9,2.4,0.4c0.1,1.6,0.3,1.7,1.5,0.2c1.6-2,2-1.9,2.2,0.4c0.2,1.9,0.5,2.1,1.4,1c0.8-1,1.7-1.7,2-1.6
	c0.3,0.1-0.2,2-0.7,3c-0.5,0.9-0.3,1.1,1.2,0.8c1.8-0.3,1.9,0,0.5,1.8c-1.3,1.7-1.3,1.8,0.5,1.5c2.4-0.3,2.7,0.2,1.1,2
	c-1.4,1.6-1.3,1.9,0.8,1.7c2-0.2,2.2,0.3,0.9,1.9c-1.1,1.3-1,1.6,0.7,1.4c1.2-0.1,1.3-0.1,1.5,0.4c0.1,0.2-0.2,0.7-0.9,1.8
	c-1.3,1.8-1.2,2.1,0.4,1.3c1.5-0.8,1.9-0.4,1.3,1.5c-0.4,1.1-0.4,1.4,0.1,2c0.2,0.3,0.4,0.7,0.5,0.9c0.1,0.4,0.1,0.5,0.7,0.5
	c1.5,0.2,1.6-0.2,0.6-2.5c-1.1-2.4-0.8-2.8,1-1.3c1.2,0.9,1.2,0.8,0.5-1.3c-0.7-2.2-0.4-2.6,1.3-1.9c1,0.4,1.2-0.3,0.3-1.4
	c-0.9-1.2-0.4-2,1.1-1.7c1.6,0.4,1.7,0.3,0.7-1.8c-0.8-1.8-0.7-2.1,1-1.8c1.6,0.3,1.7,0,0.8-1.3c-1-1.5-0.7-2.2,1-1.8
	c1.6,0.4,1.6,0.2,0.8-1.7c-0.9-2-0.5-2.2,1.6-0.9c1.9,1.2,1.9,1.2,2.1-1.1c0.1-1.4,0.6-1.5,1.5,0c1.4,2,1.7,2,2.4-0.1
	c0.6-1.8,1.1-1.8,2-0.1c0.8,1.7,1.4,1.7,1.8-0.2c0.1-0.7,0.9-1.7,1.2-1.5c0.2,0.1,0.7,0.7,1.8,2.3c0.7,1,0.9,0.9,1.1-0.5
	c0.4-2.2,0.8-2.3,1.8-0.3c0.9,1.7,1.2,1.6,2-0.4c0.5-1.4,0.7-1.3,3.1,0.1c2.5,1.5,2.5,1.6,2.9-0.8c0.3-1.6,0.3-1.6-2.2-1.3
	c-2.5,0.3-2.6,0.1-1.5-1.8c0.9-1.6,0.8-1.8-1.2-1.3c-2.4,0.6-2.8,0.2-1.9-1.6c1-1.9,0.8-2-1.6-1.3c-1.7,0.5-2,0.2-1.2-1.3
	c1-1.8,0.9-1.9-1.4-1.2c-2.3,0.7-2.5,0.5-1.3-1.8c0.7-1.3,0.5-1.6-0.8-1.2c-1.9,0.7-2.3,0.1-1.2-1.7c1-1.5,1-1.5-0.8-1.3
	c-2.1,0.3-2.6-0.2-1-1.1c1.5-0.9,1.7-1.3,0.9-1.8c-1.9-1.3-1.9-1.6,0.1-2.1c1.7-0.4,1.8-0.6,0.5-1.6c-1.5-1.2-1.3-1.9,0.6-2.2
	c1.4-0.2,1.4-0.4,0.2-1.6c-1.5-1.5-1.4-1.8,0.6-2.3c1.8-0.4,1.9-0.6,0.5-1.7c-1.6-1.3-1.5-1.7,0.5-2.2c1.5-0.4,1.7-0.7,1-1.5
	c-1-1.2-0.9-1.6,0.7-2.7c1.5-1,1.6-1.5,0.6-2.5C383.6,67.2,383.6,67.2,383.3,67.6"/>
<path class="st1" d="M69,12.7c-0.1,0.1-0.3,0.5-0.5,0.8c-0.5,0.9-0.7,1-1.1,0.2c-0.3-0.5-0.7-0.7-0.6-0.2c0.1,0.2-0.2,1.6-0.3,1.7
	c-0.1,0.2-0.3,0-0.6-0.6c-0.5-0.9-0.6-0.9-0.7,0.5c-0.1,1.4-0.2,1.5-1.3,0.2c-0.6-0.8-0.7-0.7-0.5,0.4c0.1,1,0,1.3-0.2,1.2
	c-0.1-0.1-0.4-0.3-0.8-0.6c-0.8-0.7-0.8-0.7-0.7,0.5c0.1,1.2-0.3,1.4-0.8,0.4c-0.2-0.4-0.8-1.2-0.9-1.2c-0.1,0-0.1,0.5-0.2,1.1
	c-0.1,1.7-0.3,1.8-0.8,0.2c-0.4-1.3-0.4-1.3-0.7-0.1c-0.3,1.2-0.6,1-0.5-0.5c0-1.1,0-1.1-0.8-0.3c-0.8,0.9-1,0.7-0.8-0.6
	c0.1-1.1,0.1-1.2-0.6-0.7c-1.4,1-1.7,0.8-1-0.7c0.2-0.6-0.1-0.6-0.8,0c-0.8,0.7-1.1,0.5-0.9-0.5c0.2-1.1,0.2-1.1,0.1-1.1
	c-0.1,0-0.3,0.2-0.6,0.5c-0.8,0.9-1,0.8-1.3-0.7c-0.3-1.5-0.4-1.5-1.6-0.3c-0.6,0.6-0.6,0.6,0.3,1.1c1.2,0.7,1.6,1.4,0.7,1.2
	c-0.9-0.2-1.2,0.1-0.5,0.4c1.4,0.7,1.5,0.9,0.3,1.2c-1.1,0.2-1.1,0.3,0.2,0.7c1.3,0.5,1.4,0.7,0.2,1c-0.7,0.2-1,0.3-1.1,0.4
	c0,0.1,0.2,0.2,1.5,0.7c0.8,0.3,0.6,0.6-0.4,0.8c-1.1,0.2-1.1,0.4,0.1,0.8c1.1,0.4,1.1,0.7-0.2,1c-0.9,0.2-1,0.3-0.3,0.6
	c1,0.5,1.2,0.6,1.3,0.8c0.2,0.3,0,0.4-1.1,0.1c-1.2-0.3-1.4-0.2-0.9,0.5c0.5,0.8,0.5,1.3-0.1,1c-0.6-0.3-1.5-0.6-1.6-0.5
	c0,0,0.1,0.4,0.3,0.8c0.5,1.2,0.3,1.4-0.6,0.9c-1.3-0.6-1.4-0.6-1,0.4c0.5,1.4,0.4,1.5-0.9,1c-1.3-0.5-1.5-0.5-1,0.3
	c0.6,0.9,0.4,1.1-0.8,0.9c-1.4-0.3-1.3-0.3-1.2,1.1c0.1,1.2,0.1,1.3,1.1,0.5c0.4-0.3,0.9-0.7,1-0.8c0.5-0.4,0.6,0,0.4,0.9
	c-0.2,0.8-0.1,0.8,0.5,0.3c0.7-0.6,1-0.6,0.9,0.2c-0.1,0.7,0.1,0.6,0.8-0.1c1-1,1.1-0.9,1.1,0.2c0,1,0.1,1.1,0.7,0.3
	c0.9-0.9,1.1-0.9,1.2,0.2c0,0.8,0.1,0.8,0.7,0.1c0.7-0.9,0.9-0.9,1.1,0.2c0.1,0.9,0.2,1,0.7,0.5c0.4-0.5,0.8-0.8,1-0.8
	c0.1,0.1-0.1,1-0.4,1.4c-0.3,0.4-0.1,0.5,0.6,0.4c0.9-0.2,0.9,0,0.2,0.9c-0.6,0.8-0.6,0.8,0.2,0.7c1.2-0.2,1.3,0.1,0.5,0.9
	c-0.7,0.8-0.6,0.9,0.4,0.8c0.9-0.1,1.1,0.2,0.4,0.9C55,38,55,38.1,55.9,38c0.6,0,0.6,0,0.7,0.2c0,0.1-0.1,0.3-0.4,0.9
	c-0.6,0.8-0.6,1,0.2,0.6c0.7-0.4,0.9-0.2,0.6,0.7c-0.2,0.5-0.2,0.7,0.1,0.9c0.1,0.1,0.2,0.3,0.2,0.5c0,0.2,0.1,0.2,0.3,0.3
	c0.7,0.1,0.8-0.1,0.3-1.2c-0.5-1.2-0.4-1.3,0.5-0.6c0.6,0.4,0.6,0.4,0.2-0.6c-0.4-1-0.2-1.2,0.6-0.9c0.5,0.2,0.6-0.1,0.1-0.7
	c-0.4-0.6-0.2-1,0.5-0.8c0.8,0.2,0.8,0.1,0.3-0.8c-0.4-0.9-0.3-1,0.5-0.9c0.8,0.1,0.8,0,0.4-0.6c-0.5-0.7-0.3-1,0.5-0.9
	c0.8,0.2,0.8,0.1,0.4-0.8c-0.4-1-0.3-1.1,0.8-0.4c0.9,0.6,0.9,0.6,1-0.5c0-0.7,0.3-0.7,0.7,0c0.6,1,0.8,1,1.2,0
	c0.3-0.9,0.5-0.9,0.9,0c0.4,0.8,0.7,0.8,0.9-0.1c0.1-0.3,0.4-0.8,0.6-0.7c0.1,0,0.3,0.4,0.8,1.1c0.3,0.5,0.4,0.4,0.5-0.2
	c0.2-1.1,0.4-1.1,0.9-0.1c0.4,0.8,0.6,0.8,0.9-0.2c0.2-0.6,0.3-0.6,1.5,0c1.2,0.7,1.2,0.7,1.4-0.4c0.1-0.8,0.1-0.8-1.1-0.6
	c-1.2,0.1-1.2,0.1-0.7-0.9c0.4-0.8,0.4-0.9-0.6-0.6c-1.1,0.3-1.4,0.1-0.9-0.8c0.5-0.9,0.4-1-0.8-0.6c-0.8,0.2-1,0.1-0.6-0.6
	c0.5-0.8,0.4-0.9-0.7-0.6c-1.1,0.3-1.2,0.2-0.6-0.9c0.3-0.6,0.2-0.8-0.4-0.6c-0.9,0.3-1.1,0-0.6-0.8c0.5-0.7,0.5-0.7-0.4-0.6
	c-1,0.1-1.2-0.1-0.5-0.5c0.7-0.4,0.8-0.6,0.4-0.8c-0.9-0.6-0.9-0.8,0-1c0.8-0.2,0.9-0.3,0.2-0.8c-0.7-0.6-0.6-0.9,0.3-1.1
	c0.7-0.1,0.7-0.2,0.1-0.8c-0.7-0.7-0.7-0.9,0.3-1.1c0.9-0.2,0.9-0.3,0.3-0.8c-0.8-0.6-0.7-0.8,0.2-1.1c0.7-0.2,0.8-0.3,0.5-0.7
	c-0.5-0.6-0.4-0.8,0.3-1.3c0.7-0.5,0.8-0.7,0.3-1.2C69.1,12.5,69.1,12.5,69,12.7"/>
<path class="st1" d="M175,94.8c-0.1,0.1-0.3,0.5-0.5,0.8c-0.5,0.9-0.7,1-1.1,0.2c-0.3-0.5-0.7-0.7-0.6-0.2c0.1,0.2-0.2,1.6-0.3,1.7
	c-0.1,0.2-0.3,0-0.6-0.6c-0.5-0.9-0.6-0.9-0.7,0.5c-0.1,1.4-0.2,1.5-1.3,0.2c-0.6-0.8-0.7-0.7-0.5,0.4c0.1,1,0,1.3-0.2,1.2
	c-0.1-0.1-0.4-0.3-0.8-0.6c-0.8-0.7-0.8-0.7-0.7,0.5c0.1,1.2-0.3,1.4-0.8,0.4c-0.2-0.4-0.8-1.2-0.9-1.2c-0.1,0-0.1,0.5-0.2,1.1
	c-0.1,1.7-0.3,1.8-0.8,0.2c-0.4-1.3-0.4-1.3-0.7-0.1c-0.3,1.2-0.6,1-0.5-0.5c0-1.1,0-1.1-0.8-0.3c-0.8,0.9-1,0.7-0.8-0.6
	c0.1-1.1,0.1-1.2-0.6-0.7c-1.4,1-1.7,0.8-1-0.7c0.2-0.6-0.1-0.6-0.8,0c-0.8,0.7-1.1,0.5-0.9-0.5c0.2-1.1,0.2-1.1,0.1-1.1
	c-0.1,0-0.3,0.2-0.6,0.5c-0.8,0.9-1,0.8-1.3-0.7c-0.3-1.5-0.4-1.5-1.6-0.3c-0.6,0.6-0.6,0.6,0.3,1.1c1.2,0.7,1.6,1.4,0.7,1.2
	c-0.9-0.2-1.2,0.1-0.5,0.4c1.4,0.7,1.5,0.9,0.3,1.2c-1.1,0.2-1.1,0.3,0.2,0.7c1.3,0.5,1.4,0.7,0.2,1c-0.7,0.2-1,0.3-1.1,0.4
	c0,0.1,0.2,0.2,1.5,0.7c0.8,0.3,0.6,0.6-0.4,0.8c-1.1,0.2-1.1,0.4,0.1,0.8c1.1,0.4,1.1,0.7-0.2,1c-0.9,0.2-1,0.3-0.3,0.6
	c1,0.5,1.2,0.6,1.3,0.8c0.2,0.3,0,0.4-1.1,0.1c-1.2-0.3-1.4-0.2-0.9,0.5c0.5,0.8,0.5,1.3-0.1,1c-0.6-0.3-1.5-0.6-1.6-0.5
	c0,0,0.1,0.4,0.3,0.8c0.5,1.2,0.3,1.4-0.6,0.9c-1.3-0.6-1.4-0.6-1,0.4c0.5,1.4,0.4,1.5-0.9,1c-1.3-0.5-1.5-0.5-1,0.3
	c0.6,0.9,0.4,1.1-0.8,0.9c-1.4-0.3-1.3-0.3-1.2,1.1c0.1,1.2,0.1,1.3,1.1,0.5c0.4-0.3,0.9-0.7,1-0.8c0.5-0.4,0.6,0,0.4,0.9
	c-0.2,0.8-0.1,0.8,0.5,0.3c0.7-0.6,1-0.6,0.9,0.2c-0.1,0.7,0.1,0.6,0.8-0.1c1-1,1.1-0.9,1.1,0.2c0,1,0.1,1.1,0.7,0.3
	c0.9-0.9,1.1-0.9,1.2,0.2c0,0.8,0.1,0.8,0.7,0.1c0.7-0.9,0.9-0.9,1.1,0.2c0.1,0.9,0.2,1,0.7,0.5c0.4-0.5,0.8-0.8,1-0.8
	c0.1,0.1-0.1,1-0.4,1.4c-0.3,0.4-0.1,0.5,0.6,0.4c0.9-0.2,0.9,0,0.2,0.9c-0.6,0.8-0.6,0.8,0.2,0.7c1.2-0.2,1.3,0.1,0.5,0.9
	c-0.7,0.8-0.6,0.9,0.4,0.8c0.9-0.1,1.1,0.2,0.4,0.9c-0.5,0.6-0.5,0.7,0.4,0.7c0.6,0,0.6,0,0.7,0.2c0,0.1-0.1,0.3-0.4,0.9
	c-0.6,0.8-0.6,1,0.2,0.6c0.7-0.4,0.9-0.2,0.6,0.7c-0.2,0.5-0.2,0.7,0.1,0.9c0.1,0.1,0.2,0.3,0.2,0.5c0,0.2,0.1,0.2,0.3,0.3
	c0.7,0.1,0.8-0.1,0.3-1.2c-0.5-1.2-0.4-1.3,0.5-0.6c0.6,0.4,0.6,0.4,0.2-0.6c-0.4-1-0.2-1.2,0.6-0.9c0.5,0.2,0.6-0.1,0.1-0.7
	c-0.4-0.6-0.2-1,0.5-0.8c0.8,0.2,0.8,0.1,0.3-0.8c-0.4-0.9-0.3-1,0.5-0.9c0.8,0.1,0.8,0,0.4-0.6c-0.5-0.7-0.3-1,0.5-0.9
	c0.8,0.2,0.8,0.1,0.4-0.8c-0.4-1-0.3-1.1,0.8-0.4c0.9,0.6,0.9,0.6,1-0.5c0-0.7,0.3-0.7,0.7,0c0.6,1,0.8,1,1.2,0
	c0.3-0.9,0.5-0.9,0.9,0c0.4,0.8,0.7,0.8,0.9-0.1c0.1-0.3,0.4-0.8,0.6-0.7c0.1,0,0.3,0.4,0.8,1.1c0.3,0.5,0.4,0.4,0.5-0.2
	c0.2-1.1,0.4-1.1,0.9-0.1c0.4,0.8,0.6,0.8,0.9-0.2c0.2-0.6,0.3-0.6,1.5,0c1.2,0.7,1.2,0.7,1.4-0.4c0.1-0.8,0.1-0.8-1.1-0.6
	c-1.2,0.1-1.2,0.1-0.7-0.9c0.4-0.8,0.4-0.9-0.6-0.6c-1.1,0.3-1.4,0.1-0.9-0.8c0.5-0.9,0.4-1-0.8-0.6c-0.8,0.2-1,0.1-0.6-0.6
	c0.5-0.8,0.4-0.9-0.7-0.6c-1.1,0.3-1.2,0.2-0.6-0.9c0.3-0.6,0.2-0.8-0.4-0.6c-0.9,0.3-1.1,0-0.6-0.8c0.5-0.7,0.5-0.7-0.4-0.6
	c-1,0.1-1.2-0.1-0.5-0.5c0.7-0.4,0.8-0.6,0.4-0.8c-0.9-0.6-0.9-0.8,0-1c0.8-0.2,0.9-0.3,0.2-0.8c-0.7-0.6-0.6-0.9,0.3-1.1
	c0.7-0.1,0.7-0.2,0.1-0.8c-0.7-0.7-0.7-0.9,0.3-1.1c0.9-0.2,0.9-0.3,0.3-0.8c-0.8-0.6-0.7-0.8,0.2-1.1c0.7-0.2,0.8-0.3,0.5-0.7
	c-0.5-0.6-0.4-0.8,0.3-1.3c0.7-0.5,0.8-0.7,0.3-1.2C175.1,94.7,175.1,94.7,175,94.8"/>
<path class="st1" d="M226.2,24.2c-0.2,0.1-0.9,0.5-1.5,0.9c-1.6,1-1.9,0.9-1.9-0.7c0-1-0.5-1.7-0.7-0.9c-0.1,0.3-1.8,2.3-2.1,2.4
	c-0.3,0.1-0.5-0.3-0.4-1.5c0-1.9-0.1-1.9-1.5,0.2c-1.5,2.1-1.7,2-2.1-0.8c-0.3-1.7-0.4-1.7-1.2,0.2c-0.7,1.6-1.2,2.1-1.4,1.6
	c-0.1-0.1-0.4-0.9-0.6-1.7c-0.6-1.8-0.7-1.8-1.6,0.1c-0.9,1.9-1.6,1.9-1.5-0.1c0-0.9-0.1-2.5-0.3-2.7c-0.1-0.1-0.7,0.6-1.3,1.6
	c-1.8,2.6-2.1,2.5-1.3-0.4c0.6-2.3,0.6-2.4-1.1-0.8c-1.6,1.5-1.8,1-0.4-1.2c1-1.6,1-1.7-0.9-1.2c-2.1,0.6-2.2,0.2-0.8-1.7
	c1.2-1.6,1.2-1.8-0.4-1.6c-3.1,0.3-3.3-0.2-1-2c0.9-0.7,0.4-0.9-1.3-0.7c-1.9,0.3-2.2-0.2-0.9-1.6c1.3-1.5,1.3-1.5,1.1-1.6
	c-0.1-0.1-0.7,0-1.3,0.2c-2.1,0.6-2.3,0.3-1.4-2.2c0.9-2.5,0.7-2.7-2.2-1.9c-1.4,0.4-1.4,0.5-0.6,1.9c1.2,2.2,1.2,3.6,0,2.5
	c-1.3-1.1-2-1-1.1,0.3c1.6,2.3,1.5,2.8-0.6,2.1c-1.9-0.6-1.9-0.5-0.4,1.2c1.7,1.9,1.5,2.4-0.5,1.8c-1.2-0.3-1.9-0.5-2.1-0.4
	c-0.1,0.1,0.2,0.5,1.7,2.5c0.9,1.2,0.5,1.5-1.3,0.9c-1.9-0.6-2-0.4-0.6,1.4c1.4,1.7,1.1,2.1-1.1,1.3c-1.6-0.5-1.8-0.4-1.1,0.7
	c1.1,1.7,1.3,2,1.3,2.4c0,0.7-0.3,0.5-1.8-0.8c-1.6-1.5-1.9-1.5-1.8-0.1c0.1,1.7-0.4,2.4-1.1,1.4c-0.6-1-1.8-2.3-1.9-2.3
	c-0.1,0-0.3,0.7-0.3,1.5c-0.2,2.3-0.8,2.5-1.8,0.9c-1.4-2.1-1.6-2.2-1.9-0.4c-0.4,2.6-0.7,2.7-2.3,0.8c-1.6-2-1.9-2.1-1.8-0.5
	c0.2,2-0.3,2.2-2.1,0.7C171,24,171,24,170,26.2c-1,2-0.9,2.1,1.2,1.8c0.9-0.1,1.9-0.3,2.3-0.3c1.1-0.1,1,0.6-0.3,1.8
	c-1,1-0.9,1.2,0.5,0.9c1.7-0.3,2,0,1.2,1.2c-0.7,1-0.4,1.1,1.3,0.6c2.3-0.6,2.5-0.5,1.5,1.3c-0.9,1.6-0.9,1.7,0.8,1.2
	c2.2-0.7,2.5-0.4,1.6,1.3c-0.7,1.3-0.5,1.4,1,0.8c2-0.8,2.3-0.6,1.5,1.2c-0.6,1.5-0.5,1.8,0.6,1.4c1.1-0.4,2-0.6,2.2-0.4
	c0.2,0.2-1,1.4-1.8,1.9c-0.8,0.5-0.7,0.7,0.5,1.1c1.5,0.5,1.4,0.8-0.4,1.6c-1.7,0.7-1.7,0.8-0.3,1.3c2,0.8,1.9,1.3-0.1,1.9
	c-1.8,0.6-1.8,0.9-0.1,1.6c1.5,0.7,1.5,1.2-0.2,1.8c-1.4,0.5-1.4,0.7-0.1,1.4c0.9,0.5,1,0.5,0.9,1c0,0.2-0.5,0.5-1.5,0.9
	c-1.7,0.8-1.8,1-0.3,1.1c1.5,0.1,1.6,0.6,0.3,1.7c-0.8,0.7-0.9,0.9-0.8,1.5c0,0.3,0,0.7-0.1,0.9c-0.1,0.3-0.1,0.4,0.3,0.7
	c1,0.8,1.3,0.5,1.5-1.6c0.3-2.3,0.6-2.4,1.3-0.5c0.5,1.2,0.6,1.1,0.9-0.7c0.4-1.9,0.8-2.1,1.8-0.8c0.6,0.7,1,0.3,0.8-0.9
	c-0.2-1.3,0.6-1.7,1.6-0.7c1,1,1.1,0.9,1.3-1c0.2-1.7,0.4-1.9,1.6-0.9c1.1,0.9,1.3,0.8,1.2-0.6c-0.1-1.6,0.4-1.9,1.5-0.9
	c1,0.9,1.1,0.9,1.3-0.9c0.2-1.9,0.6-1.9,1.6,0c0.9,1.7,0.9,1.7,2,0.1c0.7-1,1-0.8,1.1,0.6c0.1,2.1,0.4,2.2,1.8,1
	c1.3-1.1,1.6-0.9,1.5,0.8c-0.1,1.7,0.3,1.9,1.4,0.7c0.4-0.5,1.4-0.9,1.6-0.6c0.1,0.2,0.2,0.9,0.3,2.5c0,1,0.3,1.1,1.1,0.1
	c1.3-1.5,1.6-1.3,1.5,0.6c-0.1,1.6,0.2,1.7,1.6,0.6c1-0.8,1.1-0.7,2.2,1.4c1.2,2.3,1.2,2.2,2.5,0.6c0.9-1.1,0.9-1.1-1.1-2
	c-2-0.9-2-1-0.3-2c1.4-0.8,1.3-1-0.3-1.5c-2-0.6-2.2-1.1-0.8-2c1.5-1,1.5-1.2-0.6-1.7c-1.5-0.4-1.6-0.7-0.3-1.4
	c1.5-0.9,1.5-1.1-0.5-1.5c-2-0.5-2.1-0.7-0.2-1.9c1.1-0.7,1.1-1-0.1-1.2c-1.7-0.3-1.7-0.9-0.1-1.8c1.4-0.7,1.4-0.7,0-1.3
	c-1.7-0.7-1.8-1.3-0.3-1.3c1.5,0,1.8-0.2,1.4-0.9c-0.9-1.8-0.7-2.1,1-1.5c1.4,0.4,1.6,0.3,1.1-1c-0.6-1.6-0.2-2,1.4-1.4
	c1.1,0.4,1.2,0.3,0.8-1.2c-0.5-1.8-0.2-2,1.5-1.4c1.5,0.5,1.7,0.3,1.1-1c-0.6-1.6-0.4-1.9,1.3-1.4c1.3,0.4,1.5,0.2,1.4-0.7
	c-0.3-1.3,0-1.6,1.7-1.7c1.6-0.1,1.8-0.4,1.6-1.6C226.6,24,226.6,24,226.2,24.2"/>
<path class="st1" d="M211.3,81.5c-1.9,0.7-2.4,1.3-2.4,3.1c0,3.2,4.1,4.2,5.7,1.4C215.9,83.9,213.5,80.7,211.3,81.5"/>
<path class="st1" d="M20.8,23.7c-1.9,0.7-2.4,1.3-2.4,3.1c0,3.2,4.1,4.2,5.7,1.4C25.3,26.2,23,23,20.8,23.7"/>
<path class="st1" d="M321.9,121.2c-1.9,0.7-2.4,1.3-2.4,3.1c0,3.2,4.1,4.2,5.7,1.4C326.4,123.6,324.1,120.4,321.9,121.2"/>
<path class="st1" d="M368.1,30.1c-1.9,0.7-2.4,1.3-2.4,3.1c0,3.2,4.1,4.2,5.7,1.4C372.6,32.5,370.3,29.3,368.1,30.1"/>
<path class="st1" d="M96.5,118.1c-1.9,0.7-2.4,1.3-2.4,3.1c0,3.2,4.1,4.2,5.7,1.4C101,120.5,98.7,117.3,96.5,118.1"/>
<path class="st1" d="M157.3,11.5c-1.9,0.7-2.4,1.3-2.4,3.1c0,3.2,4.1,4.2,5.7,1.4C161.8,14,159.4,10.7,157.3,11.5"/>
</svg>
